<mxfile host="app.diagrams.net" agent="Mozilla/5.0 (Windows NT 10.0; Win64; x64) AppleWebKit/537.36 (KHTML, like Gecko) Chrome/128.0.0.0 Safari/537.36 Edg/128.0.0.0" version="24.7.13">
  <diagram name="Página-1" id="8Gjww0C-cJyAvvyhh2th">
    <mxGraphModel dx="1242" dy="533" grid="1" gridSize="10" guides="1" tooltips="1" connect="1" arrows="1" fold="1" page="1" pageScale="1" pageWidth="827" pageHeight="1169" math="0" shadow="0">
      <root>
        <mxCell id="0" />
        <mxCell id="1" parent="0" />
        <mxCell id="tZCrtHF1z1mg3ISMcb_O-1" value="Gerar Solicitação de Pagamento" style="html=1;outlineConnect=0;whiteSpace=wrap;fillColor=#EBEBEB;shape=mxgraph.archimate3.application;appType=proc;archiType=rounded;" vertex="1" parent="1">
          <mxGeometry x="80" y="70" width="150" height="75" as="geometry" />
        </mxCell>
        <mxCell id="tZCrtHF1z1mg3ISMcb_O-2" value="PIX&lt;div&gt;QRCode ou Copia e Cola&lt;/div&gt;" style="html=1;outlineConnect=0;whiteSpace=wrap;fillColor=#EBEBEB;shape=mxgraph.archimate3.application;appType=event;archiType=rounded" vertex="1" parent="1">
          <mxGeometry x="50" y="210" width="150" height="75" as="geometry" />
        </mxCell>
        <mxCell id="tZCrtHF1z1mg3ISMcb_O-4" value="Sem registro na CIP" style="html=1;outlineConnect=0;whiteSpace=wrap;fillColor=#EBEBEB;shape=mxgraph.archimate3.application;appType=generic;archiType=rounded;" vertex="1" parent="1">
          <mxGeometry x="20" y="350" width="150" height="75" as="geometry" />
        </mxCell>
        <mxCell id="tZCrtHF1z1mg3ISMcb_O-6" value="" style="edgeStyle=elbowEdgeStyle;html=1;endArrow=block;dashed=1;elbow=vertical;endFill=1;dashPattern=6 4;rounded=0;entryX=0.5;entryY=0;entryDx=0;entryDy=0;entryPerimeter=0;" edge="1" parent="1" target="tZCrtHF1z1mg3ISMcb_O-2">
          <mxGeometry width="160" relative="1" as="geometry">
            <mxPoint x="150" y="150" as="sourcePoint" />
            <mxPoint x="490" y="270" as="targetPoint" />
          </mxGeometry>
        </mxCell>
        <mxCell id="tZCrtHF1z1mg3ISMcb_O-7" value="+/-" style="edgeStyle=elbowEdgeStyle;html=1;endArrow=open;elbow=vertical;endFill=0;dashed=1;dashPattern=6 4;rounded=0;exitX=0.75;exitY=0;exitDx=0;exitDy=0;exitPerimeter=0;entryX=0.5;entryY=1;entryDx=0;entryDy=0;entryPerimeter=0;" edge="1" parent="1" source="tZCrtHF1z1mg3ISMcb_O-4" target="tZCrtHF1z1mg3ISMcb_O-2">
          <mxGeometry x="1" y="10" relative="1" as="geometry">
            <mxPoint x="330" y="270" as="sourcePoint" />
            <mxPoint x="490" y="270" as="targetPoint" />
          </mxGeometry>
        </mxCell>
        <mxCell id="tZCrtHF1z1mg3ISMcb_O-8" value="" style="shape=image;verticalLabelPosition=bottom;labelBackgroundColor=default;verticalAlign=top;aspect=fixed;imageAspect=0;image=data:image/png,iVBORw0KGgoAAAANSUhEUgAAATkAAAFWCAYAAAASQ+p+AAAAAXNSR0IArs4c6QAAAARnQU1BAACxjwv8YQUAAAAJcEhZcwAADsMAAA7DAcdvqGQAAP+lSURBVHhe7H0HYB3F1fV5Xb0XS5Zluci9F2yDbZqNqTa9hRZCAknIl0K+9MKXkE5oCb0EQu8YG7ABd+Pee1GxJav3+vT6f86sHpYdICSB/ITo2qu3Ozvlzp07Z+6dnZ21RUjopV7qpV76nJK9+7eXeqmXeulzSb0g10u91Eufa+oFuV7qpV76XFMvyPVSL/XS55p6Qa6XeqmXPtfUC3K91Eu99LmmXpDrpV7qpc819YJcL/VSL32uqRfkeqmXeulzTb0g10u91Eufa+oFuV7qpV76XFMvyPVSL/XS55p6Qa6XeqmXPtfUC3K91Eu99LmmXpD7L6Kje2p9Wrtr/f18FaN3b69e+ndSL8h9zujjwUzPX9G/CjtK/3FKjsb7V8vrpV76+NS7aeZ/NH1400Vg676rszAPG0952Kxwnr1PR6/D3WdWnGi4dS+aW89w684HUzRWD7KysIi3jpYWpWNDjs/hg64/jHrG66X/buq15P5jiYAQ0RHq/j3umuQNBqF/YfiAoNeEgbe9QesUgbABCl3qNxwM8C8BLiBg5G3mEwyHEeYRCTFWJAB/sEtZmHghlhVmQh0qMmzdMCchxf87pBg+5h1ieqYgD8wP4sHiK8SMVR1FjDCSwgx1n6iWH3a8H7eX/uupF+T+oynanY/v3voFHA4nr5wGlCIGAIkWDsDp7AYBu92AmZRA8ALGD/sDsNktO8hNq8/JczsPG9MplsNmZxY2+IJ+mGg2gg9/Gfw+C2FbkPgpcO0u50NIUGYjD4pnXfvIp6CPtifB731LkWUorPvKkEL+3tFLvSTqBbnPKQkX3ESFSMiG5hY/Kuub0dxYz4AAXLrPwyerrtOHkK8Tfn8QzZ0htLR3Mg6BJkSwI1DZaEqFIgQygxwEvbADbfWt8LV5aa2FCGZdtPg6eE7QY7pOXxsq6qu77THB4lFLsSfRPiT8Mpw3BJI1dXVoam6m9WZBnoPgZ9c9/gsJSBlmsI6k+FFg7KVe+nvUOyf3H0vs5sYtNd3fhBxL8vGCOFR0CC+99hbW7ynFoJHj8ZPvfBkJ6OKtMCprGrBu8zZMmDYDrvgUvPjqArTVHsGXLp+HvtlpFqrY3PDTjHOwHAcBr7GyCvNfnY8u3rv2q1+h1RZitADiwwRHfycWrt6KZbsO45K5czGhcJAUjKBEi01Zvc+nfiO01oJwhDrRWFuJJ157G03hGHyHeaa7eVs+LEslRrOmtCZ56dCQ3A1wuqvjw0hRe0fwXhL16sHnjqJN2kagqETVgXVYvuAlLFi8Fr/702soriU02OlwBlqwfsnr+MtTz6Ok1YM2AovfnYEuRwI6Iy50BQgltKYU180fB11X2JyIcdIBtrUjNt6Jdrq2dkccXI5YxmtneSU4WLofTy/ahMO1bXCEvXDZfLQcQ3DJLTWTduLPTjdY+boJY82I9x7A0pUr8OzyIjSGCGy0IkOhLsJ00LjKTiaR+xoIyJ0laAYjf6O4waDy7qVe+lty3ErqPu+l/yiK2jPHk4NgJEuJbmhLLRa/uxzlta0YM3kGdmzdgeHDBmLs8EHYv3UN/vrQPXh3cxHWlnqR2nciWugueqsPYEBqBK8tXIzqNgfy+mTDTXB59oVX8PriJeiTFY/ivWvp6oYwfNw0RJweLHzjHTx7z49Rt3cVtlUD2+vjMOvE8Rif58b+7Rvwi5/dirfeXISq6ibm1w/JifGQV/zn+/6MNfP/gvpDO7CiqB01cYNx7YWnIMXbiMWLFuHeh5/Alo2bMKhfPpJSUuCL2Bn+Nh7485+xYOECBAiGOTk5iPPEmLm9niQJ6OilXtLI2Ev/kRSMRMK+7sPf4whbt3leWbQzcuW1l0eu+9bNkdUrFkUKU1yR2WecHTncEYm88vxTkWn9Y4iSPBJPjHz14a2RM75xf+Scs86ObHv5jsi1X7gmctq1v45UVTZFfPtXRC6aNydy9g3fjCx9b1HkpksnRL548cmRiiMVkadeXx5JGzIpkkh/dkQcIjFprgjGzo08tXRVpGL/O5HJA5yRTDsicVS17NScyAN3PBoJtUQiN3/jJxFnYmYkzYbI6ASidWJsJPeyb0UOsTqvPXpPpF9aMv3j+Ei8xxO5YNaJkX17D0ZeemtdJH/gqIiHadwsL78gL/L8Sy9G2r3+SIBVZu3NofMQj17qJdHxVn8v/ceQmk6PEPTYk+d6vGkecfoIJ3Qd6dYdLKlFZV0H+vTth/HD8jB7YgFKS4qxqagVp5x9Ab7yletx0qkn46XN7+Hyq8eZSa9IoA0FWXEYO6IQGzdtQXFpGfYePIBDlVWYfvosJKWmIOCjGxpxIui14bXXF8NPN3bpygXYueNVzJ17PvMJ8X8QuzbtQHZuAZZuWI4XX3gewwcMQkVlE7YVN+KBJ1/CzNlzsL9kOx59/I8YUpiPmFALvI3NeO7JlzFr1rlY9t5a/PlPd6Li0H6sWrkEhyrKEBfvwHPPPIJXX3sdhSOmYn/xEXT62s1DDNVeRy/1Uk/q1Yn/VNIjRuOQWSBHs4cOLJsz0MLgZqCjCrv3bkfDkRLUH9yLF19aCHvWMJQ0hLB09Vb4gmG4PQ4EtPaN2YSlCU47WglenTEpmDp5JAoSO7FkxQq8sbUaXY40TB45CnEswwk3whEP6pv9qKyqw+hRwzF4wADYk9IwdcoJyMhOR5wzHtPGnYaLrvomHnh9Ob77s19i/45t6AgBWytbEPTZMGbceGTkZ2LM6HyMHdYfMeEwGmvasGHDAby2YDHOnnsWfvzTn6CtpQO1dUcwdHgOEuL8+P53v46nn1+AWed9BTPPmIf4JDeCBHZ7uIsVCVlr9rR4r5d6idQLcv9xdFznNZfWGwpaqkH8MUDX3NKO93aXo6axAzs3rcWjjzyAPUVFSE1Oxtb3VqP2yBEE/F0IdDbB6dcDAi3+jaDLk4au+FyMHzkA0wc4sHjxG3h5/WEMm3w6Bub0QarbQwfXjiR3EPGORqTEdCHU0UzQYwbOWNR3+sx8nc0fwNP3PYL/+/nvcKQ5iNPOnovs7BTEuZrRN72DRmgbvF5anF0BtHmDaPVGEHEmwBXjRlqGB+PHDMKP//fb+Oo3v48zL7sJw4aNxci8LHz52itx87e/jbAnFT/69f24+4G/mqUnTlqxNgKbgwgnyBf891IviXpB7j+Vor24R292mQs1qQdFtWFsOhTC6Rd/CT//9a9w792/wp9/+11cd+5JKN+yEof37DRx22rKsO6Np1C0tcEsHu6yxaM1FIuYjGRcfsYEHC7diy1FRzB60olIS4mBPRgkgHXB5T+CvBS6sKMzUFdahL88/Rwef2k+Xl/+Hto7vQh3tePAljWICQbQP7svnO4YBOx+pNhLMTX7EE4aHYf17y3H/Y88hydeWIZ1u2vREopBQroLU6f2IZDWI83jQavPhQPNDvTtOxJHtuzD2qXr0BGJRW7hMMQkJaCktBy+Dj2E8dB8o1VLsLUTrC3Y76Ve6gW5/0D6YBtFoVa3juFFPLbsPIC62lpMmDAJ00+djdEzTsfwk07C+WefApe3Gnt370Bqn4G07FLwzAN3YO0bzyAp1AhH0I8g0ws0xk89EakpCeiTFocp40dai3cdcQi40+G3u+COseOi88/C1BPG4fY/P4B7/vIi2ppakRrqgoem4dlXXU6rzov5Tz2G4qL9yOxfgLZ2Wn+xIdz2w2+zhDDuuOdBvLl8KxXRjQQEkBTnwNXXX8W8nbjt1v/Dc88/j+y+fdGvXz5GENgc9ljcedf9ePDPd6Jfuh1f/ML5SIxPsCpv5iS7V+P1YlwvdVPvYuDPEXX5fIjxsKP72lFHF/FIXScys9ORlZFA8OqEwxaEtzOMksNVSE+ORVK8GyVV9Wjx25Ceng6Xw4auLj+yszKRkRSLoL8NB8uq4LPFYmD/fOMJO0IRVB4upnvagX79+yDkiEF1QxtqamvgdDpoDcYi4AujIC8bHkcYh8rK0ekLko8c+Lp8iHN40S87ia5pEvYV1yDo60R8rMvw4IhNwtD+GbTi2lB6qApVDZ2IS05F37w88pMAeziEmsojOFR+hK65C6kZfZCRlYwMAnHEzEjqNTVZc2T0g8eCXvovpF6Q+xxROBSmMUNHLcLfgI/9nE1LEIrYHWa+Tm8MyNYJh/2w2wVZgD+klwvCiKErabPT7QsSJBweBAgScgKd/OvQhD7jRyIO2Gw2dDIzV/f7r8ISvVwfDtvgsdsZlzf9nQi5Yy1rj/cdtNCYi5b28sp6JmwsTxYQsfGPLWBcTMOdjeXwTPyKf6c5szjRwxW9ambe2ldlQvo172KQAyu9UznrVNQLdL1E6gW5zxGpKUMRumvs3DTKLDJbhChAYKZ+HzIv1ofN41TCiCbrbT4LNOiq6uEBzTODE4ri0PtYES1LESIpQGCjtHaTdVAYxbyNK8tzARpNLnM/GHbCafgIm9ezmAsBzgE7cUppzANiQ36xR7KZhx8Bup16eCCo0zyjQ3NtPFMeDoEi45vENjm8PO3GPENKJlLe7+ffS//NFFWNXvockF6YF8Bp2PLRRTQoJEQjUEWCwW7gi/Bel8ECvSTgEAopnFZgRNadwCMUNCDkUHq9ME8rzUIkXQcERcwywDwD5pWrKMAZZTLJ9Xq+Xt3Sha7pTDKC0siKUzzdEg9dBFYHc/CzHFl7ERYsgNPh4l/ZZrAxFeOL/4he3yKvesWsixmYephwnuiil3rpOOq15D6HpAZlvz9KxwREm7tnDNlDou6wqIllfhhfKtIzuiEF/E0gSfl3F2isLRPIEP3T5dHX9HVtkXWm8Ghq/dW1FTuaIkri9/2tQK27RzP72+i99F9NvSD3uSQ1qdXTo437wf3+aLwoHY8Vx19/MH10KX9LHy/XvyWLX+tvlHrmpSvrzj+Say99vqkX5P6r6Vi4iNLxoR8c61+hnir3SeT8yXPYS58f6gW5XuqlXvpcU++Dh17qpV76XFMvyPVSL/XS55p6Qa6XeqmXPtfUC3K99F9Lx09G905Ofz7p3/rg4fii9IpQT/p793uplz4pkqbpMKO8TqhqWk+sdyv0kkfvw9rPD/Vacr30X0vH49j7170A97miXpDrpf9KEo7pkNGmt9ZEDl5Ew3T00ueDekGul/47qRvJ9BMyAaTuML00ptNe+nzQpwpymmM7/rBeItd2QEfVSN/UFCm85/H3yO/3IxjUTMrRPEQ9z3vps0M92/zfSdY3W7VpwHFEfnTPeqvWuhaFQsF/iteo3qmsqF7+K6T8eh7iSTqvXx3H3/97FE3z30Z/58GDbv19sPkwOj5rC7eOffdQe6DZ398n5+OSlYMaTGf6sLDb5TTAqDI/DkD+c/SvyeNv0+tadGye/2opR+mDyvvHc45y2ZM+Xi6fTPkfl6Kbrvx9itbIhoAGXYfDfBvCaGb37sJBAp2T4R+X32Nrxitty6KtXP4psnI7CkiCYRsc3d+WtXQ8CqpHS7Uf9+3ZDyOl156DVvzj3wUW/W3IfzJ9BMhFg49WVmBiXVn3HE5tstOTjhMOBRndS0L3gsEAfBqJeB0huMV4PHCZPNhY1E7bx1YKq3xxrjM7WzzEBg9z9HS6tJkPSzRA1x2P5fXg6p8kKy/R0fwU9o/k3DP+0fx65hENPTbXf7Qc0Qfl9MG5/z3qyWlP+qCcRVb4B5eldvf7A/DEerpD/hlS3tF8rXLUJurz6rcBvw9er5e64CYw2OBxu4hdPQHLSuPt6qL+eZhOnT4ApzMCh0N8qfP/bY0+igQ3AlntxBfydxp+XJ5Yhn542p61OJasO9YXx6zD1C8UQVeXF7ExHqPn4bAcbebQvQ3WxzEWulhngaXLre1MrXxFx/KhMqP0wRwaUgeUYcFTK1Y03Uek+f9AH2MJiW5LmHY0NDRhxcqVGD9hAvr369c9EkhQop7CsqptbdJojZDaIWzTxi14771VaGqoN/uYDRhYgJmnzEZuXr7ZKyy60aOVOkq6kgpZ32Ay4d0R9BMMhOBi4x4uK0cd8x05Yhhi3LTqHNH9Z0nvx482qUiBOqzRTKQr/T3abMfGFh0NOZaiUugZQ2cK1WHUrzvb7h9DR+/rb/fIrM0ptQcc/1k1tmIfHTKiqbvJKJvysTjXYQ0XVg7K1VybpmZEE9cqz9aj/lHSnSiZOz0DohdmnYUOxYgeH0YWH4rd2NSIV199BVdd+QV21hgTdjSX4/OwuLRiaGvzKFmhx5apTxH6UVPbgFWr1mH/vn1oa29FfkEhTjltNgYW9EWstobvrq+cST+tuDhmEWpvw5K1G5CUk49xI6k/FJbwJbrjlKV5UbLOohxItiLtTRz2eRG2e7Cn6JAJGzm8sLsdrP4jE+F4aSu98ureppSHFcNcEbXtUQuTtGjxYrR1dOKEqSey/+UxW8vVDneveXEYID9KVqj+Wmetra1YtnIVwdeDs2fPPloJw5DJib9Hy9dhXVmap0PXIsW2ctXRs0bd9H7eVkz1fysuSbucGiPEKucDUpM+OPSfoSjPPSjKXZRY8UgHGhsq8Je/PIr7HnoQhyqOIKDNC40msHERkIqZS/MnHOSPhM/bPAL+DhzYfwAvvPgaCgcW4vqrv4CLLzgH7R2NePaVl1Be1wav3ypKUxkStTkMK6psmO0Z5KG8eSmd0Q8vXXIpeC83tw8GFA6B0wCc5h5C5JGRopmRH/0LhLSrLG9EVKAimEKMhREOB1QLXllNq3LCqieJt7tjkrrLF2lDSJEaWv+UOkp+KqiuVYqhnjdJsjxUO+UQpCVhytXckeLxpj/UxXKtwhQnYDasVArd7s5MjEXDeAQY0ZIbf8mbNdBoMFAgz3TBiLSrecqWC2m/XoXpfoRlBniHv7w0fCsDyUBbAIuMnySeGC45kidzTvdOeUiOyt+w9T6RD/LbxTB7nAczZs2EXQY8I6lNqC0U6bHzStpkU8x2UXeCEW3lzlwUpKKVufjSNQ+TLNKF2qo9ePzR+6irLbj4wosJpFfCGZOIX//xQewvPmxFZk7SC2VjuaM+OPzN2L27CLsPdaKD2fp4U1JR/VU7/Rq9EAOse5BtJP2WnJSPX4NHqA12VyctpU48vWAFtuwtp6XIm4yj0oLUuy7yLQ7eJzJukvKUMRiVXo5kzTClstkJK1JFgldbYy3C/jbzzY607GxzX9shy9VW/5PqBJWZISMQhNiWqq9cU7WVtr1fv2UjDtIg0B0jVNO+Ud23AhWs9o/2EJFsIfU/YxOpfzNWl4nL2AH1KYtnQypemRhx+fmjQ7XsJt0jSaY9D8kgeoQFhJ8QOW4ldZ/3IHIhjg0zdjQ3VOK1117Fhk2b0eEL4GSOjPl5fTn6sBYmjv44zF8Lm8m0dniVGxmkgrID79qxE3t27sKN11+NjLxsZPTJQWr/QsTGJqJPagpSEuLwxoJFePGZJ7F7C0fVhHhkMU5DWyeWrt2Endu34I1Xn8OBfUUUQAyysrPoWgTQ2ViD5wi+KWlJKKs6gviUdGpvHF565XXz1fYNa9YgLTERSSkp8FFB31iwAC8+9zze27AeSRkZSEvNJOdSFo6aNnV8J6qa2/HwQ49i0ZsLUVddhcb6BvjDLqzZtAcdTc3I7ZOKLlqQa3bsQn1dA9ITUngfuPO++7H49ddQfeggYlmeJzUdbgrFGfRSWV1md/E9e/fiiScfxbvvrEB7awCbt2xC4ZD+pt8uXbYSzz71DLauW4uMjDSkkb+Kmga8u/w9rFu7Bnu370BWTl+UVVThL488gCVvLcD23XuRlNUXCWnJpuPFUNYOKlZtdRNWbdiBPpnJtJjC2LR1J1au30ULoD9WLF2EHXu2YcE7b2DZkqXo16cvtm7diCf++hiqauqQldsPcXGxBurtZtSNwNvSjheefwkLX30VWzZtRJ8+uUhJz0Qne/LTTz6BRQteQQnzzEhJZtoELFu9EWUcvF596QWseOdNdHQGyHt/yqkL8xe8gHFjxlPubuxg/V967kksWLgI2/cUYfjokXTFqH7GDbLDTXdTX4fQ5wsfY52XrlqLxLS+SKFszabGmuaQzoXbsWrJIpQersE119+M/Py+yEhP4aDaHw21RzB4QH8kJqag9NARPM96vPXaQjh8fgzIy0J7WxNW7yyHI2UwRg7NRPnBctz/wEN4a+lybN6xA6lZGearZvAHjWVld9kJdGFs2bIDzzz5NJYvop7s34yRuSlYvf0wfvvAy+hsqMGInHgcPlRKvaGsX1+IMAEwNSMVC95aiJefedp8/zbia0VOdhKWrF5NkK2ixTnY1OtI8R7sP7Ad8an90Ox14f4H70dt5QEkJSUip+8A9psYVDYGcNfdd7ANF+FQ2WFk5+Qa69ihaZ9gF/U5TK+pDW+8swovvfgsSg9uR11VFcvri/Hjx6OivhOL5r+K+c/+FQcPlyFz4GDmKxebOkseNO7t3LEXpSVVyEpNhscZxKGivVi3cQMc1PlNu/ajeP9e1uVxLF+5ApXsC63NbWzPl6jX21BIqziOrvWhkv14/YXnsOCVl5nmAGIy+yGZ+uoknFlWokh/rTORgU+D8P86fQDICaqO/mi0CXHoS6byFg4dhNqGZowZewJycrItUNDHTQxMKInAjWhPBbXThNM/67vuEbQ2NmDBi89xtC3BwP65aHOkIJKchpH9+yHdFcBbCxbihddex9knT0R2jBerli+Ggw1ZH4zBD397HzISXZg2qi8bswpF5fUYPrwf4uO6sOD5v6J4315kZCVh594dSMsbiYefe5fKfAgnTRqB+FgH3luziiCXhjfeWoI9O3Zj2tRpaKNLuGDFWvTrPxC5aamw+VtYAy+amn341T1PwMfRafL4EVi3aiWWLF6CQcMmYPHydXDZvBg7egBaggG8unwVaiuqMZigcMed96OopALzTpuG9qp92LzvIJLyhyKbfDsinWy/WOw/1IjXXn8Z2Rlx6EsAf+TBR7Bt8yqcPWcGVq/diQWLN2MUO3lSgg1L3n4HWel90dDpxy/uuBODcvvi5LHj0dzehecXvoXhA3IxoiAbhxrbsWJvKYFyFFI9TjhDrWyzVpQVVeGZN9dh5vh8xHka8Ori1XhmXQmmT5+GZx66HfUNdSgcPhrLl6/AK6+8yPbMwODCAVi3fistRhdGDCnkCN0Bh8vJDt2Jx555DuX1LZh0whSj/Gu27EVsej/c/+hjaGioxoyJw9BVV4p9O7ajYOAwvLhwGe56+CmcMHEc+menYduWPejsCCMhwY1bf/EDXHLxlThCQFq75G3kJSegcMR4PP/GEtQQHCZNGk3d8hgVdITt2PTuO3jikTvpdk6EM7kvFizfjdiEROTnpsHpFAjTZCIAvfLcfAwbNRnjpk4yBqe+RhHrbseUUdnIyhuIw+VdeOixJ43bOm1oIVaz0zU2NyJ75Cis21OOhOQ+iIMHi158EsMG90dh4UAcqa7lQFKEgQMKCeBJzFfmiR+Hi8qos+9iSE4OJgzMw5olr6OutgLDppyF9TuPYEpBKs6fPAAvUudeWrEdp06dimlD+mE5wXrTvl2YOXky4qljG5fQu+mXjANNPtz14hKcN+cMJAZasH7pKzhSUYy0wTNx3Q8eQkKiByeN748dmzYZ4HJlDsD13/0pxo4ZTT3IQ1lZGTp9XexbA+B2uA2P7HRYuGgNVm4pZTuMQLClDBuWLKE8JiBz0BjcR8+qbP9OzJkyBiVVzVi2uQhDhgxHRjxHGQ3MPJYs3YJd+2oxbUwhZd2KPVvW4vV3lyG3YDQ9s0UoL96H6VNGoIVe2QOPkU8OcIMGDMHSDetQ1lyHEUOH4JUnnkQy+8DU8YVYuusQFu2tx9hx45AZY21z33MyIEpyjD8pkPsYudgRn5yFocNHICMzCXGxHiqgnmRSjt1PogwAm032ZZ/L8JQvwnsKp8BtdjdGjRqNr379JmxhJ/jSTTdh1skzcPcv70Dp3oOoO1KOd959GxdfeiHmnH8eTj9rDgZRcXbs2IBWjrad9nicMfciKvnJmDhhFL2GTjRWliJYX45nn7gf558/mxZTJ1zhDhQTdLZUtOK0uZfizDlzcNFF5+Hmb99oHpKUHCjH+XMvxrnnnYd5l12NLncyVtPCkVtJ84f8erFr23Y0tgRwyRVX48yz5+Dyyy5H3+x+vBfD+saaegtEggIup52A0IndO9di/drl+PUvf4FZZ87BGWfMMpZdUXkVAl7GC/LwdmD9tl3G+rlg7lxcetnFOOfs2UiIccDX1oL3Vq/HuMkzcd4FF+Ds885Fn6xcrHh3NTq8IbgSkjFv7jwMHz+OuhtALq2xU886FykEV1dyIg5Xl6O6vsZMsguYYKeCsk4+WkpuOSa2ZgRsAdQ641GvOQQO9MOHjsDccy/E7DPPpNUZi3MvOAtnzDkdw4YPR3V1AzraO5gHOwpBs6h0Pw7XEMhY5pSTT8VFl16FL33lqyirbOPRhEsuu5JtNhvnn3c6gj66fjs2o7m1HcPGnICLeO+iiy7ACRNOQPGeUjTXN9PSoOtDCz/ATp6W1gdTT5yFzKw+yOfgt4bWjT6kI82SMxls8+JFWrfnnHEGzj77bJx53oXIGzIW23YdNMuRLJ1jnXne0hKipZNJUGYTUffkIsNJx9Pjha+1A+9tPYKgIxmXXnop9eNs3HT5xXj00cdxuIkuuiOOlrYPdRWlGE0wunTuaeib4kRinBv1rV60eulCqe01rUA962iqoXVYgGknnYQU8p6WnYMDRSXok90HwwcNwriCHLjTY6iTwKTpZ+K8c8+hZ5KABrbVqWecg8LRY5GZ04cuc4BlHjTyaW6zE1DK0dXZifbGcgzOdmPNuhVYu68E13/rqzj1zHNxwkkzcLD4IA4V78XG1e8iLzMNs0+dheuv/zL7xxx2N31KUs42vaiGJuxl2smnnIWz2K/mzbsIowYPRkygC+WHSrD74EFceMUVmEGdnXvhpaisIYjtPsi0TO0IwkldcrLvhiMJiNEDmVA74ux+Dnw0Z9j3u7psmDB+KvvJeThn7jnU37EYQ8Ng7ryzMPHEyVi7cwdqWrTkJRFnzzqFxkAMcvJzsae6DfVegYMRaPdv9BBFfz8Z+kiQM768qPsnhqannwI0bjnDzEdG1LHU8Oz0AZreba082gLokkMfzZ1Ap29qnnbeJfjrK2/hl7+/C/NOnoCWLQvw8F2/wfLtRbSMbChm481//W28tIiuTgM7mabbQl3Io2ucnJkLW0w2+tENcQUaUFt6EOuX02ymsEfRinDZQ4h3OFHX1ASf20Wly6XV5YKLlkhcQgwaG5toXTrRt29fw5cr1o2BQ0bgUHkFOuhGmLmlrg5UE3CzMzIJMlkG0FJoAWZm5MJuj+G1iw2uuRMvPLYQ3KEAy+ikhbAFiQldeG/VG8atX7ZpL2pa/fBSCOZhisdFxW1HaVmJ6XixMXHkwYlx48cyTyfqaSEdOXIEJQSTt99+F4sXv0MZehEM2ll/O12lNKTTzVG5Q4cOYEfKxgtvLsEtv/8TXap3EWythItWqJ5XQE/NNE9KAA7TzXO7BBW84aCLRXCxUTaxSSkElRx2MDeyc3OQRcVLoLsfZp3UkeU6y/V1upmWbVtXVW74zqCbQ+MaVAPQ+GKHrUNiTDwy0zIo0BjEkM+0Phm0EskPXbrJk04AjR9T//S0NLjccfDSvdWHdGLpx+dkpiCBrvYjry7BHfffj12bVtCF9CHeZoGDqlNTWUn5lqOkrB4L39qIRW+vQWVlNRpqahChfEMEyiDr62PdWFmCJ+vMUwfTW0/YaZWEPGgOxaCssQuexFQCK2XJumaNG0U9DaGiqoEDpxseAt3oEcNpQcdi6RvP43e/+F8spWtfSavXH9aDDWZM70Xzf/l5aYhLcuGRl1/CrY88jnc5WHrl9YSD8HvbYDdzv2HEudzIoGvtslO/PD6cdOKJtLpa8OdHn8Fdf30cG4qK0U69zEnLxlkTpuLdxauwqagaFbU1yE93o2jHUg6ydixbthYvzV9sXNrajk4CsAu3XHIqHv3dT/DwA/dizdpNBKlm+IQZHrYb9aCptQstXi8y+uWgk+H2OPafwcMRcerbuUVoLD+EbXTHX3lzMVas24D62lp0tLUh5COvUgLKVB8qkotu5iM5eoQDBFA7DRkeaVlpBG72JxoAsfHp6NO/gAZRHPutzzyp1tRPcgY9hLEz6AWtwu13/gpvvEHrub6WbqzsbDJFPYv+s3y/7n+m7T4Zkh59BHUXZH5YSTHV/VdBShzRhDOxrqWtHa/OfxOPP/4EXnv5BTbkYcqEMWU2B9voBragqtmvaV6MGzsJv/ndbfjNT75thuutxUfQ3BXgSNyMaoJbo5fgFJOMAXmaY3DCT4XxhyWUGPRJTUSfxCAOHz6Cl97ahPMvu469jpYlwTZIC8BJJUt2cPToamMb0eS1E1Bs8RQ6LdI4LQptUxVAz07P05GTkW6WHZg/sbTUaPnYuxrZybS8gBaFM8Z8NV6MhvzsoMwXbjtoYCLgj4E9GGanaoPP24CGliY0tvvQRLesf//B6NeHI7WbqKCJXfa6RLqhMezwTpOfHW2MqwleHxUoGPIZ66C2shze9naa/fEYMWIEeadBzwZ3cGRFuA0rV72Ltxa9geaWRvzoh9/Ht//nO8jNKqAyxrOzM1tNaJE6faw/gc88uKBc1EymvdQkdAGlSGYqgj8+3uDQRYCzZlR1BHkelKVO3hIpOzeV3saBiLoNscIxhWUGEMviDJBHPOhypsHHspLjnIzTRgO2kSDEW/5WdNDl9RGMIgTbEJkIdAWxe/sevDx/AYEuA//7vz/AFy66nP1T34klyzLSeHjo0kTojrZ1tKOurgWttMjSiJzjx42Ghx1ZH7O22xIIoC70H5BJvSuCt5PWHfm062ljKA4vL1iLZStXI85J8Am2cuCgLocdCAQpF6ZLj2H9COZaBLx85UrKdzFaOVj+7Affx9du+jqycgdQVA7z8W0z8lJo761eh/lvvIkkuvnf+NF3cPYlF8Eem2hkZqN+OJgvG9+0nx5WuLW8o7kJzz37CnbTWhs9fhK+95PvY8SU6WihpRNHUDhtSAoO79uJpRsPwJHSD1l985HiCcHeWAQ/vZbWplYECCiFo6Ygm5bjL378Xfz0e98yX0B7k0D15jvL0NTOAVv19nWwTbuo9+p/LUaeYacNXWzADn0Ckp6Lw9dJnWtAM/uml8A5cewYFND1tZuJZCerSfnQerOH6lgC83Ensv/oAUSQbRRCwK5HLxR0RJNSLnoLTjOQRjQQkGwM27W/Gg8++RQ6qAg3fOVLuOVr30D/pD5gFyWZ1Ob36CGK/n4yRMl/FBnt5UFNNb/Ww3SxZiUU8GniUFPDcXRpp2DSxMkcDfOR2yeRnUACbqLA67Bj6wa89OpC1New88kMZEf3JeYgqW8BBhYORAFN/0GDC3Ht1dfh0gsuxqC8foinFWKn0FxxHgIDdYvDVBwtsCH5mVi5eTvWlbVjyunnkzVaKexcPlsc+nOUjqspRVPRTtMYHR027N1dSzAO8byU5vsWWm5BtNW2o77kIAblZFnfBnXSPHHGYdiIwfA2lKL+yEG6Xn4Ulx5BcXklLZsQMujWlR06wMgRNLZGsK+kna4B+cnLR5/MPEyYchquufaLOHv2meiTkowkApo+1AwXZUG3J79vMnWvBfV1bWhrCOK9tdvgZydI6pOM4cMHYdKoEfjyNVfj0osuoiWZQUlTEdlhQrQ6AnJ5ack1N9ciu282vnr1hThtZD/sWrsVJYdYn854q7nM91TtHCkJom015sv2aOzEnh37QbwwVo6TZaq/amJagBJkpwjrcSeVWiOoPjIdZlhQnwKkhZadnAJbpw+VB0rYMajuHNB27diN5FQ7qmtLUVRchPYuBw6Ue9HU5Ef/zEyksaB1Sxeiqe4IB4ROVDfWIC0nDTFJ8QSkGPahBNTVtKOQneqKi2chmxbzlvUlqCSQ1dPS63JRyzgwJCQ7zfxrX+rTF6+7BBedfyby+7GT0FIMcWALBVwEX+shyfSpI3C4bD82bN0CL9suQnDZsq2Ig+8quIMsK6WF6liEiooKtEVceHH9blqe2SigYRcXoRXEgaGsohp9+w/H+dd+DSPHTMOeXSU4XFpDnaUs1DFD/KVVWNfgx8DBY8n7+cjPcmH7lrWookUe9sRw0BCQkNj5u6jrdg4SmrJBpwN1tW0446xzcOHcsxBub8C+PSXo8Gsg7sBJI2hNhhqwZMUmxGaPhC11EEYOGY2hibGYe+JEfPW6qzF+1AQOlFloDMTg9XXbMO6kU/G1G7+GU06eyUG2kXXwI6wn4WQzJcuN1MQQqg9sgt1PI6P6IDbsXI8OAnpKZjoGD+yPk+hNXH/t1Zh7+ulIT0xCIsvy0ivzs+8EqLsudwCtjXsRaK0F2kJYu2k3bQMfB0SCnfTEABoHL12zFUK0ePRJcNVdc2o1dRXkxY95F89D/1HjaZkWs29Ww051NiJiuk+bZM98OB1Tvhj3sBoO2TSmP4lsdBGD9HH05GrUWHYGjhj2CJuYFQxTUHY3Ozm1Y9CAAVi5dSXuvP0PSHJRSOxEyX1ycOKMUzBm3DgUZqfj6ccex95tBJGIDVkpEVx8yRzUE3xifO20JMgBOzwi8cjpN4jW0mr0GTAcsSlZLJAN60wlVwEM5gh3+alTsWLxs9iy5gV0BdMRG5eP88+ZjDNOn4l3ly3B+s37CHQhgmV/TNS6KHcsefWx09sxbOgozDqpAk//5TGOyG60NEXQ1tIJZ8SP2TMn44+3v4Cf/ex2dsIBCHljKIsYjJ0wBfO86bj9D3cwz74cpVpRMHwU0mnmBAJB8/1SmyuWFuw4LDr8Jv587585QnrQ2NzOzhqHzOw8zDnjdCx6fTlu+8VaWqBepCVl45ITT0dxWyPcNtq/BHl9f3TgoMF4e/MC/OGXP0cmRVvbkcIxiJ2qpZV6nU59Y0RnEpJSfOiXmYQ/P/goRvXLgJ/WTXpsK5JoWZsZL8rYIQuRKOdmB9a37m10xTWMOQjo5pd10yCWM3AEZp7YgqVvzceaxa/yfgdyB/TDyXNmo/XUk8zT6vlvLOFAYMfMQf1ROHQwHO+sI8g248/3PYhYewdiOaBNm3k2XX+6xQTiEI+8fvlYs3EZfnfbT5Ecm0uvNsYCoI4mDmaZ8HL0j6Obe9k11+O555/Hz39+K9psafCkFeCic8+AQ5a2efBFogU4dPhQnHaGH2+9swjvLlnEOtF1DNhw8imzcObp09HZTNe3eDfuvf8+Wu3pxoq+4as3UdeS4KHVG+vqROHY4XjjhcdRc+vv5OHjUIcdMaEI2umyhvvT6pf7z8Fw6MixeO/51/DbX95Kb6OdPDhQ0+hlnTvQJz0Jy9euxcg+caYMt5bBcGB1puRi2KgxeOSBe7AqNwFxvhq0twcIBHpYFKJrF4fBBVnYt7EaOflDYE8ahJkz+xJk23D/Hb9FUmoCQTMRU085j7rgxNrte7Hy3VVIscsdD2P0jJOQkZTAQczqnfHsCxMnjMPiFetwcOda6lwr2rxs45hEDCksxGknTsbC117Bu/NfRFckGQUjJiMtMQYeDnh+5uf2xGHI0EHYsfk9/OauO5CZmI6mLg2Q9GCo154wvR72Orm1etDoprXrjGi6hIMYXXA33duhBdlITXLil7+7E3kpTtQ0pMPWXANfczU5TDdaxgwMvxqcmZhH9PqToY9eDHzMnQg65TLUNyEtPYM+eJzx8MSW4mk9HKtrruXSiE/zo8lrzWPRyiqrbqI7dhj+9iZjJWTl9UduZgqSOHpoEVX54WqUVdUSsBzo1y8N+f2z0dwRRCVHv4KcHMRTHjYXXayWGlQ0eeFzxNNVS0C8O0yLoYP8AX1z+5hRbO+ud/HkCw9i+Nh5GD/hYgzPJyD5G3Dw0CFUNrYhOZH59+tPxUk28w56vcdFkDOMd/iwv2Q/Kuvr0N4UwLpVW3HBhedhzIQR2H5gO5q9TJ+UjvTkLFqbIaTE0z1zx2Hjtt1m0jc9OckskUmhnOQG2QgaQXsMAjQZG2rqUFG6z1iAFZXN2EQF+tVvf2weGpQdLkNVRblp4n45g9G3oB8a2GnK6w5j7OCBtFgC7LRhFFdUMZ8KxHvcSErvh05aMxl0uzNSqVzs2DZ98Z5nR6rqUXnkEN06BxIycugy2jCkIB8VxQeRSvBI5tHU0kyrtAlD+g+gu9uBmuoWtlcMsvpQGdmQTrm7RkWcOLD3IDtkDQcNNwb0y0E6rQF/Z4CyOoJGH5U+LgZT+9Iq8QRw9x8eQ2VMPuYQXOLpZmdn5hDU+tOF8mPPwV0YVUhX3BtBaVkx6lvq2bnSkZWajUMVh1E4eijiEhKpSwJhWkLkoZLgd7CohHnHEQAGoG9mButPhYjqKN2nYKiZFogDZUcaWO8Kql3AzK3m98sjgOlD1WHW1YeSI3XmwYi8h4LcDHbIAMoqa+GOS0ZifDxBhdYG3TgbUS6WfMUmpCIlLhY5aYnkSA865KZ5sH3PQXR0NiA2NoK01HR0ELDyBoxAO3W27tBeDMhOQnuQhkF8BtITCALOLtQ1d2F/RYOx6POyUqHF7CmpqcjNYN50WSuqWtDc5TSDQVI8AdblRsgfxrbtW83UQ2JyOnLzCpBAMKquq0fp/hJ6OCHqcQoGDRtMXQ5x0KY4NFdOAPHzXml5Leob6+GmHsTHuGjdxaMP9aXL20l5V6C+uRUJcan0wEYbh0b1U08OBTVV4kd5eTFqymoR60xEZl4WOkNdHESz0UpZZhB4k+Kc6PR3obahEVnUMyf7dn1zA5paG42MqysrUHG4CMnxsUyXC3nUfZlPWqqmbbrB4jgy83Ld5/8q/QMgR+J1iI3ioHLJx+cg+j6oCeTkvIoxHdGk5rrHhSaGNQLLFlSw5rTscsWoNOZL6cyQnoTJS6DJU8qcQKF1ZuzgTg2vAn/DCxWOwGHXI3Pmp2cHxuIJtfBeIzbu2UFL4QjOmH01Rg1KIpIxgskwYpTLLl+NCcyCShbmiL5yYbUxiYCyrxTPPfUCTj/tFEw9eRrHe95mcW4KwENzXZ1fc2amjgQzMx8i0iS1EW0UJNx46q8v4nD5fpx5zilITe+PP9z+AOaePQdnnTmToB8gEHJkZFSNgjaOiFE52syTX3ZiAolTDxZ4QxPmWrmuOTM9rVQzhtkIIVnQjOBkuJOjUIAjsubBJCEzPyq2JEC5qLRQBK5awGtzhpie5WsOk6SqdBsEFg9qESMTnjHAbhb/qr7MmXL0MUt9BT8xQpAMd+L3/3cf6uMH4Cc/vAFJSqdMSHoiajxqDSqUuxaVh1hQjBpO+alQzXuRryDz0ytIKs+kV7mGB+qDnpDQi+hJgYjWhgkaWW/KQ+njzZsvlAEtD5tTlimpu17KWG2nVlS2GoxCmq9jvmEDEla4ypVqhMgrc2ZygZyL6VyMqhh02wTGtK4MSX80JWPukQzvDOS1FqmzVqZtoresnnCUD4Uqnp0WlaZcNGWjhbhy/xTLHOpwmgMjqGtslv5pdQs7kxGf9NLwIbEyqjxYE4cidmjg1aS0Ogz1QPPkpgfpqayL4cpQiUh6qKNlz3Zai5KBODXhPukdBw5VubuaIfYvzcMZvRF7mrglM0Fa5BH2bXU3tUYo2A4nrWEtLvsw6s7iE6EPL+WDiLHNq1zqHJSYkSVJk9eap9P0oxizmkxHt0ii3LKyWsohURgMoODNRDQr3BNq1VjKW8kCTGPTpBkFpn4gHVQHFC96z1DOs8rRU6UOU04TbzRj4/rduOfuxbR+UtGvDwFO91RbaYDNTSG7YGdD2wlUtiCbmflHWJY0IWgneJrK2RCfFIP8oX2RlJXCDkDLhuFaxOgRMyav7hFHf6Qc7Lxm1b/prORVZWqjMtb6wpNPQALT3v6Hu/CN79yCaafOxGwCnOYL7QRxdlEzR6eV62ZFPZXUKIyYEc+0Rizp2nnuMTJTp9Z8oebSmMooshl0GEtPghUakc+kAAKSOktA4czXTq3V+5GyWMxkvFUTQ8rHpNEPGySsgx1ODaeuZh5w0L00deapMMGjTk0+EXJj1JgJmET30akkytowxNvsPIQGuNQ72MGkT+bFc3OonrQeVLGQ31gl4sgMQLytfGxkTGvVzBswisZD4dInF9tDUwN21kUdUAojXVOL2dhJzampmBRIvwqI/lU+0mJaj6yMOqOaTW2u/i79irB+5h1YdlgNugI4sWr4snLgOSvMKAbgOBAZndO1+JHkqBCaaxVJ5kqnvxy/DRBFSZaYgNNBOQnc9CRcctLDFJtkx7qpvR1kUv1I7Snc03xYWAwboUkwzJ2nepZgPG1hmPRI7a0BiszJeDN9VShm9EgDVsjwpFfF1FaSTZS9MAcMPT0345v0gv1H0z1aWkKxWFVVLjxRHTRwmA0BGCpr1OmMZ78WAv976B+y5DSSSZJ6EVivTklZxLpUUbaZzgR1OjSnYxErav6SqAARVryzK0B/X+vtFCgmeP99CUoxeMFORFmagSVA81iTyG7Z0tHR0tIT01gaafwcscNspFjQkgg2ks++BA21AjufBC8FYFXNCCjSj1BEYCVGVC459XF0CxIlYu2xZIPh0hD+0PBjBgRF1jsU8pIXy+JR/hEqkmnEqGXRXYTpeUovZglk9DVZFnmKieXoaUXTvC3HOAJ9xMxriwcXTR0z0lMMRkEY6hTQm+UL+rXKUbiOkJYr8MxaPKkeJemzs1OwprNLoQ1KMDbr6qeCyYqKOgQSg5Q/HKacBQiqp24YQGB4968AVZ3GcM58BDAyjuk1G4tRVrbN5zVzmWZukFEF8mJZ2KD+b9qcv3qS6YhlobyWxWXXoWLY4NY7m4wkS8OlFfiGG9PRzBwQLRHNHobNy/S8y3TSOpsBGMlGtpZeDpKLKqu2OwflT4vZMnkEY1a+H0iKS33RgCN9Z84m0C1EMe0qK4o/qhuzEfiKQuTZYcCDpMWSqrfKoyD0T5tU2MmweZmeeQtI9J61MNGwp3TqJ7yn3iSZy6LTa2HOHpar7mtLJ+lciIx41Ag9yWRGWbE8MxjLotUgLv5laBCAbU4OnBKBdF9LQ7S5BRtK5fqp8C6mkWz15pJROx5GhVi2GlI8GbeYeWrXFreL1hnrLw9Bc/VadqQjunuKg2HRpSE+Wo0eM1//waRYVsx/nf4xd1WlKqxH6VKlLp8PcZ4YBqsylhVil2C741oKIlnQGpN8eK7RK0IBOSS9aDnRfPX+E0cuE8wwjdwCMus+8+VhdEqHMrdawmQc4YgiKyDiTOAtmxnBIoS7EM1NpzpFNF2Uep4zvRRSzojKkGQ8LChA89pOUAvQP9cckTXvxcgaUXvSMaJkwdQnSci4KuJRCkZLJyiQ4qUZOE1cEeMJ3A0qsI4SksIYIxK0AExgoPct1WQGeLoV5oPo6JyGeFI++lWI5Kdf5SkGj7aTFU8FW/eNySxeunOyflSulU4KrxQaC2TdypK38lMddIOH0vAwRZg6kUyb6YShbDdzT5kpYnd8kaWaOiyyOgjBlYNtQLyxhwrE2RVNXDOAdUcPU5Z+ykhQ7mS4pS/8I955oTvdTHwgmfjKTPpg4ku7zSMb656KUnsaZi2GjzYHw01661SGgIqTleeUbCQ0hkZoWnVnZejYtWG6E83EoqPyUDzCN+MrSMDplIsR5aU7itW+OhhgwsQEDRPKWgAnkHYpXEk1WnWLxE/LzEXXXuvcDHXndywpT7mhMmIkGRJHS1WPMEfrz0OA45BJgIsm19KhnnRsfY8l3fnwu/8Yfci7qx9C0VK7f6WrZswP+LF523a0dHqRlpJsTFxZd3JjLbn5eLAbmFFJjUOI4z1jGSgv/pgOzlGgywvs2lOBkpJDyM/vw9uWiPQubJjgoLFcSQwLElp0iJHm0RJpbGrF/DeXouTQYcTGxeC9dWuQkZWFeBmBNtlPKsw0idV4omiGJiurs3L8gY/XRYfLUFS0D6kJiUigi6i0AfIi0NESDCsTJRZFf7v54u221g488+wzKCgciiAVZ9f+YqxcsQbpKWlITrSWfcjkNympIQf2FaOqqs48yndpcJYryn96Srhu/XbKx4vkpDjjLUbIa8RYdeyALE+SsV6rs+rAEYy37IZfrXnSKnUjaobL1lEHluVmahBlvbs+4kglK74JsuDM5Ke1YArXHJbmruQSqruaRaM6Y2ZWfkzDuCJzqbryx2Acz4McHCsqylFeXo6E+Hhj3ZsYTKw4fv5q7Z7FmtqEqkYZHTxci607diA3J4tWujTC0kTVypRLGUhvxJNmnMzDAlk1hnd6CAwVMxpwrbwly+5qkoylYu7o0NwtrU7e1cAtmbApTFzpk/FjTD5WPU0ehmdFsuTV2NqKzdu3wx0XhyQaAzR7yK6LHoPVZnbNkZk6sD1YBuFGmZi8u0viX6tNLK54xcFH48L2HftQeqgEuX0yaCkpPlOorfkr2Sm24puEpNrGZrzw2gK8vnAh1q9Zg3Wr1qHmcDXSsnLgYH9xOSidSCeroPrQ0GA6DWIao01FmZE4NTU0cmZfoOfR2NSOZ198GQvfWIitmzbSMAggJ7cv+zsHBvJxPMCJ/l0gZ7XMP0FiWVM9cq3dsbHom5OPuOQ+BDi5AdqlAGhVRIlErxpJ/gxUA4aM28WL7jakrcSTevYPHQ6s29uKVZt2sJZ0PW1avCsD2jSVOYysZWJrkpv5azGrJq9DwTZs27YWdXWVaKxvwf/e8nNs3FzCPNMpUDVNLRM3H5WefpnWGB6ShEBLT4O1EJiXWly78+AhLFmzEV2t7QygsjPMy7h+k4dqKWaOJ4bxfpBHdVsH7nzsL6huD6DN76JSHjDFeDyxVsey+alE7VR4JuMAkJTRB2kZyWbOw8qKfNuD5kX4Vas3Yv/+IopO8tKuEbRYTRyrKoYlkrF69YhES3l4pdiCd8sdJumVNPOUUHLtrkU0o+5DYVoQLMCy8mI7RCgDlmI6oYnWaUCku2lJiitw1RXHcy0WVVA0W5LhjFUTUOjBSVpKinn53XK3jkZUPHGosswiZcYXJHfx9u7SaixZvg4dLVqoypgRLWW25K1DIP8+H+ZJs/j2UkdoAfK+2s7i1yJe9ihZpIFCh3VuLFqjb3S/GKIcxV9EZ2w/66oHdWcUCdlpFfnhiXMimx3e5UpkfAJskPKk5SRerYjSOeZFsBOZOutEjdINDpb+dyfoDtMMyPbt+7F06Ur4fMyToGuzdZFv6ZTFlbwZa8hzmCnCQ5W1WPj2EuT27Yvp0yZj4oQJKD1chdfeeBft7NBykk1705oTiQ+rdixTMiDpr2otDYx0Uc6M+vNbf4PaLj9mnjYb44eNxMvPPo/ly5aRVcqM/Gq50v8v6u5JH0DdDSW5Wo1tkc5VaTVEDM8dmvDwtyAvLweJGYlm8l9PnSQc2ilMoFEzxeSntW769SrTMC0QZcQwI1h1vBBBixy1huLgNRogQUuRBC7MlWkVagBGkzw2D/mRo2SyhcMTh9NPOxVfu+nLuP6aK/Dy04/hJz/4OmQwBW16vyiZh8coF/XP1CVaN5spS6DAAJs4DyAu7KWiBtDk88DrZB26J6/VHZVMVhBL5YUYY40NkFqjsZRMtyO0ULVRaCjiQRyzve6yubjiolORlp6ANvIgC8tBAJEqalBIy0qiAqaxELoTmhI2blwHQgEf2oOEFGasV2Y0byNXzMWOIQmrTl08ZK3JVjGDiGIwqu6LU8nPslIkMclNi2i73W+mtTqDLCL9U/1UNeYTkSXEHOxJ5NfKy+RP3uw8XEzpNGov8CSg2LzM0U6QYvsorinPyk8S0q9RPBYal5yMjPx+cGp+RkLjTZUu/VJc8e6KtMIR1jpA65XCrhAFGQjC3VlPA41xI4nGWnCLVcbvIK9+M9gyP631i6jtNYcqiVllGxDgEaKAQmw7BzN2qgmZgR7+yIoMqj0FSkaTNTdoTdIrp1hqsQDeWPxaHmSxbvLXoQubgzy57UjwRDCYXklCHOWhZolJNm9a6FRlGzPJTOyJv4jRL+Ulq1OH4umprpPtoFfvfNR98a4B10Fw9HubEQgxLJJC+TjJEQGd0iNUGTlGudKcmJ7AxyckY/LECZh58gycduZpmD57Dorprbj9HMhUmEMP6tRBBGMG8lie8lBYuPtBhdrHRZYdqD9YhH3bNuH6667D9BOn4bQ55+G8eZfgL48/YeZq1c6mj5qBwzpUQ4urYw9R9PeTog+fk1NoOExloaskZSSzdg4dK7fvwi/vvR8dtdVIpsXzhXkn4/y5c3DHE+8hbehZGD1pCH78vRtxYq4btdvW4HBXCsbMuQapwRrsX/kSYgryce33fwpHnQ/vPPESbvnpd5FckIJFLz+AFYtfx9d+8SqeefcIvFUb8YMbZuK9jevx6NMvoKWyFPFs1RPOvAjzvvhNdLb68di9D5ktnNThT5oyGjfecCWaW1rw0MOP4sCOrWYZRUb/4fjmT36L7JxszH9tEV6d/zRaWquQk9OfYPhNTB49AikJ7LahBlbYi6pmN+59dhG2vfsE0mzVQOZ4OPrOwA033ABXsAm/uuVaoOUIYlKH49TzvoRz58xAbrrccIIkra72ThveXrqWLupTqKkpxwmTJuLVV17Hgre3oryiBRtfvx1XnzUCP350Ncae/z3cfMFoxAUP4M13tmDJnibkZTjg8ldh7mXfwKEqH578/bfRWrwGrr5TURXJJ0jOxpnTCvD6awvpGrwDf1cTsvuk46yrvo2pc2YjnRoS568hSCajoqwZ8xe8giVL30J7SxdmTDsZt3zrJrS21uGxlxbhzRVrEestxvknD8NlN/0UZR0peOKxB+BvrcGRikYcKa/Dz755Hdv3VLyz4RB+/5cFaK/Zj6RANb5709cw+/Sz8es77kDe8MG44pIzEPbW4a/PPmfWhXnSRuDpF97F5MGp2LrsJYRiMjHulAtQU1eNfTu3YEifLPzxtl9iU3kp1uzbixvOOA8P/uhW9B0xCG9sWYN6XwDDRo7Az268HAPSnVjw3PN46IlX4E05AcGkYRgSW4l7f3gJDvlTcPdLa7Fv+cvICFZj4twv46yvfAvZ7KcpHGA0i6ZOs3LFDvz18T/hUNl+pKQn48IrrjYvyifFxxK0BNZsu0NVuP0vL2LR5t3UqTqMH56LH/3wN7TAMvDKc8/h7QUvwkfZjSOP3/j6VYhJ9ODhBRuxZFsNfE0tOGXcMBTtX4vf/faHyMsZhLqKJjxw/28wanQ+9pdUYd6lNyKxzxA8/9pizH/lSfjaK3lvKG655TsEnlQseHUh5nNgTuAgNmjSybjg+m9g6OC+SGYFXBo8Qh3Ye6gatz34DIq37EYeB/WCvCSkZMbhuq//Cm+v2os3nr8TbbVbYMsswBf/91c4ccwo9I11mukBPSjSxgZ3/+kB3PTFyzFh5CAO4G6s3bIX+1YvwA8o6zK/G7c/OR97V76FDA6+KcOm4sKbf4KRA3Kw/q3X8MS9v+NY3olAfF9c8ZXv4qKTJ6Ny22rc/L0f4Ff3PYL+g0ZywIozr1DrYZamCv10z/VapYWgFsBpwkMrI/4dpJI/nMiPxRJRV+u42urx+ovP4MxTZ+KlJ5/Ckw89hiGDBqODprLmSjoDTr35gcP1rZg4pBCPP/Gg2bzwxfe2YfLMmXj22QeQmejChvUbzAJHPUXUXJKwO8TRN2jTwwZrHkWWQXlpMfbs2ofvf++neOaJR3HLzV/Agb2rsHHrMjz31ltIGTIRz7z2DF576XnMOHEqyssrsHnLTpwx+xw8/8zTuPuPv0ZCTATvEjzfWbkTi9YU49vf/xXeYtoz516Ap+YvQlUD7SexICIoLlj8Dkqrm3DvA4/ikfvuR35uNlpZ76aOFvzx3vswa/ZszH/7Hfz8ttuwv6IaK9ZvQmenxjpaMrYOlBYXYfPm/bjxKzdjwWuvMH0WXOpsHCg0LxnjoutCi/fEaSfQdd1ltbsvhEOlJezUg9kBkyRts6XVU8+8iNNnzcLzC+fj5ptuhJvjkYdj89aNK80WQY8+9TzuufcujB8/gO79alSwH+ihHZwBdBHUlm4qRVuXHfffeTsWL3wZg3MzcbikDIuXb0It7/+J9Vn4yjMcsIrx7NN/RaM3hLo2H8ZPPgEvPPsMfvnTH2PZkuWorWrEgkXv4PQ5Z+D1V17AUw/di2y6mXpS7KTF5KYVoqfgDtpuNr194pC14cR6dijtyvLC849h0vRx2F9dgmtvvBYvv/gUKssO4r2V78BHdy7iiaEnRDDyRrB3x148/MjDuOPOXxGAAjiwfTW2LVqIratW4Pknn8BTf3kMo4YMY6d30YIJ4/mXXkdMSioWvvUqnnriXnQ21uPNl1cba1MLvNUyO8qAO+9/GjOmz8A781/GD7/+FWxYt55ubwWtY/kRbISudqxfswxO8vOn3/0B777xBuawrQ8dqcSaTTtxmG39i19Sd5ZQDrNOxr333o26mhpUU38mn3wWnnjqflx/1eXISoiguniz6d3vbS8xi2ZHDchDAgHDFWzEms0bsWJPCe548BG8xQHo8gsuQXOtF4veXI5V73FwfPx+vPzXe5CTl4X5K9ejvsOyrRFoBupLsGzxIowYMZGAuABPPPRntLG+nW1dWL9lFxav2ohv/+9P8PaSlfjuN27BwhcXoHjfQfN0U0tu1Nv1JLexuQOrV2/A66+/hbcXvopVi1/GsAGZcCQ6sHzVavQbMApPv/g6fv7r38CdFId1W9ejpLIK8xctwl+feBwvP/MU5p59Ltau346allYUjh+BE0+ciLt/fRseefB+PPbUU1i7cQvaWtsMjDk1L0edthzu7uNDbKtPgz4a5NQxCUIuMqRXfpxU3smF/bD/nbfw7vOv4tDBWvQfOBaJqX3plbo5WoT17jr6pqdizLAhQFISCvpl46RpYzBq1GB6i0nISktFxOtFnNbZaG0aTfWQGoGHJrH1xNFNpXMT6NKS3RiUPwCVhxtx372PY9Pm7TTRA6g6vAdddJGHjR9llmrFJ9gwa9ZMjB4zFP1pKbZ3+vDKa28aS6ehvsFsilhyaD9GjB2KUSPykcAOeOK0mWikAu0/dARhTVZEXGhrCaCivAxTxxQit08B3GkTMHrCVPTLdaKlbCt8FSVIjs/GkiU7sXFfCdrDTVTySvPk1rirgXY0VNXA40jGyKETaCGm4Zy55yExM4WmveanbGiPxKPFnmneNewo24ZSmvolJdW02qoxaEAfgh4BPxxv9qkLtNdj/AmTaJJkYMTQ4ThhYAGSCCT9clOQSbm+vmI5Hn76aRQdKmWH9mtLNbosmk9pRQc7+IGaNiRlDURGRn+2tAOXf/la5PYfhIq6TgwZNhSDCzLgjo/HZRffgKXLNqCVctObGmPGjiMYO1DYvx+q6lrhtSWyHTJQtPZ5vPn8I6iuasCQISPN2hGBVAfdcUGclpTa5V7R7Qo4wsihFTJw5FDEUA8GjCjAsMmDkJyTivjUdAw0exMegYs65aKOOR0EOrsH89jpU5JTkZWRhgzqSld7AMvfXYdJk09FXO5AZKa5ceq0CYhLykVFWyJKyqtw6owRsMcSDPrlY8zwIajeuhYhAkcM5a1JiKKaEB3pIC6+dJ55pWn8kKnU01TsOaC3SzRdQNeW+pdVkI32hsPYwIFz0+J30S+7Pwb064fqI/sRCbXTCizCu2vXoJz8VhMcDxw5Yt6YGVbYH8n0ZvvTfBzJdtm/ZQtKDjdg6a4aOJPzqPMZSKA8PJF2HKEe6vWzvrkJSIhNxOxpZ+DEUROwZ9UGnHvaDGT2z4U9KwXDRo9EKXWivbUdtgDblG5pW00ZHF4/Jg0Yg3Qn3c7kdJx+6nkUfSaqauswcEgWCgYPYAfKxKShU1EQx/CDZegKcOARwBEuwy6PWZcadiXAE8P+mZyAkSlO7Nm9FZVtHcjJ74ss9qk331qEJ99YhkN1NXSBmxHnDmAirUIZEU89/zotwv1m04QmLYtKzcY3f/xzXHbFFSwjwMFiCR5/5H4ej8LnJW4IS8x8tvWwp+cDn38HfTjIkQsZGSIxZWbmYxOI4PMwc9p0uiYtWPHOy2abl4NFFezotE/DDjNPHu+hextjhnazhiqeQtML49oZQU9jNS+s9TM+ApafRziil6nZUbT0g7+aWA+HnKinS3vwQCV27ypCXp98TJ04BSmJqQgEwrSe2hEXR9uBeWl+xeaiQnd1Mf5B7D+wH11dbZg2dRzyC/pR7HaO+l1UNLt5G1PPyBJjY+iihBDSOiLZ8qxsKMQRh5ZJVmaG1QpE3LhEWVYEwDYvozlRV12DQ0VFaKTblZOdjkICT4zWF2nuQa59sIu5q2tpFoJATqXS872Ig+Mx5dhhS0C7JxsjBuVhTIYfG9evw6LtdQjTxctJ9yDOGWJ+sebtjpiYGMRqN4tQEB4PrSVawZ2Ub3FZo9lFt7K2ih1sIMYNGYKkuHiN9xyXun0EVkiv4dk5cgckII0eDj0Q4uELIiWelpgamNZYYmIi6psazUDj1JZJznhTfw8j2Ol3dBK4LrhwLk6bMhohWrWLXp+P5557Gt76Kso2AndcIjPSvoFxTKddRFysr8O8jB/RekdKPEwZOeI4fNHkEyT6I3Rh3HpiSYte817qhQS5uHi929rtzhCkvH4vWrztSCaYSICSYUxcLF1IG3WkC/p4kcBVdoJkrs009WaD3qPVkz3N09l9WmNG/TAPvOgpJKTAwXbR5/0kKjOfzvYZOnYUzjpvNhIS7Thcfhi/+u2dtIqWorGlFjW1R3DocAmK6F3Ut9JTmXYSB4Q85qO1k8xAk18eH8aNm4zSyiCt2DJUt7VhzITxZhmFnhJo89mWZgKGJ5YcU2KUK1VLk1toam5CiraAEqAFfUiMi2M7MG9VWEzarK3p9SqWtrcyq5dYv6TEdEkK3i56P9r4wE20pe4kUo5aeO0LqI9xAGBZRkLMLj4jHVNnTMf5F8/DKefPwaXnnA5/J70QuusH9hej5MA+WocNGD1qEAoHFMDOftFK62/n7n2oqq5AenoiB8lCuuuJtA3caAv4OJjm4tyLL8eNN30FP//RtzDv7Fl45YUX0dlOkGaZWkCsX+swz2bJzb+HPhTkyIv1xNEc/GPTdGM8YnP64+zrvopLrr0AV18+jf55PUr04Y6gm6KOM2trtQ2LDr1ypcfEWtxpFmpqIpMZR9gZ/OyMzQQ9fWPAwXtyM0LslHpALYsuiGQqFfNwpOLceefhissv4siajfoGLztLXwqKjltLo7Ec9TqP9sZvrGlBI928qSdOxjXXXIAJ4/oTBDtZlgcelhmqbYE2klWdWpuqkBkbQZ+UOLNLBFEEyTGaSI3BjuJKWicNjFeKxvoaNLQkIxBfCKTn45RTpuG6c6fistkzMCJ/GBI9cdrGzMrUmYC49HgEXY3wBuoI1j7y24yOrjAtAY6jrDPtFnY2lsOR8Zwpg/Da/Dfw2trDyBs6ERlJDPc1U6m6kJKZRfkQFOvIh7+DlmszDnobcSTgwvrttKQKJ+LaSy7ClWfNQTqVPdyuTSjlNJMZWxzi2amzY4PwtVXDoSdE6hS0tj3s9Sl0Zzsa9MRR5MT+oq0YNDSPYOUyL8nbA6wLm8tGC8DOESnsjCAlux/mXnI9rv/il3HFRWejprIEZZVllJcdTdoCKGg3mx5U1jTAp0Ww5CPMfByy0FgGhwsOlol0nTQDJpViGVIGktb/aTGpeQLHMIWGCQrarcYV70B6QTKKireSIVqrRMjyhjaCWx0yXOVIJNi1tSextCRWvh1lNfVoSsiFP8l6IySBrAwkKAZb2tBMK8hPi6qmjda3vRN9MhPM+BahbLS20x2fjKmzZ+GcG67BqRdfiIkzT8a6bdtg44A4ctw4zDv/Qlwxbx4uPf1UpBNQ3ARlF0FF/cThYmM5OjFw3Eko7czE8wsWI9bRhJGF2XATpDRdb3enICEuHY1VdZQxKyld5J0uN7Wdg972knI2BwcKyqyR7mEq08VykNGcltrJkZBKyzARR5qr0Kn0rF9NbTkHiRbKzkEAdaJLoyCd9LqOGjTZfUjgQGyAmKHayt4mRGff9MTw16aHRDQqEhKQykHP2dyJLes0tTQbV10+F+dOGwynNk/1pWHd+mKk5vTD+RecifPOPAFpqbHwc2DSu9ovPf0Y5s+fLxuHg1EaRg4bjBMmjUcnATmoFf0sXE/StU5W8/z6Vfv+u0h1/7tkHoZQTdvp+v341t9g+YaNsHP0tjljEZeQTGRPpZIFEMNOrZEzxJGki2gtd5e9G0lUoLA24iPYBO0UDkeGRDaW0xXE3n27sX9/CVavWEdDr8vsuxUiMGkZgI0jWWVtBTsurzmy3ff0a3hvSzFHxjTkJ2dg55K34Gumi9jahQceeASvv/iCsbBa21rN3MOyFWvx/POvseF9OHH8EBzYshjLFr9JN6kNr7/0ErLjbBg6IJd1I9O06GwxcTTJR2DT6rexb/8u8nUA8994C82NzRhN9y43OwtP/vVJgmwiGmrrsWvLJvLq42gmLdfTtwT07ZtD97cOq1a9bbbOvudP96KTI3+M0DjspWz8VAwpWADDR/XDgeI9dFcPY9TQ0UiNTUYMh2hNgudnpyKXgLn4rcVAYxfepEWxYu1yaKmM3usoocy0fOJwWQ0WvLkWe7bvg53WqiwE7dSiVxNH9U+gq78dW3ZsQU2nHz/8/R/w2DNPYvjQXGxavxzr15einG7VHY/Npyt3FTJiaLNqN1jlwTbUbJXAp51uzG23/Q5L2UYRdzxa1b6UWWJqAgYWFODA7gNmR5UNO/dgw9btJr5dFpZW2Mt0YAePJbjFhlxw8ZpaQVDhH8pM4K/pEL033May5dZ7CIB6YU+bnMKdhFkXXYVFqzehaNN2lNNVXvjmfDQ2VSM5JQYnTBiFF/76hHmBvGxnGdZu3IqTZk4BjR3zBFKFjaQHNyA3Eb/4v9+ior4Vi1euRIAW4qThg80zU0Gy5u/0/YrHn3mKFlgzXLRCtXnBwLw+mD5uOOVYgr3UBzfdvFVL1mLfrgN0nQkgWohLS0ZPmOXypObmw5PRF+vXrcTYQSlIpfXdEXShKUCLOByLE0aPQM225SjesgPtBKtHHr0Ljzz5J8yaNR2vPP8yVq3YjCMHa7Fl0w6M6U9XN4FWn4vA50xBSu5w4l8M2+0dyqEeRSXV+PPDD7KfRDCBlazct5G6uxJdtLrmv7UADQTzYcMHmA1IQ/RytD4v2NkCV7ANgY5GBL0daGvtxJKdB+klZGDC8DGIo0V7gH3SToBdvX4jVi1fi8byBiSxHVYvf4864UR1fRNWrnoP+/fuZf2DmDx8OO741S+xYtladHTQrW4PYe36rbiU7mtmboYZbKRHcig0s6NfwcO/iz50MbDFgybL9ZeKyU7pons4mCh975/vwX13PYbXX1+PGafNwulnnoyysirkZOYgKysVR8pKcfLkUUhJjYO3OQCv14YJIwbRinBgb1kD4tPzcPq0sUiPCeDXf7wTq7fsxVmnn468zEwMHzcDTRyNPPZmnHvmOBQf2Y9f/uF3eOTpZzHmpNkYM/k0lpOH6+bNQcnm1fjGt7/Pe69j+IB++O6NV5mdNR584hk8cO+jqK/14uZv/sgI+YxTRuGEiTn4y1NP4fd/fBiD+xfgZz/8DkGaIwyHc+38K0tnCEfUVFcXfvWbP+KNFbtROHI8Jo0dhGm0dC48eRqWvbMat93+MJas24TTzpyJk087kV6DpoblNLg4IsbziMVLL72Ou+/9C845Zw462upwztnnkg+6X631GDNsIGXj1oa1aPNHUFgwEPNmn4IkujG1lXUExBhMHjcSp54wBm+9vRi//9MjaPSGcdLkEzCZ8j9v9kwsWbYYf7znbmzdWYwpp8xF30HDMHL4IGQlx8Ipy9njQOEgWjR0n39/5z24+5Fn0WfgWHznW9/A8CG58HEgufvPd+KpFxbilp+ok81GV30FfORv0MABtNxS4W1pQdHhSpx86hyMGj4E9919O/5415/w3tY9uPqL12HUpLEYN2YiVi5fg7v+fAca2HGmTp+OQYOGUK6p8BF0Z04ci0R2mMbGFnZWF0YOGcBB04cDe/YgP68AmVl5BGsb2yPf7EgybNQQ5OZlc8wJoKqqFhmZ/TFyzEyMHH8yvv6/P8dLb76L0WNGoX+fFEyeNAUTT5yBzs5GfO/7P8CydbvxP9/8LubMGMrBkh0rEqS1RWs0th0nTpuMXTtL8Mff32OWgN10w40YnN+Pyi1vg1hKPO2Xk4mNmzbht7/9LR596BGk0sL5+be+iiEcCLXr9D0PPo672KZt3gh++5v/oxVIV7rVh5yMfijITOK1VqU5zQeT4hw+XHjWKcjp05dAEkB9Zxj9Bg/F+HHDMDrNju//4Kv44wN3IDUjCTd+8VqC1HhMGzkBP/u/3+CFRcswbcYsXDJ3LlJirOkd81KoJ4FtPBz7d27BnbffjrffXYYrrr0GMUkJOHP2NEwcnoXnnngCd931uNks4bbbfoT+NEDctPLMwnt2BG9HK5YuWoD5zz+Pp596AQ8/8zLabG588drrkZmfj/GjRuK++/+EPz/6GJoIylNPmoPctAxcfNYs+FsbcevPfo73Nu7AoFHTkNWnH8YO7ItxHGhOnzwJP/3RD/Dgo3/F488vRL8Bg3DDDdfD4XSZjUg3bN6IYSOHE+D0to6FLcd/QvHToo98rcvc0UHGtMBQL2j4ODo7bLE86IJoCDRRtM4rAUEOndpbUJZ0vG5qsa4tkdpGDZJLR3fVxwiasUqk1Wej26Q1aVrv7ZJJrrVyrkQzZ6OR0YYmhCgRvz2eo63cHo4C/EMvkxYLTzpq8do7m1ATTsScqaNQ0IfjsramMU9traUDIhoecDmbOYw0cUTsS0vSbdxcLT2Rf63XUDQBLQ/bLhOevkQoksLGt9GikB2iVV+8qcrRyvDq1KC/1odpw1CtGLJmhhDysh4ctehOBwma8oTDoXY4HQnmVUa9OqkpPO2BF0QLZUc3P0S3SQ0uZTZMky/lI+12Jpo3FhRsLCw1SEDroDSpTp5ZXw6mppNKJKqXrEWt8rc79IIa3UZ7Am1haxJeS+wS2C5aP69vVkRsMehkMYks3uFv44gbht0TT36s0sSKFkXrDQvJK8JwtY+eg9tYLzjYvryv5cNaAe+nq6SnyFrj10kAT6KV6xRjajgChWqtuKqR09SIQyjL17ScsfqMXFVbnpPUMsYYFDFYD1eYjVnzZ+aKqZf6MpXfnmT0LpbFaE2ZnxZWKJbyp4y19QFrSHeeQMT8tauz+ba12pF5MUt42DCRQDv5II8yN+zUEbaflm2Yhbr0QEK0PL2MrOlm866tvZWJPUaO2uTB5mbGlKdqZ3I17j5rz/wibmo09d8dbmMlmnFg7z5sLq3A+DFjMaxwmMmHfjEtSvLHU4lbLEK7a5v3lskGT8WjwygR5W5J1pDd9DXyGU7jFRlk/JB2ZWGGZrsBrelgmGQlqcpHl2500d039eeh7fw1Ly4Bdzg0l2xWGZp1ge8XpF9mL1lL/Gbtq9pAusqGCjO2n/fFq/YH0KYAev9Xe9zpk5pWKpoE7J96N/bfQX8H5I7eEvsWg5KV3hXUxK65JClcrWDJwHiqPJP4jC0Y0as+mmsRigsqqeCaHzDarXkqWkGmLKW2M45cMjWOprV1rTkNHWpMCk+/4Q40lO3H0wtX4DDb94arrsPwftq7nzfVDZnGLMplIr0QHQlreYNW+LN7RtziiuVr4W60VqyPSUue9PRErrUJ1cEzw54qpscWJKUj/2ZhIzPRP71HaeqkyIZnZajaqlwrJ0WXZSx3XO/JahJWk+zWoukoqaZWPlrsbL1ork5tpNsdrly0lNcwbf5abwlGSenlcrIlDM+Ka8nO2ptDraEwLRA1estwAZBy1wDBfxKOubbIGAP8Ne2ga8lJE1IqmRWzXkRXiUrHEhhZ7fV+LgIvowcicdAdkwHdRZlQK4Li66+lL0dJV4pgMWOdS5ZWh7ee3PGMSSQBeSCmG+sJqjZ0JCmFKVesk6xr/jVtp2tzl2nFgHK1aix9UlyRJWvqmfgwUtX10fTv+0BUQPUd7c0XogXrJCD4WhqwaMka89GaM86Yg3GjRzMHDVgCOoICj26pmvyMcMQKT6VLVjm6K36i0hYv0ljmIV1SoCGmMujIU9NhVReR8rRyM3LjYcpTo/GWdE65KVy6YbLTbZ5EcxDpvsnbhLK+3Xkqvubdou9aWxT9tchYl/8G+tgg113NblI4G05KYJrDoghHKiuWKkrbR53eOmMKiVCdVR1bDW+5eFaoUQNzWNeK36MBewrJFCCBdqGzrRG7i47Ak5iD/P4DEKMBi1H0rqziae2dtiES+MgiNNvkMG/xZF6wZxkWvxapPtGS1PGiDdddKImB7wMN45o41j0TQpS0Ooi5Gw3tPlQ7q4OrhgozZZjoR9Ummr5nPtEQ68oihUXD9a9nbKuMnnFVolU+7Q9zZZFiqWy1h8LVORhmElqyt86ssk1z9yAzr2buKR/e7EYq6y/DNdFsZNqd1zEZMNwqiBQFPpEVR9xYAj56x6JuWRlQs+pxNFfFjXLLg+lV9tEI0bYTqT7RG9avVZ/oFVN264NSWS2mq+gRLScKE5b8LHnqjkCV2qZTDirayitMkFPHbvN14MihOhpNbhQMGIj4BFrbjCd2TI1Mxvpj5WXqoCDza51bkXQ/yq3FoRUmHbdgy5DkwAJsR62So9koH1OeVR/R+7cYYv2zokTviI9oHIWrxChFuVBu2khBW6t9GMQclf+nS/8AyInEVDTMUgIrzCJZNtErdSlZ/aqsGt5qKAmHZyZfgZhAUHeshtQRjW8pTVSYOrN+rb/81/0KlRaRapraTGhSwnLHtH23ZVkwJ4KSQE7LEvTIPdqprX29ejQ66RiQ05/362+Vbl1HD8blTzSGohxNb9UjGu8oWXet2hxVlKNqcrR8ixQjWneLovePhh2bInpH8j9KysM6LDCL3lPaaLjCeqax+DsmpOcF6W9Arkds08ZmQDh69/gMotabRVEeLPpwkOu+Npay1X7H5mrFsMKOnlnUszuKnWPb3wCNObPK6KkPomOvjBYyTHkqPKqv0TK6QU6XzNRhp66G6b6ySLltLnsCxcMcTRy2ioPayHtHuVWePfntWQ+d674Oka6j3EV5Ut2668f81Zc/GORESnm0dtFbqp/1ezwd1V3d63nf4sQ6rA1y/+NA7lg6nsme8Y0KvD9S/y39q2tlZNIrd/M+q5SRo0ZI64l4raY0CiigozWh+S6zjMXyRw19UPl/I/Tj2e8pD0bVsoOe9O9qtI9D4ux49v8R+qDW+RvxfIR+KKqxHvRrQo6TD08/ij/T5T4wf4UxMQHKyv2j6KNKOI4f0vH1+ej2FJDo6ObnfYpe08njqaZLRHIilH2ELr42jnRZ+4xbxq7A7QOL6gly/ygpw+5M/y7I/S2pFjr+WVL2AjnnZx3kBAw9yaxt+phkQO4jxGR1on++kprCFHdGVVQMAU3/oqO7SN1A+0bouac26ulZ3scqX0N7Tzquk37a9BFN83fJpPwXlEgp/9HUPfk1aY9n/x+SnxJ/VP0/vi5+XPrH9F1xdYjHnpWJXlsgFxWJqq5naxpnjRiivx9Jx/LzjxEzP9ZUPpb+Ttliu5v1f4pM9qz8Z2Hg/+Q15d9EEt2xzAuyNLZrPs+a7I2G99L/B/pXeshH0qeW8T9BUV6ikNDzmtRT9Y5Xw2jUv0sfO2IvfQj9G0Du+Eb6ZBpN06p66mNyiyqQnvgacIs+aepJ0XJ7leY/io63Zv9jmq97kJVuvg9wGnxJx4R9FPXU2Q86Pog+LPy/lz5VkLPa0XIKj7br33USPxYdzU/PkqIULcEqxVyxza3faLn/QvlWxt0ZfvYpymZPtv/eIYr+/iv0gZ7S8QV9HDre3fkMuD9HSd1H/Oj3+CNKAh0L8PRAwJprNJcfgz4o357HB1EP+URP9Rs9RD2ifBj1TPJhx38KfeSc3H8CiXkdR5v86Fzg8U9P/1H6KMH8JzXy/y/6V+X32Zf/x+AwGkWXwjr99mBet6OXOu95fXz2H4zvx6T4x6ln8uPnoHs8qPtbOjoh9EGklJ+MOfOv0388yB2rCZ+cUJXrRwnGasRe+jD6V+X3uZF/tBJi9jiQO75+Pa9NlKgQuuN/4kbs3zBwXMBHFaiVCx8BczIwPisg96+ZOp8JigrysyHQXuql/x7q2feih+iz1Rc/ByAn+mwJtZd66ROjz7xqH8/gZ4/hz4G7+ulQ1FP4MFJT/qdB6/FN/a8thv1o+lfl96+m/8xQtBJi9h90V//R+v29rvw37Xl89OML/KjsjLv64RHkqn7u3VVV/29F8FFS+zQoysW/u9z/FPrgFvr/I7F/ttR/B8f/RBmfJjufOP1zzFovgkXTRs//ubw+TfpU3dUPrvK/Swj/TDnHpjk+B11bYdGz42NE6cPCP4o+IL+/V0SPex8WrSdZShmN+/dTKMbxsY4J6z45Pk6Ujon7kfS3saI2QDSPnsff0geH/rP00bn1vHtszH+Vi0+2FqKeUuxJH16HT4I++Rz/Nfr03NVotpSz9QzGMl4tsR9rtyumdXaUtAzkaFjPeEpr7Wpi7Upm3Y0uHFEpPZFbYVZpSqEVdbprXv8mqYzombWMWKQw67BytijKzVFejlJPXkVWruLI8KKL9yNY93rmEi0peuNoqOj9hN3hR+noHVL05ocEqm5aIWD2dtEuMHRdIjZrCyeLeFMv1JsFbt2hPQVpKJqffqMFHVOgob+NZYX0TBUNi2qFrqL3rc9X68zaieYoKYa11sySrJ7gdQe/H83Kt0cAKRqms6Py7xnDiqOjZ6UltWOF8EGxovnpROKzuOuOpR+RIliK+H7Bx10yqkKsBGYXke6Mu39I1tnR66OkMO37Z/YeMVuFWavyzD8xpW2wTCKLs2h6nYuOz8/QMTetHnY0nqVT1tnRO9GWtHrhB+b6b6djW/AToKhcrLqqkmH4CS6CF21WaMK1+WJAG/yxWXmtewYTdcFDX9zWO6dB8/Vzi7SLiD5+ozcZIqEOZqNPsljvNih9FxtWn/rVp1qsvKxDG1XqtItlWh+Y0U1TDPPXzhBM3b1bRjSvAP8GzOaC1k4nRw/Wh+m07ZiSHG1Cgm4k2jGtUM1X6J9Jp8JMuLX9jDa5tMiKFSDDIYVZUUxotPObAFMrfS5Yd1Sa/kXg6+ZbH0iJaGdQ3SRpeymLLF4UrMPHP2Zehq2unS+isQxpz31F0tvi0goeYZ945399kUn3zL5BTB9ii4YkH5HKZVrJkaQYIpWsbPQb7W4+fTXKnItva8ca7RIjeUS3/PcGAmwlL7x+fYOCccWzOSQTpREvamnrw8c9ydowQXkr525iPcPBAPz+LqsKPCTqY9LyQjI7RiLRupKkdqZ6DFKo2isohhmul9D1wr0hRlcKaZr5PLb0V9uQqEBGMTuSKF+e6Mvypv4KCioj1U1hiixd6s6T0VV/o9T60r7hwPpRu3efGs02+9ApUwme/UGbAaj+KkSbJbyflhS9UikqzdxWCOMqW30vxJDyI0n3vCzfG+ykPMSH1Rra7dqwpl9eW/+UmWr22aBP3JJTZkYupvWAw2WleGfdMnS0dWBA3wLMmHkyUpOTKMQgXA6H2Q5J2yRpiyQpskjXEY481jhOhaEilZQcxHtr12DSiTNQUDgM2pFXkGa39gg27SoY8FDYdn1Rg3lo6yW9FK1vkUZ3LbEzstm5pLsHmkbmtcrXbq/aKVaNpz1stUmlvmDu55U2ArB2orWUQrsIm2+cChq1UytjaI888cIohh/r2+P6igDzpBY57IxrAIgxbBqpqQ42JxXU7N1qRmExyS4EP+9rf183/3qksDzTHmqmk4daUNkCrN1WijOmT0ZN8X5Tz4GFQ7WhLcE7hBg7pccOpW3ztBuM8o4QSW0O7elLrrvronDt7Gdx3U265HFo905s3LodQ0eNhZ+dMCExHsOGDORNDRfkxO5i7QLWtxwMeOpFO2uLIUtKBEKz75sLQQrWyjbMjqjNI53s12SODSFwsgX9cLtdaPZ2Yu/hMowePtLI3KWOqgFEctNXkshxgPlpcHBQyqZNuhUgyHraKS/LJicfIVNrlqFrEvkTV7ryqOUD+uI/87LHmKiCJhcB0bSd023iKgerLUnCFMmTSiRLRTind/ibmypwcM9+jB87EWEP9dJ82cjaZSSGhRnJMp4AUYOMvvZv5GOsK8WjdcW8LJ2UFuszfrwwjUQOtIUJLwVESmniiXihuohPOwFImrp9+wHKIQ4TRw/hfco/oh2JeSgh0ymp6sTijOWnbURNdryv6qlEkVrSgKuI98ygyna2sw1kZeqWspT8dSWJyKZROrPprO5Kxz8DFBXXJ0YWipsTHKnpxF+ffQUVhw4jK8WOte+9jKdffBJlLbS6qOTWVkwhNpCaKiq2bkO3e1NLsagPFr8x/0ksXfwCnp//Jqr9LgrVjhgqv52joAZHjT6xRjWYTtnwRyqsvf4dkU6jchp/zG1lq+JYrMK8ahyG26m8TnU4w4O+H2pDK/OsYRx9X1+NKNiSDWP6m7abVghHbGWn8mR/dPAwBchiZRkKC3CIDUiNbIxla+Y9hipDlhVVVBlj4t1m9kqztisPGXCjYhmAE0lxm1FWXokX39xMC1W8E+rjYuFj3xKYq1OIHziYN+tgFm0SGG12lRk2/EUVUodqrDpJFlJ+8yfQhgWvPoX66gosWLAIf7j7PlS1dqLDpzoQtEyXkghZqLa+Np/7Yy1k1RjTp4lhtYzRyrpxSOpuFm33o+3cfRyINBjpc4kByt3t0fb0RXj7zQV4dsEWtDGuZG0GkIj4JtchSUTgo/bR3jK6z8O0hf5L+1RzxgtLTkpLXoycTfdT81tnxipiHH1Rjuklew1uBqdtrfret2lPIw/zl/kqG1oxtkAXrVLrfpCjS7zdh+Q4httbqG+qrR2sDVT7dhVo9j5kApsfQXsEfiGjUC3AOgXaaWGT626dDLEyITNgiigB6YnZUp9lMY7RXfKqeumD0e08l5zMF/aDpdi2eQ3e3XqYesAyzOCjj33zFi8VT0ajTZYkfz2sj77GBm1jz2vpheJYdT6W9M3UOA6QAjjV+31dMWRxe5QkKB2fDfrQD9n8a0TFZR237NyP8tJ9uPn6L+CEE8YhPsaFxcs2oWDoZPTLTiCgCP3ZBXlIaa25A4qM4Cez3W5A0IHikgr87AffxJevuxRbDjSjYMwZyE5mIwXq0djSRJCLR1tdC+xdHAU7fPB3dqK1y4+mllbEyXRr70Qj+5ysITfRTrn621rQWteIpi432iO01Nhqbl8rgq2tqGe6jo52tNH6bOXoG3Q5jUXR1d6C+sZOdHaGkcAO4gi3MqMwOtttaOn0oqG1Be1+N60CJ2IJLg52hsbGNlQ3hRiuLbpZS3YuJy2IoDeMlhYfujicattrffBLroY+GxfubENrmw/1zV3wsjfpm612arfVTVkmj6KyTizbUYOLTp+EHLsX8cmJCLhjEGSZTbXlaGjuRJcGA18XYqiSdmbe3NSK5jYCFXuGz6cO7TSf9PQF9SlHPxoaKHVvO0GTEMN7eUNHY8iwIcjPzcDoSdORP2QsMuLJi6+D8byoaWhBF+Usa9pB1NfGjxZJwuqgXrS3+FHBQc1PXmy05vR53nZ1FAKmvcuHupYutBCp0zWUeIvwxAsrcKA9CzNPGg9bez3bs519nG1AebmccWinPJrbfWhlvgmxHspLxfnY4Wh1U3ba5j5EGch9b6xtZt142xlDcGB9JV9G1zcgLFAOo4l1qGcb+cO06Aje+gANuhrR3NCBlg7K0++nVczBlPIPdhCkaGm2t7ehriNgPtKc6KIF5ehAWrwLDg9BwBGLDla9qZX1atcnFDlMOVzwsA1D5E+gom/N2rUVe5sNDS0B1ok+AE1wqpnBY1VJHwUwH0mgfoSoJ/Ut1LMw07BebofAmSBaX4cmL/ki78nhKtapCtu3lqPGno8TxhfA095BXjpRTX1uavKRx3gzHmgQ0O7ZZicpfTmuI0Q9C6GmmYCrb0KwLZ0clUzcbn7Usp2Ue31jM5pb2f4RDzz6yA5vWDPjjMMfZWlIF93h/7/pU3vwIJQPcJTzBNs5wlGp2BD79pTg4Wfn45obb8bIQRlwsg3VkHLG5H4qkZgJM0zOmjpKIJyKR/6yENtXP4tf/+RLuOvJjeg/8QrMPSsfiY5SnHfu+RgzagaqDrZgTOEkNmgtmn0NqKvaCx87yWlnXoq6ZjuKt+7GiIL+uP57X0XywHS88+rzePflV3CkPoiQJwvXXHoRJo0YiIcfuQd79+9iI8fiUFk1htPs/8HPvsvGb8djjz5Kq7QTye4++PaN5+PEk4Zg4bt78Pb6w2hv2oPqIxsIP1m49Es/xpXnnIrynWvw0P33oqKmgfqchEGjp+CWm76AxrJdeHvpMuzcX4K+uf3w/e/+L/pkZwpXCEodWLZkMZ5/4q9oamxFtS0es668Hl+8+AL08xD8bdWUWRuWbajDnS9swKPfvwE7X7gLnTEJmHrhFdi0YQn+dPsvKblMJKQVol+cHV+9+gI4B43CTx98EvXbVyO1vQY5Q07EZV/7EcaNyMS+zW/hjj8+hPY2O7LTbbjiC+dg0EkX4Y21xXjrid8hpvkAGoN5uODan+OG86bBVrMJf33qYSzduBkVwTSceO51+Nr1lyI/hZ1X1oOIPai1pAS33n0/Nh4sRXqSC5fMOwdTz7ke7+2qwj0/+wrOOaE/lm+qRnzmKPz2xonwHVqAL921ErtsU/Drmy/BUOcRLN+4D/vqwpg09URcc+UleOGh27BlxeuwxwzEibOuwWUXn4W8vh66cvr4EN3BgBdFe3bjrgcfx/7yBlo/cbjsii/g0gvOQYqLw1ygkVrfheagG2/tLMETf7obtoYa9OmXj7kXXYgZY4Zj5+rlePShx+jixSA5fyAu+eJXMKpwJO757e2IT/Jg/ba1aCZATz1pGm64+AwkcJD4yxNP4fqvfxexqf3xwKNPYct7b9Ibpi2XPRpX/M9tmDExDxQtXPqYEsF/2/YW/PmxpSg6uBcpCSFccem5OO+c0xCbEMv+IgESbP1t2LS9HD+69W4CdyfbxoUvXH4eTj/tJGzYsg3/9+s70GVLRnafPHznkrGYfnIBHv7rBpTYxuDrXz4PW5avxHNPPsq+UEEHIojzz5qL626+ATHJ+rZuHTsb2yqUg9eX7sPLz96Fltod6MM+dMn1/4spEwdbHwsyrn6Eg2MLXpv/Kp577DEk6APWyf1w3lU34tzZU80X973eLsTGcjAR6+/D4meDPiVLToguw1tf5BLc0XJod+DNJdvQzFHltJOnIDnBYybb9XEZG0e3SFhPymjZsYH1zSe7lIFuamtdEHc+9BIuvPAsjB09CHv216Cqqg0jRubB5WnDXx55CAPz8nHf3Q8jLjYNy9euxrkXno1ffO+bsLU148lX3sY1//MT3HzdNdiw6BUEXBw52XqrV63C12/6Oi7/wlXmy06btm7G6WediS+wI11zzRWYMnkmXTMH5kyfhJG5iZj/2guYceos/Or/bsf0CTPw0jMPIZajeIctA4vXHMC3vvYF/OBbV8OTmImNu+iepyVj7fK3cP7Zs/CNr3wJQ0ZOwYp1+5GkL5vTgnjjnSX49g++j6u/cDUyUuLNwKejsqIMy95+E1+/5jJ86dorEJs9CE+8uYZKNx79UjQLJUvOj9KKdmzYX4lLp49F667VcNDfbgsEsGjBy7jt5z/H1df/D1o7HSjbuxVTxxTirQ27EZc/DHf/4geYPXEI9h6uQ7O+zxoTxh9+8yP88Lvfxy3f+wGmjx2AjtYqtEaS8OLiDfju167Cl688GwnpQ7HwnR0YW5iHJfP/wrGpGb/6/W0467Kbyd92tDY3Y/LIAnp/cnhoSdH3ufVXDyExvQ/+fO89GDOkP9auXgFbUiEBJgPPPfp7/PoH1+CLN3wfrR1J8NXvxJwLpqLOn4aEgdPxvS9djNqdy1HDfG744R9w0uyxeGX+MtQf2o57f/N9zJl3JZ55YzUtpnqMHJZPKyjEsoNo4MD01MPPYsjo8fj+bb/CyMknmU9U5uf1w+C8LHZaOlvhNhworcWtD76AH3znW/j5t7+M0cMH0FJpxoYNe7By1R7c/ouf4AtfughJMbFYvHobcvsMxub1O3CwrBR/+PMfcc0XrsCR/fvRWHGI7ZeIHfRaJk05Gdv3lqGqrhU//+Y1uPLsE7DxUD220kKePGk4kgRydGlRtx9/fXUlbDmT8Is/3ISp007FH//4SxQO6ov+HIjD5qFHGCVllfj+rb/HLT/+BX74vS9jAuWLrgZU0Dv60/0P41s/uBXf+973kJORgK2rF2JgWgL2VHYinJiHwYWDsfSdxTjt1NPwtRu/iqGs/9uvvYyRE8cgpU+65YWwfxbvr8Ojb63nIHAafvrjm+B2J+HRZ9+kBT+KOqyv5IkXoLi0BM8++wweu+8+nHvGHFS3h7C3ogmjRoygheiAhy6BMd7Uh01P/uzQ+9blp0E2M1PqQBvdxUXrNmBzcQlOO+M086V4c1/TTfxnD9GE58jPPmk9hLDRpNHkg4+NsH0D3c5yujghvL1pO5o7m1BevB615cV0AZIR60zBBedeZPIKODupJFkYRkVxuNIwfugMTBp3IoYNHwxPghuJqcnopC+R4E5E4eBJ2FfSSsvyVWzcvxMdwTZ0tDWYQaijthXPv/IG0vIH4ay581BfXY0jh2ro0gWxbNUGAkQxbB4PiosPw+dtxaTxhRhSOIQ1SkJWn/6Uqp5sdWDsqELzJOqvzz6NRYveJNA3IRiUawWMHD0aebl5lsvAOmtuTerkos8yvLCQeR/E4395GOsotwDdiVAgQqtWkWjhhpkHT0P0/YIhF8+ZAWW4a8sWDB04Frl5ExAfl4Hx4ybTxRyCcKwbw/ulY3x6DN5+YyHuYZ0P1NWiqbMB63ftQAatvIFjTiDfTqQPHokpp5+DIWlJmDNmAKpLSvH4029izeZdaGxvRHlTI0rpCo+dfjpH8wwkJMfTspiDlSvWULa0PjSHZmvHkZoKvL1uEwYMHkarZg3qypvR3uhE0f5q8mvHsGEjMXH8RKQnJyA5zklXn4MaQTpC185lpjFY1bhEDBpcgPxMO5z00HZtWI2YmGRsO1iHjXv3wkXLsaRqH1pYDztlrk7bWFmHYKsNpxJw0uNcGE7gGDxgEC3czd0PgClwyuvwtl2YmNsfY3hPT18HDRmAk0+YRL69GHTCPCTljwLiPOY7sQn2MI6UlHEgScZ5F16K7NxspHiScOLQKWiusj5uLr4DQT9S09OQ068f3l2zFg8/9zwOV1egvaPBtJdLPT/SjvaaIpQeXE9Fb8SanUewo+oAEnIyaZ1tpb4EjdvfGbRj18FK9O2TjRnj+pupisIRYzF1xsnwlh2mblN+U2bQ+rehsCAdiXFuHKmoN25niDrnYmUnDM5DE9v5+dfewopNW+nlNHPg9jEvWRLMMWAjUO9EQ30x3d5OrFu/G+0UYwu9oSNHitEVkDclsiORfeakcdM5COzC4y8txJZ9xeyLemJtAdrfvD3T/ftZoE8P5FRLNryfvfed97Zg+YYtmHziFEydOhHuWOPtm6c5fq8XO9atw1/+8gTuf+gprFm3mYEUrp46NfuMhZXbN4WjYy32FVdSIdsQZ6sl0O1DR6f2j9c3S4lwtG6CtC4c3RO/+lC0250Gj9vDUZ4djy6zlw2v74Z2tnvN1+/LDu5Gn/wCDGOHiI3xIJVOXri1DX998Q10RRy44KK5iGVH8XZ1oJMNerisCtu370IRASgnNxejRo015nycu7up7XEc+cIEKj9dvybs2rUbG9avQdDfiuknTUZaRppxq2SppiTEId7pMg3QRUE4qHMhBNDGzr5r2zbs2bUdOXRhT5w2FUnJaZSHm1Yx/QIn60q/1uHQ5LSelOqppZ39NoLaxjq61XIXXZpPh9vpQYD1re3qRFHJPuxatwKNVWUYO36sAb9QbCwa29qREKcva3argh5J+wNobWrBlu07sG/PXqTShZoyZQISUhOo+HpEEYHHo6cctNpYThItUS/L0HIQM3Nvd8BL96jD60BFRTV279iMQwcPoE9GDgYOKuRAFkFCShqrlIBgQADexU4SYdEEt0gIMR4n+SZkaa4yhu1IXdJzhJbmdtQ3dmDvwTLs2rsb8fECywGIidPXQVk2ee/sZBtSknGsm4ZSjm3Iy8qETU8GxZ9fDy8itDxbaYnHINbthl0fByUK2TjC6qNHHg/z0+jDusTGxhHrYsy8moM6kRifSB4pdc2v6qGJn7w7w+jkIBNmfQ5XVlOHV6GJLvCYEcMwcigHWM0ts42NVUQw6OxoYbpOVLIttm3fiAMHdqNg0AAehdA3SsWf222jLjQgOZU6pe5imsfyitpampCeEkeeNLcWQGJMHBJ42Knf0oYI6xjydWEbdbykaD/5t2McLThPUiKbhjqjNtZBi7GhqQmNrS3YSRd/y7YtKC0txcQJE5CTnol4ysBNfrTKoLqiHHt3b8dButeZmakopKUYSytXS2k0xlrLd6yHaDp09VkhI7pPhyhs+ulLl6/FG2+txoyTZtLMPYmNIcSXgIPmoZyx3BITKLhMFGT3QVpiInsnAc4egyq6KqVNHbjowgtx8bwLccWFl+PLX7gMU0cXoOxwKepaAvDrY74aRewRxBBwXJrQ0EeBSWGzLoSjmjMIB++7Y2LgDQSxv7gI6fF+3PyFU4076fBk0b0KIsHbgvfoxu4sr8W8iy9EId1UhyuMeFob+QP74bzzzsB1V1+BKy+8iNZBAd1cHy2LGOZNsNKsNpXd6fQbIC45dBj+UAzOPftsfPVLl6GgIJcdIQx/OEDlpOUa8um5KajLvGYH17qwQCdKDu43nfbaK67EnPPPR3pqCpq62hE0T0wZWR+4DsrSsbNcazJdTxTVtTMH9GOHUCduRoSWX3tbG13BDtS1tWJr8SFMP+c8XHX5hThn6mgag36O3k4kxRK4jhTB3kn3Rdqgz8tHfHhn43Z0pvTH+ZdfimuumI3UuBB87NCxlKnHx05aX8b4XnZ2P62fYmT3TaMsxBtV3GtDUlwfdpIknHPW2bjquktx6RXnYMTIfvAon7DXfBRbA5lDX8Umwsvq10MEtz0ELwcFCSdIQI9QtjS0oO++JKT1w6jRY3HlRefhhisux8wJJ5CvJMS4BNLxzCcJ7qQYBDwdqG2vN51NazP301ot6JvF6rFumsynpRTbpw8t0hbKVtYnhchBw+aOQ5KHbdOyj4XTrSRkNLb70UbrKJE66uIA1VhZKUOdmBVCTXsN4tKIQI52RAiU9fSEd+4rwih6DtdfNpc6PwnxWpLi13DEaGo/JFKfcpGWOQCzTjsf119yAb526VUo7JuPpNRU0x/8lL8z0oq02A6UVR1CLcvjEMK0HFRcBJ3MDBypLUGcvYn5htHaypr5IkiM1QOvIGKoD6WHK1HXGcKll1yIL5w/C/1zUuB02QnQbGQ99JCXFU+9Tc1C/4Hj2b/mkeezcen558DpiEecI4Z9ifolyzLYhUXvzseAkbn40vUX4LKzpyMr3kkeyRP5baeQQ4wbIGjq49ham6rzzwp9qiC3d99uLFiwEHPnno85s6YhQdildtZXujlKyHyP4Ug5dMwonHXmHFx4ziyMGCq3L8KOYMM7m3eilZ1m2LAhyKEVlJ2agdysDAzM74NKjizV9Xp6RmDR18FZEzWIllPY9bl35u3j8B8MdTFci1f9FLwecah9wzhQVEKPmFYaLcTlLzyD8v17sHHrFjz3yguYc9YsDKWpby3MpAs3aBycCalY894KxMXFor61E68ueMO4JtYCZTassRD0dSLZVQFaEh6O1FVWYyel4r33VmPJ4jfMvI8/QGWlxWLTpCQPPW3zOOmSuVy0ItzYs3+flc7uwV8ee5Sj63401FUhRiO6hnV7LMVHhQ0ImNjd3C5EPImYdsrZWL5mK/bsKUJ9ewcWvruYFlwRgSyO6RtQV9+KuPgk8/X2pYsWo6W6BtPHjUHzkTKsWLbSPGjbvWM/7vvDnailXCppBSR6YmkZ2PDyyy9h755N5DOMkSNH4KXXFqOrsgMNdOUXPHU/5s4+CfG0ngQ04KDRh27WjdfNxa0/+w6lEUHRkSps3LnbfMg9JZYDHNsmutpEoOowX4RPp9VDeTs6ZXij0691bZIJoYHpLj1zBjasWImKsib42oJ49ZnnWf0IBzECmx7nhxzIG1iA2DQ3nn/xKdTVtmPdivVorj2CqZPHUy8ESMyMA+PIsSNRtGMt1i9fxuJdtLgP4nd/ehIJSW4sXvAgivZtoQI5sGTdRg6iPgwcQJAMt+LeP/walRwkyyi75bt2Im9YIVJTklifIC16J7xtDag6UgJnTDwO7TmERQvfRvXBYoNPaj6EYxHbdywK+g/GdgJHPOtZXVbJdn4Eef2yzYAp61zLiKaeMAYNRw5j2cJFBBQ7Nm/bh7v+9BhBLh8bduzGU088Aa83jA3bS1DbEkRuQSHtA7ZXMEjAc6Otie5rRyeBzYGn6Tpv3bUN9fV11vInAjpCdkyZfhJS2Ba7129ETHI2Nm/ejorDxXSTM6jOclephxxQY2kFrt+2nYZCPBprG7HsrUUo3bcTvs5mWt4u9hWtA6UlLBvDHOronw36FEEuzM62E7t3b8N3vv11jB07AZNPmIxzzz0De7bTJaVSCHBCWlHJE4cmLgVUPLT63NvRjk5aImNGDkdWeqrJ0awsp4k8aMhw9M3L4/0mjBg+hGYz3Qvmo5EwlXGVh1bHxsbHYkBBgRk/lX9uXi6yaGqfO+cMFI47DSeceSO+d/O3cM2MQpwwYSiW7CvG1v178ZPvfAnTTxiFsePG4oJrvoZdFQFc8+VbUHygBBOnTseVN92Mq77yNQwcNxEJHOGzstLNQlbNI7rZ4fJy8jCTbvn0KWPwze/+EJMmzqbrsBu33vJ14z656R6m03IVoOnbn0GtW1JTELBnnjYLM04+Fdd++WuYe/IsTDnhBJxzyjSE2hskUks5ac3F0WoqzKMbq+UNyax31gDkZA7Drbc9gi/+z68x7cyLUFJXjalTJmNYbh7++KOf4a5bb2MbnIb7n3kDl9AaHZ4egwGUx5PPvYIHn34ZmYOn46af/Q7jZs3DT7/9VZyR58GVZ8/DlNlfwvBxJ3IQmgkO8Jj7xZsw4tQrMPvyH+HiuVfhlzdeiwtmTDNLvzRPGAnJ7IrgxptOx7SpQ3HKaefgx7fdh3Ez5mL40FzkEOSG9M0w1pyNFm1migvxaXnosOfjonMvxsHlC/Dw7X9g54xnm9LVtAWQ7g7iwlMKcdHs2bj+Kz/DOfOuxknTp2H27NNomDk4uJgRAMnpGbj5f76FeLcdF501E089fBd+d9vPUDigLz00Ct+ZQmVI4iA2AGufvRfzH34QJ06ajZ/9330YMu5UXHH9l/GbO3+FG265BWOmz8Hu4oP42o2XcXCl1WnrxFdvuArfvPHLuPyq65BZOAYnnn4B0lL7IT8jHdkxAXzjS5ejuvIIxs08G797ajEuveYmjBmQS5DrMM6mz5aAcMoQXHflxRjorsSl556EK798LX5F8OzfL8voKodtxo1FYlou3n3zLSx76EHMHDMD3/v5/cgfcTJOO/tKttk7ePKZdzBh2mlYuGwZzr/my4grnAhXSjZd3CRMGEYrfOZEfOd/bsFJc65AwcgTMO/Si2gQqNeRnIkIujOQ0ycFP77qdKxe/DZGTZqLp15cgB99/yYkJWsw1eRLxFjUN3/rR3R10zFp6nn4+i2/wZhxk82CYycBMkIDIhzWh7PJOStAKZvfzwp9aktIaLCy0/rg42gRZs+QpaI3CzxmYaSAjW6KHi4YCnWb0bbux+cCNM3L0UXTwWvGNgoQ8bdw1PQj6EqA3xHL8wBihWqaHzLr7Ag2mrdSMaSArCZaGA6ObnaVQZNd06U++gVyl5NU/VAtwz1odyXJ6TFWhtZQadEqHTQzfaH3FtR4mvHS+BbHZDazzDee8aw3FrRwU6vGOjlyxvLMY9aNaQ6EnZl5yIBVRD+HdQ/rb4/wgiIQCzYqSIR1kUVgfDNFpjUXccabBaUMgdv4bbwf8aMzHGfeOKDdxDSsI12/Q0UV2HewHIXDx8FP623LXlrCxVtwzZypiM8dYPiQISixG1my/nb5iLSk9lf7sGDFNgwdkIGpI/sgk66PAVVbsuFZM3EitYNWuWvxrHCFrLEDk1daDhGtBaSZ4Kd1FeuRbFpoVXhYh0wjty6mU8FKQ6myg8j69dBqtdZkaWG/ZT0o8xg5l7TM+YfkCGqxMO/Zs4zM5NapiWUw6Em+qmHm1dSoumPMFTJudEJvSVh1Fv8m/yD50xIKSTAkSxjoYIQE3Y40sk21EtJN18/LXDp404lf/OSPGD5yMC656mIEadFowS+HGVqTbfzDcjUf6tQ7IKwzvQQfB+VYVkplGu+N+at24swdZp6BZmpiEhpohWu5RrJ5c0aWnCX6ULiTHLAOPiaklSj+pOpKr0OrdYK8rVQe6k2MvZOSiCfHDsRR7+1648GeauY3lZ8mNTzkRtpqvWAXQUyAcpDwwonG5e5kRBctVy1Hd7AvSZqdbGzN5als8/4OA6VHXiaT/G0RejDUX7njdHAZQQdvfEZI3HxKpA6cQGslju1jvRRsoTubXBplmkkk8VMkBIoowKk5ZLZLZJqz1aEpBJHNTRjypLCDeQzoeDTRrTwEbFQsKbeBbSNnujIerd2JUM9ZHkFH7wyq5Djej1dSMeVJR8hJl4OJwgZs2ZQ2tzG5Y3lbgKaOrfdObXKP2Mh6RUoAFux2V81jfwKNmy5mgh56aF5QjJBxU21GM6yS3OTLSIT/DZnK2enG8pfpDfP61TwRr2IZ7FYcY62wjjbNmdD64ZWmk+S+mjlObwW2r1mAFW89h7defBZVBw/REp6I2JQ+pu5hp599PshRl+rNOhirOWxDF8HvcHkZ6qtLUVt5mEa2ymL5bk3AszOwqpra16tQ0VYT+BgjXL1AE/cc0Gxu3uepW0vpwU6DOMo9hrUJmLayU0bk3kyL+f3M1E43k+2h2QV7tIHVjnTbVXFl42APNq9uqU3sgnSSRK4m132e6DUu6Y9pWZmaZkRhHIKeJsRNGzF/oylR5dBgqEfyishk7KOIVTQeEchz0CDkh0Pv6GqiyUXLKrsvErJzEdH0AC3QZFbevBNKQESEFjYHXTji2EzWA6VoXU0REglBz0EZaKrYIDRddJsngZKitHSfYKu4wmmlc9k010iuPZbU45kuaoipT9BYNdeqhcOMEHGmfQREdsmQvIhcysucCextBnBd1HO1jAYT8y4gmVKesQxySPf14I+Dtf7F0eKOYbh0wOgsz8Wu2kcytevtJXIh+RuPxNL4zwx9ipYcSTmzvj0LMNXvDv+AO8fQUdZ0j41genRPkgYpjhXPiq841mGlsqhnTtYvQxhf744qFx26pw6lxtafCEdWGxtaja3rEC0tqwkNbNLCY6MSCKmTxtJ6PxNTiJaREBQFmkYVrCdP0mAzAa6XZKVcStxTL/SrDsDRVS9YGz7NwRtGka1Twz6BQktZ1DH1pgQCDag6dAT1zT6OsnFIyuiH3Ow0JLEPBjmqh1m2pbYsV3x1l9nOpJV19aioqED/Ptko6JNlXA+DgrSEBIRW0Qwz9bHo6EYAKl/2BO9TniEO81q3F6CFaKeMlVSvqQmOlFGQbrnmnOwOrY2UPPQghjxJQIpszDIypx/1SFlwegjBMD1kseZKmdZYazrX4SbO0yIUOsgqZrk2AZnJ5CjpfV7lbTMWrHhWfUyh78tDMfTEMGKeVrKtVM9IAkqPNCIxOQaJiU5aoQGWxTYkIJhXqEgOS3EM+JvxiKT5MRtHN6OaR4tgAd3yZYCkaKLrRBG648oItaQaNg8TDFPsA5rkV4mmOFF3plbdJESmYBwBjl5TNIVTJiHKW60hqVuWLy1vnviZXg9VHKY9KUcehh8OQOJBT8MdkqfSMB+9oWRaVZae7iuubrFcrWwwwK5rSyz/3+nTBTnTWqLuVjDUs7ie4X9LRlEV3zQS41JqSq3DOpN49Wv9leiVo14PMymlDLyhxlFjSUfU6azXx9QkJra5rzOTSXc8c61cFFdEwNOaNxvdTJt54VkPOCz3Q6S3N7r1+v3M9M9cmjxUiDjsrpN8YK0HlCIwrXaicMhqIkDYaaKYumv2nYpmETsKgcFApcKkkOoorjjzNEtjqKwaY3YJfAlGNs0Ak6T7AYKcdsbwcEw3rxRJpuY2XRT6PR5aHxbgsBZiT0XzvvBd9RHncnRUE0sijEQQs2xS8mzaSMHddWIHCslqZJhqrOUXNl7ooY+dAChYMucqk7+2SAyTWGDqMAvIBYasHmVmvYIlqamWzI1hRqaKHJ3+EHCrYEYPCVwJIAJSw6c5GF/RJBuealcbm+FPVoilJ8baInXHNnnpRPFNLvyjdnFwsNC7xNGI4kBVjhgzkHohuVF+ZirA8qet9CzfAhcCp1tvafCU98SW3sa2BbsYna1IWYWpXApX/po0MdYf85YMBKqWhnPQMszxUCHRCpAkd7Evvt7vK0JfpregiGHG17T4Vxk2o820AzWNEiV2DrW9aV9lIx1mmAWzkp2V3tziIYnrzlGK3vn/R8fy84mSKqdDopZwo4euFf5xKRr3w9JIgFZTmnPT4B9F1n01kw6RAZ0e2Uc5tuKIOOIx/4AZtR3svBwVebz5zhKsWrUSXd52KpuauicJPK0cpBTWiCcVoAIZkOnuJIEwAh2tWLjoTSzbsNW4bwIxKx3j0aWzXCv9t8Z164K2IwEuQoAqLdqJ7333W/j9727H6nVb8I1v34LOziZqXwuj04ILykkhiNAxChqbU7zyMGXJlRRnesskYIKee20ZHnjiafj0DqjmJ2nNyEpQp5Qnq6eldNTYZ9jZaGWZOSlaPcbu4f33NqzHb/74B9TWNhgjbPWKdfjR93+M7Zu3WNYOZRUJdtLdDBoge2PRKry68E3WXa9meVme9l8J0Losw58fexTrt++nmATCBBAjf0KCRhgNfCxTMhXYSjpSA38giBdeegGbtqyHP+jnEcLmzVvNDjjjR4/BRefNw+J3lqJTgxXr5aSr7dB8J0lN8n5LStSmvjzlb01FMy675BocLK7oVmX+ocAs7QsyD6+RX1VtF370o59hyrhxmH36bKzbtN2MPYcPHsSzzzyFtq4gtM42qrU6JNGQlhJRReQdSI1lCal2GlzMAC9QJ4I6WG9jiZqDERSRYSpbOPv+wQBtJxYwaMp43RAkbLPi6yV/3uOvQF/pDVDzv3Uo3DqMAMzBrEwS61ppjNC6yWAhw0z4Z4Qkok+JjCR5qIjjj+i9jybjnmo0Nma90vVMqb9qNKvhTAegOmh+QKOsfuWYmdGcyqFf43oyTKOh0mvgMw2uP1aQaS+rJKtD67UzWSwCN5/dxYOjl5NuqyOIM2afhpOnn4jkWE1Xy63pgN8XgpcKbTwHU1WNhJp0t6ODmqsXxk0vktJp4GSndoQaUNlQi0NtIXRpNjkicDJ7lli6Kb7NchM9XAmRFyc6KRvtBqHO722owTmnnYj0ZDf+5+av4txz5iE+njzpZVjyoLWDciEEOIK7LloisiCMNSmpSc6aIwvY0NgOlLTZUd7QgK6OCrgc2mgqBI8qIS+b9VIefmOxCISZh11AKMsNaCWrdbYO7Ks+TDkwrCuEprIaTJ84CWNGFbIdCIq0WD0uDgC0aJxOD2addQbmnnsOYmxtDCfA66ET2ij2ahyoqsbeNrd5xGMah2V4yYtWjEg+Yco0GBQkaouiENpoDa1Zv8G8mJ6b3xd+tv3r767E//7kF7j/oUewdfsG3PaDb+C5Z57Dwnc2wsO6a68ZI1uKXmJWvuavvYNl0sJhuTKqXcEEFBfXo7GThatlQkxH9JIUrcV8tPAIfPfc/yiSU1OxasU7+Nb/fBP3/ukhVBwqxoCBmej0tmE1Qc+sXydpekTzrbKgQxzUNFCYradkMapcU2lZTN0Kav7qvgZR6TJLV7Bhkj/dh3RbM4M6tHDZeA3m4HmUqPdSfW39ZNeAqjlAxjF2gjksa1h9yfI6eI99QLlaUwGWZS/OZGmaqR6eG/rbk/9v9Km9u2qRkdSHHP8IHZvm2LOjhyXy6PEBJH3pcVt9uyepHyssGixvz+ZrI4iUY/OOA1i7tRQH9mxDvNMHT2wMyiuqiVFehNtbzAvTTRyhN9FiOFx02CzCLS4rw1qGlzBedv8C1DYFcaT0MDISEuD0ONDU2IEt695CeoYTOw7XIpKQhxH9+yBcXYz1azdgy64SFBUf0fw5slJT2JFC2LXvIN59bz12F9Wg0xeD/hkJyE2OQdjXCYc7BuNPmglXSgZycnLg4ghcW1mDDRu34OCucuzdWoLM/H7oirHm5dxS+BChMtCIpqJ92Lx6HbaXt2NbWQM8BN4zJvSDzxfAexv3Yte2DagtPwhnXBbCMXHmgYx58qlewl5xpLoeKzdswY4Der+zCJWV5ZgxbQoy4tIRbg5g8vjhOFK+m2W1mbdI1CMrqpqw/7AX1fVudDWVIyvFT6vYx3z2kNfVqC/fiw1FtcgZNxuDchNQt/cQVq9eiX3FB1BSWQdHQjoS4/X8UR3ej0CgGY2NXXjx5SXI65uLCSxz794i3P/gE/jJj39GkB3GNvUhMycVuXlD8OijL+C0kQWI66rBnk17sL+iHVu2rUdtxR5kp8fRo3SjnmC/bv0mlOw8jOaKRryxZDHO/8LFSI6PQcPhw1i3ajX27toNX2cL0lOSUVrTgpXrN+PSc6chb0ASstJysGZbKeJj7Bha2Jcg4cb8t5dj9LixSIgV51RKARbbwpqOINwZfzfc7X3qj6BOA/lRsrTdwJ0BJR3WfSl5NwiaeNHwD6DuG9aPaUzrioBp7Rxt3TPGN090iMxUgblhHTIoo5eGzAl5OL6D/X+iTxnkPtv0kW3AhlOTo7UWW1e9hbVUdF/YiYaKUlQU7UXh0NFYsWojOutqCQgB3PzzP6AjqS/a6GLtXPYyVq3fgmZHOmraA3hh/nzEJ2sU78T2Te8hPzcdyXEp2LR+I/50769w8hlTsPNgFZzuDIJWBha/9jKOEChCvibs2rsTOw8UY+Cg0diy+QDeWbESLexQXrrIxft3Y1BGEip27sDqNRtR1xlEaXM77n3ueQwcOpKdJQavL1pCYNwLh7cK5buXYWtxKfLGnoQYDszxMhNtTWgpWoNHHrwHPpqfFa1hrN6wC/3iApg1YTCWbtyHF5dtgcfRiMby9di2pxYJ6VMxQGsn/NW0PGKwrzUOf332KVQWb4Y2v9y7Yx+qjpTizDNmUh4deOjORzFkQB9seG8hmqsOYZAWfNvj8O66vVi18SAOlVaio2oXxuUn4BVaVy+v2IMEhw91zG9rcQ0KJ89GIt3zVx67mzKpQVtrOZZv3IzmsAdDBg1GIjHTTovYbfdi365arN9az7JPR9+sWLz9xiLEuhIw95xzaTWy49IkC9MKz87Mx+KXFmJ4Zjxiu5rx4z/9BbUxqcT8Cqx+5X5kZfdFSs4QvPH2EmzesA70/1F+cC9Wb1yKeVfMhTfgoEu8BFWsj59y2ECga4rEoV/hCGSmx2NSIQcyRwPaO2xYvLEUBQMKMHJ4IY0hN7To3BXrRl5BvnFF9TTVUChEK9fAnjXY8o91HH/994/3EUe/H3RQuY9No+ueYdHro4fSaUz7oPDocTRcAZ8NMv24lz6YNE/r4599xcXw+rtwzjln4Ob/uRlTp88w66AcZmEu0cJnR3VtE4ZNmIAbvnItTp85EUkJsZh+8hzccNPl6DdwODZv24mAP0CvMEgvkQrgkaUoN0EbSnroFroRQ8uhy9dlduC9+LxZOGVSIa0bBzZvXY/S6lasZQfukz8CX/3K9fjWTddg3qwTEUt3WqP5iLGTMfnkM5E2YCiqvH4sXrMJW/aW4khNK+aceR6+9NXLcMvNZ9MqWYYNO2vN2imaQLSsvFj60tOIZce/9qs34AuXX4IpI4cjNSYWLU3NePud5Zg8dSauu+FruPjyK9HU3IrN5v1iunOOJrrNTrx3uAs7DzXguisvw9ev+QJOmzQRKbEexPCwnizakZqUirzMbILcEXqijXRFu7B9117kFwxAUnIyrVUPmlrtuO/RZ3HynLPxpS9/GRfPOx/9MvvAFYjQ/fQif9gglnE+ThxCi4ggv2NfKVroURoTXL6/rxWHSyrpzqYjo082PcggaqsqkRIXZ54yyvLU3nd6Ri5rKTMxAfUVtJQDtMyTkzD9zDNx441X4cQx+diwbBnaGyPYSiv2zNln4stfvxGnnjwZWckuWsid2LpzD460h3DZdTfgpq/dhLGTpuGF199FDH22k8cNQExCHAI+J159dylF1YGhw4eRRycS3QkYlJmD0oMHzcyj2eRURGQzDqnmA8ylbnx2gEL02eLm49N/FcgdHWWs43jqeY/9UjqJUHwSCiZOR3FdM35y22348a9/hfLWVjiTEhHQ4zJbLIEqCSkxLowfqj3hgsgdMAyjRo5DdmKiWVuUkZoGb1snEmOSOFLHwBek+6GkWiAWdCDM0d7v40F3JSbBhebGw3js4Xvw3FOPw9/ZZl5gr2vuQFVLEH3y+kPenivkw5gRQ5GRmYYuWxhvr12LPzz4MPaUViA2MRMtLC8YCiItMRmFfQtYoSDcdJcGDBmMPQdK0Rm1HrpC2Lt2J049cRZNu1SkpCRh+MDBBKgYVNJV27zhPaxatBD/d+s9uOO+xdi4ZQ/duW0Ex2rm2WXm4UoqapGYnIOBBaPgcnswrDCPllIGBwkXfHr0S1fM4YrFiNGTUVJWjToCTwUt4oO7NmH8qMFw0C/zRRJxsCKM6roWnDRlmHn9K4Ng0L/vIKQnZMEdm4KtB4rwh9/9HpveWQqX5gf91quBxvTRxgHhIGoamgjgMWZ6Keym++dxmcl3szYwIIWnHEzFnRQ9244DS3y8E32zU5DfJ90s+UtNS6IB3wAfB5YQZd4/bxAHpRgMGzGSLmkqHKzT3j07adWtxu13/wm/uPV2vP3mMlqyhxDTXg+P04eOQDzuXngQy7YfwpUXzUJBTiIZiiDe5kZyyI26w1XwEVwNpGnHVPmmmj4g6Qnup7ro4b+M/qtA7h8hGQc+dghHXCymnHQKfvq/t+DbX7ocBQV98bM/3okVGzdCuxprrkSLK/SycmzER12NsPO4zdM/GWwmL7vmJyhqdjIbh26zlIIF6AmV3rXVThh6b7UrGMLuPbtRdqgYs085Bf9z080486x5SM7qx07ggM/bjKBfH/ERQGrS34WmjnZs3r0NiZmpuPyaa3HNl65D/4EjCBJ68NJOlPbCr21O7MksP9EAbYKTTiY7s/AHsXHk042UBC20tTqWdmDpDEbQRcszKSkJ5583D5ecfykumnsZbv3ZL3H51VcREBmfIBHnsCMZXoK8g6AWMpPm1qcJNL8k0g4pTgK4Byl5Q8hCAdbua8Hid1ZiWH4qstPi6cLRaaMFFBfHFOEu0+cjQR8CIVq+zKHVF8Dq9RtoRTbjsosvw1e+8nVMmTgNDmc8D1OINfEf5oARDiHWGTZ5qD79Bw/CwfJydGhnGxEtaUcojDpaqaXNTegzsD+TdrEFI9YDGrab2XDBEaalHoCTPAkopRB6EuzzhShbt1mfO3HMMFx00fmYd/EluPaaa3DHr/8PKakc1kLtKKtsxsYDbThp5tmYPmkMkrTyXCirRwvUBwFtjMozTJFYdU11aelH92UvfULUC3IfSuqpdGw42gYa6zEgxYUpo/NxwxUXYNSESSg+XA7r2xR+KqafsfUUi52OnVlbbYedNgTY09S1AnILNVLTsqopP4zOlka9V4+Kw2V0ZbwERa9ZOuEhYNRWNyArewDGTzoJ8UNGobSyFaX1fsS4beif7KOFUWq2ZvKzm5TWt6KmtZ1lhzF65DBMmTQCne0RrFq1jpaiF/EeH9q76lHT1kImCEqVHuxYsw0TB2chhSzpjQFpwPBpk/Huu28AnU3wegPYU1FJSy+C7PQM9M0fBHdyOqaMH4aJhalYv3ol3l13ED4n83NmmWUnI5JCqNy/jrweREuAQF1Sg6qaOnZUrb3S0hI9lSaQp/fBmNOuwDOLi/DE0wswZ+ZkJBAttBmBPVyH/PRm5KS7sZEuoo0AVt9Qg+LKUjRFOlFaVoSZkydj6MRJQHIa9hQfRofPD68sUiFFXAItokRkJCfC461GmFV2s/QpU6eirqUZq9avp+XNNuX/cFsbVtNCTRvUD4NGjyJoxdFy0vo5IaaHoO9h/fwIZvjgjW3HvsN7KL8gysur0ObtQpCCy8lKR9+EeBQOyMOICXRFHV14+smH2Ma0KGM8ZjHw6P79MJnWX4xDawDJKP3ldnSixt+AgYUFSKTl3r2nrCEapsYy7qVPlv6rHzx8NFkP7b0tLXh7wQJsX70K7RVHsG7nfrpNh3H5hRejraYWsQSy+IQ4vPbWW7j6ui8ini5SNeNVNTTTNRzGEdyN9Ru2weblqD5xBIr27kD1kTJUlFVi5coVVOoOzJw1A0WH65CSmIVBfXOwevkSdLS0o6boMF5eugH7qxowc9IwjBuQjK1bNqD0SK1xS195/Q1akAEaP+3YuWsP6uhSr3xvPcrLjiArJohLzpqJErpQO3btR8OROixasAS5BQNxySXnWR4SzUl9cyCvfx5eeOV1852M7YfqsGDZagJOHM6bPQOe1Bw8/uzLCLVWonj7/2PvPQDrOK6r4YNX0XsjQBAEe+8UKZGiRBWqd/cSO06+2PGXOI4TJ06+/Cl2EjsucRzbcZclWZZlyeqNkij23kmAJArRAaL38vD6f87se8ADxCJLoiwruOTi7c5OuXPnzpl7Z3dm9xEww7jujjuRQ8NQE+Z2+vVZifHo7KjD7v070d41iB07D2Gwrwd33rwJgWFg794jWHPNGiTnpRIgMvDdHz2MAMH3S1/4E9jiM83+cPFox5rVdE3zZ+B+AmBgoB2H9+/A4cpzWLn+BuQRDLc/+RhcvhGcOHECmw+cwABd/atWLUR+uqwvthYt6DAtraaz5Zg3rwhJ6clIT83CvLnz8Ohjj6CusQatjXXYu2sPDpwqxz0f+SCtySlmN5ZDVc1YcOUGZNLEKj20D1UE6Rve9z50sf337t6PjuZO7Nm5DwdLj+J9H/8gFs9dgIqTJ3H6zFGcrSvnILEFt910M2bOm0HBxMHpzkJaWh6K8/QE2E4QpyBsXrTSgnx171EsW74CM4unUc0s4JXZb21ZYVkeZvw535zK20X/i8B0EuQuQNIB86KFOwF5hcXo9gRQ29Zrdmz9+Ic+isWz5xo3My8/z+w4XDS9CIvmzWGKOHqAKcjMZFheOpxhNzJolcyfnkP3ZhqmML4+UtM70I/7PnAPO8UcupdzkUUwKSkswvSp+cgn0LXoIztDflx7y61YtnIR5k5Lx5pls5GSkoktW/ejvPws7r7zTtx24/UompJHl3SEFmIvli9ajHtvvRnFWWm4csUyTGOeAa8Xbe1tmLlgAT7xx5+Etl/XXmF6TUHvFDqT87Doio0ob+iEk+7rpmuvwpL5M2nFlSCvQPNrmWior6NplISbWea0wnTTEfVAwUFXU67xnDlzMDIShGfQi9XLV2LjVRtYnxlIphucRTnMnFsCu9OBtFQ3ZZCGjQS9BYsWsSe7KEcbphVNpRwLMG/RSgJTItpbGjGtZA5u2HgblpbMxpoF85CWlIxOgmccQXXTbXdi2aKFmE2Q0gdtrNfE7Ehx21B+5hCGQ2EUzFxo3MoCymLV6sUor6tAd+8A0jMLcOedd2Ap6+i0ac1FPDKKpiOfstdC8xQCY8H0+ZhJt78wZxoS2X5dnT1YsnI5lq9egVUrVyKXMsnPz0RPTycGBoaxYf01DF9FeWiHYL1vGEJ33xDSE13QPm/GtKS1d+bMOZTVDuPuu+42O9IYxum2ypjTSyLSHz2ZFMC95SeUSn6h438RXeZlXb/npHkYTZ6xIwTYadx0U4x+SGI8CcsFsVtLjTTJZlY42DW7I/zwUWnpV2rhthDBrL+UKmu5ktPMMSudtrvWkz7N02kpkuIG5QabCRr+53WAzmkCrQAEh9DdGcDzW46grLwSn/vcZzElM5nprbkeYxVosT5JPAT9Pt4jz2biKs58Zs/GPM18FTu/NhXQ6tgAw8xHdPjrNvOHysFaXyFrVrOOetqnl5z16klcSB93dpBPDgPMy3jiKpBkDBPKRd/UNT2X8a3XoW3wsgDxEwh6KTb68KyjOnWYDITouulhDzGKeWh7d6WhO6fVISLxpEO8R/NTfViM1sIm6NGpXEXK6NiBfThe04X1N30AxdkJcDloI9GS0i7JvrCTAO9kzppg8DAxrSyb25Tt1fSERMh6OgjIVoEkFqc1+npOJAqzzfQxcdVLi/HFS1AbJBgerU0efJofZIBeko2X0PUFtIE2/PLZQ0guXI3rr56DZAmXuYyWM0mXhYzKTNL5SU8n49gptXOJkz05uttpSK/Fk7RA3Dy142HWSkau9UDBWg1AgNNr4Jpw1oMC86zVSUBRJ5WrSLcm0nO0nlO6rp1OtGxHYGAnqGoiXZ9utDqCHf36VCLd05JZ05FIi0abAMgiM++7CCRZvjYzETmchBAhkOlILJmdSnUhe4a0P5/5Li2tCSmCrB7LetDB+vsDtEqiThQIJMo+SJk4TH2Vn0ibkaoM1d28pqEylaHK05vMRD59LMjUiXnLtdTqSbMUjGm1maVYF/iasggUCncIKFVGtAr6ZXZaQ+zTcjLlzyBnZI2ukQPzXbp8FRbOm0fXdciMFUoo8NUcnaStQ6tZQtruSpNnYR+Bctg8fHBonkw7eESJCU0ZDJLcVH8NTFoOZhDcHGLSTnnGwecLmXXI8UTLeMYzG7SwcsFQAnq8iSgqno4Nqy2Aiz5F1cOa6HnsMUlvD01achchs2aPpA7t8/kMADhjO0CE/H7/ecPVOwJmiZKfHVYbIzFPYlFIC661FVNkjAmYpVwc9WlOqUyVJzAyG2qyZwl37FpDKsBkV+3T3DZNKuGbZXkpUwKNWStkPexQzjazXxsb2Uyoqw4B6NsM4kGWZEDAQ4CwCS1IKlt1jLpJKk1ALxXRjhvq4IprrsmjOmd03kiWl54US2IGuBhPYK1wY6EqnDlG1c0MDExqI2BqUBAA6o5iRp9ZyxqO0wuFkTJE2uIqzq4KuI2lKVzTlkOGtPBdwCg0JOCEWa5e83EQxGWX0hOlmOlOUh4CLG0VZEo1lmnQ2mKerqbboZ1drBdzrUFLbrnaRKxYOuHnAKClTVFZSISSrz5EZNhVZZhHkDf0MMEEMamsfQ2Yk/TO0STIXYTemmgEFvpVp9AhoImS8tWhCLEKHw2LnPLQKwVap6mZI72mol1QFMfkynC5XXFCu0haLQ2iraUzgozCRQbyrNMYulj9zJ0YcHkzJLCKkpl6ipyLBDvRs0hpEVK4Fjexrqql1u1OSKknHqxdTB6snckimpcO3pNFyLgB5iP4t5Yj2Y2LHokRMRTleobN01ftMKPSVbZ2hXm97M7XnjEUydjE4rnKUGniNVqm1XrMVSPNJF12mpTyZSOptEhqPVHMChNZyj5Guo6mGyMrtcBL1iLTMorCrLky9SSGqcNEQEnhVkdSXrHHRJp4/+079E8gFz0Upm6uLXvMwRCLeE9grC2TRkFZxBjG14zmKYqcM1yAZebPIodFpgQelmUqC1pgaUlDYQQmWcw8i0KnASPK1by5ZrYYUnqR/o5mPO509F40Suwh4q/yjb4OYmOZxggnxUabpHeGxnRtkt5mimi4UelLgNnoaUw4k8tSUwc2O7vyMNN7isFAvYisrmtZCZFwpTNhOgQY0fzG7o6n2Htv7xH7z4TJlIue8zCXOjMn4jVyRNzBMdJ9hcXWRxT9HSOFjIVa6SQf83BD4BVtEmYjuerSimX9yoKzKBoaIV3G/hoad/E6Uk5qB5Mjo5oasEDxIDs7ysokXX6aBLnLThdT54n3xq7VhUa7UeRCd9VJZJtY4HExUmyrq71ZiqbU75s9xEG0o48nK0BxxqUYjRep8IWO89G4e9ELvVhi7eAxkQVBXzSWiTlapMBRRM5HkTFKJmbkNJpAv5EjEm4BHKEtEiSy8rbKtK4m6Z2gyTm5d4Qk4liljop8oqKPhY+LMSG6lVs0UHS+vM9HFyrv7aeJOU8seSxEMSfW5VL1eX1u5yfZT1Z+0VxMSl1EsphY8hiNSzGBLnYvStYwZGy2SHlvJNUkvf00CXLvKEW0/XV0ofCJ9EbjReittOzvbU+MVtoCtvNLW9ZU7J2Jgno7Kx+b9++tUH+vKWJ3T9I7Q29VySc7yaVJMrLkdCFpXXxG7O2WcTS/tzvfSXqjNAly7wqa7AC/W5L8o8floMn2/V3SJMhN0iRN0nuaLhPIvZXJoItRbL46v1zlvFMUrcNYPd5IrS51/+2md7q8N0+/P5z+buh/p3zeIshJaOc7LieNlWGdxZZ3ucu+nHTpl0JE0Ti/VU2jrza8CTpfyrGwN5/vGyHlPr4ES0avDxe9PmQivfkY0RIvncNboUuXcOG7F08be/fCscbTxXI8f/gbzfmdpsv8dDU269h5iWj46+cqrDvRd4li6TwvTYxmo5PYFNEXORU2Fm49VRPFxh2jaNmi2MnpiU/jJpYWpYnh1rX+Ru9MeJXhfBQTIZoqStY1/5qT6J1oAv3q0LgVkyp62xAvxqWLyilmrIvGj13SpbDXMzKBoglFUUm//hnm65KNSxelSKzzJ7hw+ChdIEIkOFrixBhj4dEz0UULGqXz53m+fMbCxrQ8ol/nz4SkG7GB54k4GjQ2WFp3X5fZb01jOSq31+c3yt3oybuL3laQM5tAREjvUIbjtIRaF+c3GMdvCqidGkJMI5GGYSdbWuAtkgqYtYrK04TAbGEz9hqUJV1TE3Ouhd0kU64W8Ohtd4bzsML1R2Tlrw4dDYq+aGt2yYjkZ62UjF7Hvn01nvy8oy+a66VS8apvC4yuwTT8W9swGT4YIbr4aJSUYZQRnmtFZWx+CmOD8UKReKEV7ibv6GoAkbU0SaRQU8ZonqqZVVdrGyh9VV+ycRh+xnYg0cE8lOVoWp4ySGI0YbqO3DMbBFgn/KNz04LmEO+GeEvZGc5iwsYXIlIMZW5dWXEiFA1TwVHdiblP9Ylciwe9AGzV1bzcGxUgs9e+Kro3Kn/mp0/waS8V8avVraYwlWHWCk8gCUEZKz9F4Vm0Fma5mLmnODFyUZh+IwKU3C1JWeQ0wUY6Js8x4g0jXy1Js0JMaYyjjVBUDyNj0xg8mIXWOqvmWk5m9n2J3FIaQ7H8R0jiMVH4ZzQ0wo56gP7qvm0cHyRG1l0jy4j8jait03cFRapxuSgiDdX2PIfEFvtPZP3qUAStIxwDIC1rEsNKHs3DIuvEaiiJXNImmY7ARFQAgcP46Mo1opqRAsZSCtYsRRKpuxqKXI/mM4FilwUpH+0npqVZuhMtXTxGuBtPKiJSTCxFg0aVLzaOOZeMTNfSxTgajRo5sRY5xcYU8Kp24lt3IvJQjNHEEeK16SwxpLqYHE34WBtaJVirDEZJ6SOnhkYvVHbsMS5WJO+JxDjR8EjZajuzbIq/o6sNzLlI+ZIiFRBnJiSSVutmR0/NrzJSiAk9D0k3FHn8fass0mi4QpSXdWVOTL5jLRFHHbcJ3IwwGTaaSZSUJvIz7p6BN/NrDpPWAiPd0d8gw6x1w1YUkfRRGzhIN2MpWvT4UIui4ee7Jxprd4vG+vC7gy6jJceqRtchRhswSpHr8UKj4DkUj4Zpry9eqFGUl8NCC0vSbEw1lDqnmnnUcuI/uxSc11LzYJyNIyR5MEM8Y7JD60eqMNoRzOipDQ6j4Yri5a+1jNtYTmow5qXx3YIThUX4MWTlb+rPYHU5KVGATEX5U6gsJVMfRhJgm9EvlqJZRrI3+4xZISa+CYzGiSF1bpUz8ZZSGwuGaVVN2dWqlfVtCoGjVZQOLf839YiAnmmuSH3GUfSabRvSAnjTQWUNMjoPtYhlNUWIp8rKhERO9COKifV6Gk0UQ9GEUYrGIS9aiq/6uRimLeENadMCs4tJBAAZzyzxis3H1EPt7WIFtMo1Sqy8hKo/4+LrjwWKQeVljkhUksKVo7H8JT9DVqiVVuc8JGfKLcqLJT9phqUzkWDe55kupE+MY/TP6CS1MHLLNLEBOD/1RFa5w9Q3wDCTn9FxK66lf5YnpM80Kp8xEsNWXNOWsbcMWfH1V6TbOheURuUgsoZ4lfy6DH4nFG2bt4fUYhK2ETgrKAUzSsZijGT4x3QA3Yv8Rg4Z73bTSFQQKlu0oZXlKMAZogDDARNf91VSdARXWJwpU9sjylD3GdPdq73/zZ5qVkTtuGY5Jwpio0WyF6fq4hbAiQwH/LH4t+xKBVsJdDeWTPV5WPxYjaxtfTzUFh87XIgWg4A1uiOF4pmqWdmNUeTaUid1DvHKmk5MFyHlp3LHkziI1FGkOPyxkkkJGaQ0kXAND/44J+9IWXXfuqFyzDdaY8gqm13c7I4b4LXUWukEElYJUVIRVmljpLBxFOEj9obpuJFzQ6ZHsz7ih4dkMFaU7BUBj8CFFKTLzo4eoh5ahxVfoDTKS6Q8AbpSxwnotP8ewwQmAbaX7plovI4eykWDh+BD+UVaxsSz/oib8a7o6JkBXbl74o9aaMqx7loStwBOASrK8CqLSxc6SCanyLU1BePjMcKeQz1DPPNT/upDYbjZj/QNjtH6Kw3/iWuLQ4smto/iqxxTVixFAvSjNMpBvxFzISZMmstM3iU0QX1/O5JBYA7W2trkMYCu7lb85V/+GVatWoM77/gItr6211hoplEYR4ajFT96RCWqXXh5Yrfh4O79+Pq/fwvdnYPWaBLdW1vnUhSOgtrjVbNPgiN951gVUYOqo/lVHMuyBQdQWV+Pf/qfh3CgqsXs74UAlTnMI6CtJZ3wMkzjvrbktiw4Cx7DjCyQCLDVjMLyWvd1pcZUGWZrdENSXv6oAJ6q0cWswEcK8+jzu3Ci6qwJ1UaK2l5bSVX2MM91WB2IpI6sEs0vHVEqcpw2xDQKzW5MZsWP7o4YxnTPYzLUqTbEtMhH2eoeT1mwfiQvqZ/+KSBsNoZkXYIh1HV68Ivn96KprZuMDTDzQSsRD/0ETGPxPw9TD3ODQEJuAuQryM6ocLGKyEahAh3FF/DoN0R+TPsHrC5g+CMZMUbKEilckKVcTAzdV9zACI4fO4q//Pt/wZGKBngZ34CdGAN1Bd1oqavHa09sR2t9G7xsY6uDq+3466cHwLy0c7L0VoJU8gAzaSk/g0e/9a/YveVl9LKZBT6Koq3hpX76PKLsRVlpVm7UM4YfPV2Kv/vX/w8ny08yT8qclTF5qgxGC5rNTHmiequRmffPv/MACosWYtbSqzBv7dWYvWIlvvv9H2O4W+1oGOKfiNx0SaAe8QqEmR8roP3xfGGBG/OO62Obt6Kjpxvf/sFvcOWGm7By+XzcsmEdfvXDBzDQNjxaTx0OMuAK9rMGVCR2LtVNMrJkr3pZZaq9gqyE6bsMCfi9bD+LLxOLAgyaQY788fBTlwKRTVqNO2zO3h1k1eptIW0L7cMLLzyF9Iwk7N61F5//iy/hxRdeQXVVtelQEW3loa6mogVKUUNX99hwApOgDQ4qVXyIjT7I+NTm4Z5+dLXVYniwByOeEPo6u9Hf2oo4rx8JTB7m7/CQF51dfehh3JA+E8U8/ex8fSNejPh6YbMzf/8I+ru8aOcx4KH9IvAI9WJouBMDQwME1i70tA1oR2wM9g+ib2AAw1J6bS9uUBLoYNntfQPoYZlBfbsh4IG/f4BlwHwoZbC/Fx7PsPmuaVXDAP7py19HV1c3rwcoowCGeaO7ewiDvR6CFiNRo/xU7IGBfgyT1yGPl3GlKFJzARErSNmOUJE7lb/1HWXEOwLwevtYZg956mS5w1R4D2Xbx04xiGGPH02tPejuZxH67ijLH+rrQ79PcKfvj7ZjaKQLvVTk7UdL8fCTz6F/UJ+kZ+Ysur1b5fWjh3X1+dkpGOZjO46wZ6h83wAtiJERDA53kYchdBMbZXhQGLxPOQ950NfTh96OLnhH2CFsDgMo+pg0IyEQoGyH+8inB63tvejuY3uzvmHaJPpUo4cd2nQWqcoI7w306gq9HuXdzzr3oqNbcnaarc0ToG9gtKFpYBiOzHQMB4fR3t+FlnbqDOuVGOeH1x9Aj9RAnZedVGrZM+iCn2ZVkLqlLdOHhkbQ20/dYZW1nbtAIGSXQy9GGC/E8vupL71d6OrvQ5eXbaMBVrs9B5l/exvbdxA9+kCXvq8hvaGemV2FtVMxQe++++7D3oN7sfvALjy7bTe27dyFo/t2U6iMS29ksJdy6yNo9/Sgi/pucznN7tA+H2XVO4iWXh/aB9nnhNrUgVdf3ox+iuiXjz+DIydO4vHfPIH62lrs2bE12pyml2kA99IUHqZeD/Z0obOzj7rPG1LtsECW/Pd40NXeCe9gN6tDHWeqAY7IfRyNu9g/Ap4h82FstUMnda+L/dDD9pGZMGIGLvUp03LvCnprX+uy+rxpQCmn3NT+gW5cvX49MjIKqJcOnDlTigXzS5CRlWr2/rcmyS03wBhlJrmuqHmaSwm60VzTinO1Z3Dlijk4crwGB0+cI1AeQunRF3DqbBNq2nyoLD+GsoMvcyDrRf6UYhzcfwgvHziE6ppTqCjbi7auNqQzvHPQh6qK01g1PRlTkgaxd38ZXtpTh2PljWb0y8+gvdZXi1e2bcPp+g6cOnoG+7fsIHj4UF5Tjb17d6O5qQ5pqWlwuZJY7hk8++yTKKtrQE1rF/IcIaQ5A3jiyZdwsm0IJ08cwenDuwgsfYhLSsdrOw/hlRdfw+yCdEzLcqOzbwiv7T2CE0cP4syR3Rggn4VT8tHY3IyXXttGvmpwrmcI+YVFlE0YLhvl6u1H+bHjeHXnHhwpO4saWilT08JIcfaivK4JT+w6hpMnT6Oz4SxSU0JIT3egiz1sx86TOHDkBE6XlyIh2Ia89DBe2LwfvoTpKMyyYbj1MJ7etgs98VPw3Ks7cOLwQSwuzsPMnGSUVVRh2/7DKD1RivLSMvMdhxzyqS9umYGJHVVl7t7+Kpprq7DzwGkcq2xHZhKQkxZCe1svnnlpFyrLjqH69BEMsXkTs4qQEs/2VqMT4No7mrFt23aUlZ3BqdMVOH7yJJKSbMhIc6OsvALV9S3IycpDAss6vncnaivKEExIw5aDx2DzcDCrPY3S0/UIufJQlJUIeDpQVtmIc3GJyJiajH37N+PQwVMoP9VM3G3HjIIU1BFMj1e3oDDFhni3B03NQ/jp47tQnJOBmhN7ca6rC7Xn2nD86DH4vQFk5OSw3QVwskvFeBBnqU+vbH4eVVVncLTiLCoaO3HV6quR6U7BwT3bsGf3K+SrEfXn/MhIzjQf3oZLNq8XwZFhnGE9W7s6sH7jDQQv6p/NiabKSswtSMO0khmo5cC0h/kcPbST+lBHL6AFc9kuTl8n9h05gm0HTuHwiSbsP1CJgvREpDr8OHSyBsH4LCycNxvZyS44E5KRPSUXSSlOFBZkmL4n6h4K4PnX9uPM6TL2k8M4UVrPQTwRhfnJcIQ7UV7ZgM2vHsTZ8uOoKN3He0GkZpfguZe2obK6HuUnDyHO34thymLL/qPsg/vQUnGS/bIOGdPnIjneDVdgyPo+hxkUfvf0NnLBEY798er116J4+kx29lI8/8IziE9KwJTpxXC69BUp2WyW3SaKYqQFdST5EAI8/rhDHI19HTiwbxcefWYzUjIyUZCXyY67n2BwGC63G26a6t/95peBtnY21hm8tHU7i/CjIDceL72yFa/uruQon0irnqMnTenSfTvxwovPIT49A4UzFnEkrcRrr+1GbXUFNm9+CRVVNVSMbFTVn8FPHrqfg6oNuXnpOH1yFzv0EdQ2tOJHP7kfiWzI6VOL0HauBbtefRFoPotnnn8OT7yyAzm52Uhz+bB1+8s4SdcpPbcAqYlpmJ6TD6fXw06wgxZLB6ZNn4Lc3FQ89fSvcabiFCprm/HClkMcIROQnz0VDlpCCeE+goEXTbUteOLFVzFEAU+jLNubG7GZQDvS2YKXt2xFR38YU+cspYUGdHbQbAvYcXgPFfBEBQqnTjOWdWNdGcGyA3v27kIDO7qk39dVg+07d6BriPXMn460pETkZCQz/wbs37mdABuH+ew0I75hPPPiC7Qg+mnF6EvztIQ4Hp2uaiS4v0A3MICSmcWobq7BqzteIb+V+PUTj6OmsQnTp09DkiuMXTu2sOOX03JU+9KCZZevb23Bsy++iLNnK1EyNQ32kWY88tAP0dXXj7P1TThVXk5wpbXCJGVnzmDPwUPw0IXq5UARoPU3PS8bQ4O9+M2zz6K9VW62DZ20HKfOmMrB9RhqTp/kADIVRcXz0NzQBB/l3t4qXamh9UJ3nJZtfWMjfvnEK7T24zkABekpeDGrqBAFBdMYvhmnKupYV7p4oT4k0h3u6G7DDx55Bv20bApYfhzBv4+WlQdObD12Er969jlk52RjelEujhOktm3dgpERurj0TswHkRzsAXQT6usq8OKLT+P55w/g6V/vQMWZCsyaOw2e4Q6C23Z0d7RQdjM5sEzFw7/5DY6dPI5TJ9mmhw8gKzkB8+euoKVtx09+/jStOxt1JhPH923FI/f/AE/QinuR+p9L0Fm0fLkmtdncNP/Z5l0D9La2Hcb2vYdRUFiAxBQ34z5HY+IQzrHdH3v0F0hJsGHOrCL46BW8tnM3Gtv78fLW3Xj2uRcxo6QICe4wjhzcj+62LsyfOQ1zSrLxyo7t2H6sykz9OGixGwV5l9BbAzlhUxSxaKE57ASycDyV3sGGHWHnSoCNAqtpa6Gdpudu+hScNjFkbKZTo5s5N/3R8K5AjgAy5+M13yAX0+bBVAr82k034trrbsPCBVdgzozFuHnj9bjzlutxuvIMztE9CTrdmD17Dm7edB1uuekGgu0mPPMsrZZgGoL2FFoSCQSEIyiZUYzbb12D6zfOwrJl13IEbECvz8VRPRVXLluGazZdhSvvXgdbpgurrlqDdeuvwJS8ZLS2NmDb9h3mm5of+fAf4JZrrsXNq1fSjW5Fa0cjvCE/rrxqPTbdsB43bVyBjMwUdNJ9XrhiMdzuBCyYOw/FBVOxcFYJbrxmLQY9vdjOUbCUVlBjdwcCrjSkZ8/D7TfcjvXzi5ER7+fo20XDwYeXD9egqsODG26/g3XbgBuvvgrbd+/H2fYh1Na24VxlHaYVzcHGuz6CuYuupdwysXfrISxbvBi33Hg17r79dly3cSNHDjc1kBYJB4IAu6UGGTudvMzkAiycvQQFOXlYTFDLoXVw1YqluO3ajaivqcShEwdxgoDT0jlgPjgTR1dEH7kKwo2pM+fjqutuxDXXrcOyJcV0mbpRVl+HMlrBm+64Fes3rMdtt9yC7KwkVJTvh9fDOrFkfUwm4ExCen4RrrvhRtxw3Sr8yX1Xob2+AidO1yLsSqb1QzdS84bsM8McqIaYxpaQhGnFM7Hxupux/vpNuPX2GzHkbcXJ2mqCcIjubxiLC6fA3tWNmqPH6cbacM31S3HTzbfCRcs67BX/+iQkZUE+7G6nmVv1h10ckEqw9sqNuHLNelx38w3IKl6OLdsPwmk+htPDwaMOTU0N2Fs9gJs/+GncfNOtuHrVSkyjFThEQHj5xGGkEJg23XEfbrpxDTaszqblvxfNHd10ZR3Mg2aun4Kja+z1+dBG0NW3cl00c1sbzqG0sgIJHCDn5Ltw3bo1GByOw/4jh9FwrgpneG9KfjE2XX01Vs0kiB87iLqGRpygJel3uHAt5fyBmzeihN7CC795AP/wpb/Dl7/8HRw6UkkwpwDjnGwvPSBg/7M7ccWaq3HV+o247a6NyCuyofxsGWWSjHVrVrHs+ejuamK702LUh8kHh+myh7Bm5UL2qzWYv2AeFs4owW0b1lGe/dix9zVUNDTgZFWzmZ9DiOa6XfJ9d9BbADl1EfndOkRUHr2iEUdT2ZGAtSuW46P33m5M/V8/8ywG6L+b1wvkotIFsxPEbDyGmFxjjNc8/RTJKdBBszCeHcHmgzvNZeZFnASrjOQsZKSkwU0hOiRINnDI6UTY4aTbmk/XgBEdI5hTPI2uSDcVOB4BKvBAfxy62oP44Q9+hrvuuQW33vYH+MZ/fJUj2AkM0C3RR5Bz0tLgdNoRpsuUlptOTHDBTXfC4aSz4nThVF0nXtq2H3fcfR/B6Hp86TN/hBN7dxDUPeaLTYVTi5HkoLnOqjhd5ImKJfx2OoYJ8lRseyaOnjiLz//fP8Ovfv5jrLtiES2zAngI8D66WLCnmzlqa+CgtRU3AC95r+9NxLOvHMIf/sEnCe7X4W//8s+w99AJ+OJz8eEP/iGG6er+yYfvwF/9+cfpQpXD53XhbA2tqKIpSHBSjMw/PjsbSIjHEEdYDzu1Xnd2xFGGLFcPbBJoQafFjUDfQB0KJuG5zbsI5h/Drm1bcOUVS5BNS8EfspmJan1mUBPyYXaWhOQ0JPKw2cOIjyfIjAwQ6Ebo4uRiSlERm8dJ18lBkEs18zj+gOZ9KI2wPkqdiYysqUjPJG9xBJzURBRkpNOyHKFO2BEg335askHybD0GIiCF7cimtZyZncV2tiMzMxVJrGT/gAftXR5kpmYiPzkZGwlUi+euxl//7f+Hjbd/Ej/9xUOM74SDA46XRoaZXmXjmIccLEPXLrrCWXnkOSGBgw5QOG8lGlq6qXcCCS9RvR8VdKttydOQSvfYxvadSrlOTU+nPMLopJVZsmgp7C432z+AGdOS4BvRXG+feeARojUHgmtCfAKmzZyFW++5Dx+49yb88QdvxB994qO4/5cPccANoYzu9Bf+5u/xwAM/wcqlCzFrWhHstGiHacF+7/s/xCf+z6fh8Y3g2muuMnNyblcKsii3u++4AR/98N34l3/8Er751X/ieObBCy9voYs+TNnFjxoXSZRPbn4O7M6wVAJTcpPJ5yDbIxEvvfwyPviR9+OZ3/waa5cuQTL72gCRy0nzfU5xLtvZRsueoFhZgy/9zV/je9/8N1y9bC7ml5QgxMHDTMXpAYV5smOhxO+a3gLImZ44jqwnp+wANOH1cd60lGS4bXYq4DD8Ps238QgPY8uzv8T8OXlIp6LcdPc92HvmHIbNqyYiC+D0CF+jgZ+KbE/Q007eohLp48NOW8AoTZAOhB7HOyhUA4xUWoceVvi7aWE1kpcRutAjcLFhXMzfFXLh7770Fbz46na8/PJD2Lf3J3ievEyn62izXmajsrOzhWjfsOwEKrfShsmLl6Owx5GFD/7hn+KV117FltdewWu7d+J7v3gQhatXkS8Hy7NhWHyF3RQsD7nJwSGOzv0YoEVyoG4IpfUD+Ie//wqefuxXuP2qZchNoeVLBDdPiB0O8/aD30E56YPRBH4/UuiyZeD9d30MW597AVtZ7pZdr6GSltKsecuwcsUyPP7L/8HBzT/HymI/vvqVP0MHrURPnB8Dg7Sa6MLa1IM1w87OrFcMJLcgLQqbnyN7kHLn/0QbLW9aK7JUt5d2YtCZh5/98jHc/+CD2HjFCqS69URb81KsH+WhQScQ9tPqJoBqcCP6ef2aCA+bp8e9nX3w6/GxxnbKwAC+I5NWhCblCFdhtpXfxaI5SCmahw0byEDZ0TO0NPUc03JT9U1VOwFUHpdNPDPMZqdcXayPHiQMezHSTzeQFlo/Xc+8jFSCVBwyaPV87ov/ioMnDuEb//NdPPLU43jgJz/EMC3jIT0F1WtOzNdOCzzeyTLItL4qGcc/VBPz5lP9uXMEAjUI47IDE90wY+pMJLO+ATYPtZB6TcD262tgbmMhdrW3G/3UaG6zJyMtIwOpaW7qBuuoLsP+4NXHtV0J5kv99DyRlElALUxHa1cLTrd5sb/Rhj/+wt/jiV//CB+561ZMyyygZz2M6jNlWEjwfvDlPfjTv/4IFsyZBpfc+WEOwiwgxDHfTgArmj0f129ah/fdtpIcetBJz4pqwOoG4OLAIaAKsm9o8LZTrr6+EOxkec/uLeYD3I8+uxX3P/QIrifAFmZmmIEl4PfBoYd5wTg0nxvA6Zpz+OO/+ByefOYJrL11E+bn5VKr6KsJUWhkEJV5YlX5d01vAeREqsJYNfr7+/F3f/clPP74Y0b5mupb0dM9iAUzZiM9JYUxpPA+3HDrzThzphwDXX145dmnsHh+AS0KvaFGibOxnAQL/mXHZ2eyudghAwQ53iNwhuN8DBuhwciGCzgQIvDZaCE4/CMoP34cDQ3dZMSF4zz/wF1X0fILsLMNIT7JiVlzS1BXW4dz9V3o6Qzgqd+8gh98/1vo6uxgsSHm54OTyhnPhrazMR3kQS62eWmTWn3tFctRX1GG6rOV6KUJv3//ETzx4/uBmjr4hqkA5FGd0M3ROsSOIZ7NKwUM8wYC6PN46JJmIzEpGYG+PlScOIEjB45gkEOlk6Cqj+FJmgGCdphAiVAKO04Aq+dkAIOtOHumAsNDHry2bQf+5ktfQn9nM2qrz6CttRnxLhtuoUu6cF4RnO4BLFsxE2fIa29fP7rpZladoNsSsNMCtqHh1FEMDwyior4DTe195E0GMTuf14MB1qOXbecij/pmaW97G/Zu30m3q5J9XQMYm1CvZtCUkzUOvYrDumoawknLzu2Ix5ScAlq08ThDK7mnuweNrR1oaGpDWmIGEuPpsmlSmgDpH+lH1ZlSlJ06Df+wGx0V/UjKmYnVCxYgjbrScrYCra3n0NzWjqraWhr2HPAoj3rKv6L8DDwDA6iva8AIASC/YCpOVp5FXmEem8GHzq5W1NG17BkE8vJT8Aef/AR8IVmFfehsqcS55kboA7YHDx5h+5jngmhtqUFlZRnLHEI31aj+7CGsXrXAfKoQQaJRXBYKcvMw3FCKmpMV5kl6aXUdXbVG6p8Xq/Jy0Ft9lnrfiLa2QWzdXw4vWzUljd4E25+IQ3kNc0AdgW+IAxGZ66UXPMCxqLOrEzdtuoHg50R8WjrNSicHqV6cPHwIe2mNDQ8M0aKi90N3XU+3e5ju8V/+hIo1gIbqanz969/EY888h4a2TnjYHh6m7R9oR2FRHi23JDPGycLSay71jXU4ePgAWqg3zS09aO/wYu7MufD3d5qHYMN0p4e6hnDy2Gm0NDbLpmZb66kw81D/YM8IaWDWHVqeoapaPPfUMxxoaBET/EPs42Ee7xZ6S09Xox8ijh5uN60fHvsPHGAHasPRykZkZGbi9huvI8glyDAxI5k+DBxnDnVrfU2djHDE0XgTF07ESJMavwULVyxAZWMfElIKsHQuR63wAGra6YLGp2DO9Dw4fH3Yv2M37r3jXprPlTh+8hTN+HiUVnazo3rwwQ/eRMX2oa2rF4vmFmD50mIcKz2Niop61FM5W6noN1y/nia7A+fOtWPu3AXsEJlmAnZowI+Vy9fB7x+m8jcgKz4Rd264Et6eZhzYv5uK3YaKxnZctWQO8kqm4EhZI6YvvxqLCmlJDLfgTFMXXFNmYxpd2IbKFoQ8fXRt7OjrbGJHOoPm+io0snMMhekmT1uK3Mzp8PQO4YolJchMllXoQBzdc5crjFlZPvg9Xdh3+ARKaxpxih3+jpvXoyjLjq07X8WOQ4dQVdOBM6fbWceFWLpkKrIy01BWUYeTZ+pwtKwSpypOYcWKpXSlE1Fx/Bjaz1WipqUZncE0rNpwA8HJyQGg3FgzxVPS0FBzGmfp+tbXnEUjFX2I4/Si1RtQlJeBZEeQrlocWs61cjDwY9H8OeyUbjS1tbGew7h69Wq6kXl47dWtaO9sR1lVFZKTc7Dp2huRJT2gBRVHE+Jce715eq2BsKJjEC+ePItb77wL6xbOY4cZQU3FGdQ2NbPODRjs70FOWiJKZs9Gxdk6DLKX11IOldW1mLdwIWYuXoQegsC8+bORSEu4ouwAXn31eVTVdeDIkTr0N1fiD+67gZZVJtoJmo1nT6OmshoNXXSFncm4Ye1idNaVookyaSSwHj16CNkZTtxz2/X0SBKIy+zhtGgy0rOQkeTCvh2voon1P1HXhJH4eNyy9gqsJ6DUlJWi9MxZnKH+93jCuGHTJhQXFcJNwZpXZ/yDaKg6iROnTsFHC7DiVB2OHS9HZ0cDPv6xu5Acb0dn81lUnj7G9mhGdXUz28zJwTENsxYvQBmNg4aqSlSWEUCHhjiYDOP6a5YjKSsXJ9neDXW1KD15FKcraxGk5bls+WoUF+QhhaYwmwydQz68ums/utoaEB7x4Hh5A63eGdh01QpMS3di/6GjqGxo4aB2FtW01jz2BMxaMBcdTdVYNKcY0wumIIX5NLd3mvnAuoYqWstH4XcXID65EGtWLeJA5jSelt1GZXoX0Nu6rMuMVrSIKiqrCE5dcCTlEJxmoShb81OydAnzhDUtM9GLsjqX5OX6BDFIO24Q7lA20BLg6HIWubOzOTLRxXLloqSAnSPQj7qOAXo2SSjJSUb8SCfKdu/DoiWr8MvHnkJNnwcLlq+HKz6V1mE2AcaNnhE76loGMD0/EVkJAYJLFyqr2uGhKzW1eBqKS7LIwxAtgnPIy5uG3OwMdHS3oK/bT+WcSR69aG89C5ZO4MhlXDt27T+Mbvo0iZk52DAjE+6kMM6UNsFdsgIzaHTBc45gPIj+lCLkZyejpXoYXY0nsGBmmnFNz9Y0M9thTC/UfBwtJlc20tKz0dcVwJxih5knkY2tp9X2OJoU6KXlZ8Pek+fQQ76z8rKxdFYWUhK86Bvy4kBZLQb77MhMysYVC2gpptBlDzpQ3TJIcGvl4JuAhQumYkZROi0mL04cKcXASB+ypk5BP13E6fNmswygvKwMicF+LJ1RiMZzbQSIc0hNSMS0wqnoohWYSPlMz0kg3FGDyWBHRw/l1I5Zs6bDy8GrhVbbUEcr5hVPpZuXgqPHz6CpswWJaUms+wJMSc+wBrrwIAK2YXawk3j6189h/qzViMudibiMfNy4tATZQc3beVBDi6OilXqUmoOizGQk+D1Iy5mKmuZuWrhBdNISSUtLMyA34nChm52+iFZTknyvkW6crjiN2nY7fHG5mJFnx9LFeeYN6romWpcNdbRGgihZuAYNrf1YODUd3vZqDNMKauoZwBAt1CuuuhIpSSnGSqWKstYhDsTU4RHyXlqOll4PbFn5CHJgXzs1H5luG4a7erDrVAVGaJkXlszA7Gl5tHxoz9E70IJ5zUB3VJ3C6Spa/45keMO01vm7eH4e9VUNH0ArwbOqhl5Qvx9zZ81jlwpgwDeE/GlT0FxXh962Lg7eCVhxxXqcqz6KZfPozrrS6EK202KuMlapw56EObOXIj8/B4lubTfhZ33DOEsP5q//+T+xbul0LJ9J3Y9PR/GcpZibw7L9Xaguq0AVdddGB7yosBh+px3JORloa6rFzIJs5GbRtyY4d3T04jAHmxH2weyMRPad+ejptWHR4kJjqOuxg2r7bqC3FeREcvviNIclt4bXxsRVn6DbRm+TFTd2M/9LBJSGzVoaE6Yi6EVWN0cfs/RFPVxLVhwJJoU+Zq6RSMkUX/NDDp356P+PePHIr59E40gYn/rkp5CeoCdmVCy9gxSy3E+9se6g8pslWwRZzUWRTebNMuLo/sYJxpiOOiyeZXCagvUrMnY4+WZnEg35/LDRZU5Q5TTXyIgBuxSZ7rP4ZG5aamO9A05Dh4eb/Ibp7xkeVIDkInZYDU2NGXnxMOtIaTUEGW53kD9arHClME+6PZKDAUBavrSotFwtSHlZy9aos3LrNfFL98LPzuGwJ5r2UCOrrg5xYtDTZuYr7XFUbjKshz8q30a3P0EToLQe9CK15sLkbgepuboO8FwuuVkjqibkhY/untBLNnkcLWebyiewSrM0LacVB3q7TvOpJgO7h/x6cfDMcWx5ZjPu2XQPZi9dS2CwOoeD5Qf0rpVTc0cMjNMkWRBOlu/XiMiSzNyPFEG/DDJLvXRJcHKptmJOL89qENGgynrEqzIjamCVIuHyRxJXlkpslnUxLa3SIH/VhmahmtqdVpjemXWyrZ2yyJhOYtSzBN7l4Mw/OjPNSnlq6oK6bSeQiletHJBT7zRPlqS3LMvBdrO54WHaRAWbmTPmoTkBG+ts5nnJnuqn1qNsVWiCM4E5aG4PSND8JFsvTD0PcWDT+z1mZTflZgtRH8mP2lZruvWkmeM7/u7L38O9m1bgQ7cspxUr/8lJPRaRL+Zjnn6xXPU1abZEo7N4ple/Uz/Qoys6pewraneFs1wqZxw7D2NEm+VdQW8ryJkF9lJEPxVBiMbq6omrNxhm48qCU1ESmQ6KQRPWim+uKDj2aqfWmfJac1huKkFIoMkQqgvvM7qRnpb96JdK4+OoT2k20d3sDsZh9vSp7OhSZBfz1XhkUZg8xFE5Q7xnrSBgB2KH0YMzNaDfaCuVgrfURy1wZil6VEqG1Del+GpODm4GzPXmu0BE1QmH6WozqlTOG9Bz5AA7ldXMkdrSPRlhWqoKNc9M0fAGB1nDvw4plfqKlj051JF4IZ3zMmI8QUZgY0hhkVM5BAH6BjYbAUy9QVCqscFUXCUzE61RMnJmfQ246V03hokpvYBNqxLxCewMlKcAgSM1XJqJUVdWNnoIwDIIfINUZAeFY2cyyUF5+AJeiknAISLwkoE4Dk4q2ife2Mv9EVFqGs/GxMO+flpLI+hpakFBWjaScwooX/ImMKXcbUQldnEedrYHtUMdjzyrhnoL30leRkmMqi4aCTUy8IcC5B8tPbJWjpiUrLeRkW4pI1LY40Gcm0DPtuVtk4+elJt7zMeIlL96vU8YkqQbHBzAdjQPWaIZKU+SoNEnvTCdPxJInvT01U/lleup3MN+L+vITDXAsN9oIDYMmMHKKl9Zq0/pQYG19sMCF4t5QQuTMMSSBNua+qz4am4X+1GI/VDyHIr0Jc0395P1CnoWRdkO5KexL6hY6mOIoCjeNOCa0lU22fdTCEongLW2RpMestY2wSy5YrowR2itB7dxEAmpX7HXmUHoXUJvuyU3RtFsDfZHVYGkq2iIFToWc+yuaHwM68wia5RVqBk3VAU2RBRMpNb6qzjjU0Vzse5bh0KtnF5HYwlGY0VTmTJj0xGBAgRQh0ZgkgDZWIOKFyQkEYTUCf3sJhzbTR7S6cRI/mLJgBwPhWuXCPU1L0HCyzySpdTMT3MdXv6qX4dpVcTb1WmYo3k1g4U60tDHtAmMI4tQ+9HJclWBus1xwHTIKESEmU5PCTU/aqNVIZAP0GWLI0gEmMBtwFby0us8yoNKT+tNNo4xJQxYWvkriDFoLA3DRWZtQlrG15NyAbtPMmE8RY2jlW6P4wBGXk1ziOjiqUy9cCxZKVs7QVu3xYKxsCnzMIE5SH41/BlIYL4qO0ywjiPyao2lTe1grEDeM5atIuiCFC3PMMKDPEouWn8rrdET3VESfyRZioYIcBqwLTDir2SrNlYYSetzo4lsrLch3o/qq6WT+ieDwIqnv5amRg+R8h47HbuIUjReTPho/Mg9K+PojyGd65A1PnplbkZ5tX5EUXFNpLEoEqSVzuptgmCdWdB/geTvOF1GkIslFTG+ytFC37ggYtkcSyUx645EbanRbyPaifFjy9CVdW98jpE4BjysU0UQOGldZzw7c6BvAM09g0ifMgWJ7FtOva6AIXZgj1kI77Wloyg3HYkcJY2pHylAfVsVkQWhTq1+Y7lDBBsBpd+H3mAC2kNu5KYCfec6iEj9KC7Khae7F9WVdRhxpsKWno2CnHTkpcZbIKLOLmJe6oKEIdCTZ+ZButjxxoJLYDztXKFCfXJHjO4SaBhHr3AL9AS+xlOT1GXtCWL0ozBhu8pigf4gHSBGDNAli3OmjNZPJElEUgqXLDI8+lh/P8VKUKObFVAe9Imt/e4Um7wzXjyvbLSU/OKJ1oqy1mHYNXMN1pWeMMoysWvNrgoi4Cq9SJeSi8E+Zc04YTfv89SAPy1J/3AQ7d0eFBalmwJ8vmHYaYpqxY42jpRNZVWLZ7JyTUa8UuNFSF5NLMXeM2BHELR01iJL32K07kIoM0pKe6k4saT40RaQFEZbYDxNzHKMxdF7CooNnkiK9ttwdjnJ6Mblp9dX97cXQjT2+FTRfH67vKJ0sVRjY+t4unCo5mDCdA26urrQfK4F/cN+4zpoJjZAtOoZ8OKFl17FKy9vRnhoEA5aBZpA1xSMhz1MwKLOZ4+jtcA+Y7xMXruEeHH9zKgV23a+hj17yk23H+gYQtvZSqEdtmzfgu/+8jHs3H8ElcfL0N3YjDj5wzLf2Lmk2trtxIBUSIvwmR9/NQ1gcEAaK1+SrpW67wjrod1y7QSHMPnXUGjSypQUo8bP4bWMNROm9PqjTir3ih3YlaiX+82ckChOLj3vKBaLNIdmFgy6ECQ0nRHHvJW9XsRW3bVrBh0uE8XDvAy0cESRpasw5aFXYMLaEsRYTg7iL9uBAKeyNU9krC3+eJSGh0DMR179RDS97qDJQonJK8ZMFbx4+aUX8cRTzzBfVXKQgwJhlXkNM7osZQ/zVE2tQ+VKOMY+M9dRqIolA2qGR+teLMCJrNx+G/rtYlvxVb6BeQW8MVLU6PF7SO+QJfcepRjJadBV/7D7A/D2DqBjJAB3bo6mttDZ3ILmxmq43Ha8snMXMnPy8el774aTrs053qvtI+AlpqO4uATZ8R7YPK1o7xyCJ5SC5s4RJCanYuF0oLvlGL5x/y54klbis5/8CHLsjDtcTWurDd//1bPotmXhox/7DBLoqk1JsiM7y43h/iGcbe5EXz87KV28FcunId49iO7+ATQ2dmGI4S7aL6tml5jOrqe1Zwd96OvrwayiAmSmpyOJFkwgMEzrLIzWhi60NuvduhCKZkxHTn6asWJd5qEO605QaO8coDXo4W8bATwd+bmzUZJvhyPUZ3Z1qW7uQEd/AClpeZhJkzQvM57oE0BFdS2GhlgnuwPxaWlIzEhDflYSBnrbUVHXhp6hIAqTHJhbkA17eiGq2gnW3l7+b4bPb0PR9PkEKz+amxrhTM1EQUkJMgjCLl8YZypr0T3oYZkJxvJNTU1C/0AvWlvb4SCQt7T2Ijk5A9OnpGGI+f3Tl7+G+KQM/OPffx75U9LRfa4VDc1dGLanI2fGQkzLsRurT8AkA1hb9Usd9DK5yEDdWwIFJr6kJXcZ6RJFq5Yx6v86UvLfIffj6K3tQvK/nKSDxiOJtKZe/JU111R1Fi9v3YaMvAL09/bjpz/6EQbYuWuqq3HixGFMyUvDmkXL0Fxei5/98udoH2zFqfJTaGlpxqxpmThzbDd+89BP2Hk7cbKmHy8cqEeOlrb11eP5rQfQHXBh0ZIFqD5bhj07NyMzMwVbdu9DS98wihYsw8PPvERgAmZlpxJU92HHkVNopWV39vgh9HU3IIuu8nPbjmHnkToMt9WiasdjGGluRMmcpXjg10/iyT170dvRh5LsAkzNzyaI6QGLF1VVp/DYb55H+dk2NHb04sDx48ifVmSAw6kXtEPD6Ojpx4OPPYkdO7ahi/VpqqlFc3UVCtMTaP704OXNz+L0mdM41z2CI6U1GGGdFkx14WBZOZ7eehh9LTWoObYFz7+2HX2OdCQkJuHlZ59GbUU5LdcmHN7zMrx62pwyDT9+5FVUHt1J06qSctmDV47UoqezE02VJ3HwyFEEHMnIKSnAK/tKsfmpB+AaqCHYVaG+x4firHT01pbjS//6TbTGpaC2qgx1x7ciQGRqHQ7h5VeeR2ikA7Nnz0ZbWx82v/QyWpqb0NDQg4MHz2DWjNlITpLFFjJWrsDNWPKWKlid/JK9PEZ5XkcXu/cO0Fss+nfM/TiS7TpJb4JktcmR0a9IDWqeyhH5vEPDtAZoJdECeejnP0FaajI+/IEPY9PGG1BE4HEGetA7MIgfPvI8ShaswPs/8D7ccuMm1FXU4PixUnTzXmd7A65btxT33nsf0mgJPf3cVuTnTMGihfOxbOUiTJuZi86hDvR6R2ixzMOs+UuwdMUKzJgzF920hhoJNsdrG3Cmtg5Lly7Bxz70fvzhxz6EorxcnKutR+e5dlyz7hp84mMfwTVXr8Xjjz2GMIGtj1aoluPdd889mDt7pvXwhK7d0PAQdmzdaSbT38+8bnv/+zBgc+Kpza/QitL2C5SEjW4gXfDa9g6ChZt1/gg+/r5baUk1Yc+Ozdi97xha2npw25134PZ77sbcZUtwsuw0yk6cMrvLLFq2Gh/98L245ZoVGKT8Wgguxw4fxxAtwnvvvBkf/tj7MX/JLJRVnUBz1wCOnWqlVZqEe2/biPUbrsLuYyeRU1iAj330/SgsyMKJk4dQ09yL7/7sR7hirWRwG1asXYl9pyrN1kC+ER9OV1Zj4arV+BjLnUsrTjui5MyYj5JZc7F4zixM4/meU81wZBThrns/gI+9707Y+8/hqUd+TrD1GpdejxWiiPZ66+Zi9k6UYiHhjcSfpN+GJkHuTZJUMXpEyWxgqAk2jup6AWOwpwVlxw/gvrvvQH52FubNnIn5JYVIc4dR1dCIQ9WdKJq/Bt4RJ7KSpsLlT8Xp0noCRCJmL16GrBkzUVSYgdy0VPR3d5j3xpxaVZKQbNY86pUM7fNmZ0d3uFNoUeUiLcFBUPEjSACq7h2i2xjCwmn5mJKTgkK6b6s2XIfFM+fg3mvXIMlzDv/+1a/h33/8FOoHbRgMhpGW6MaKWcWYNiWTLjSNL81fsW4jHhuaa3uwfOFizJmZg7zCBCxYtQrHT51Gf08v3Ua6jv5h9vUwkrKysPbqG5CdMx1TCnOxdOEUDHtpZc67Atff+TEM+Gz407/8HL79/W+hubUP5WU9tOjI56zpSMnNwqy587GIoJ0Zn4SrFs/HvTdfjX5PP/7g83+F/37gQZRXnyXAhOFypmHWnEVIKCzEvPlz6Yovwtx5s5CakWJ2wBnxtKH86DakYgBTi6aiXZN0aRlmI4Cqzm50hJ0onlmMKxeWYGp6CvIyclkNL+WbhOT4NKS4szHodaOibZjAtxT502ciqyANt6+fgaqTOzE4pBfYCXLMNi5ixZlpCx4G+Ea1I3p+qUMksIueT9LbQZMg9yZJgtPkv36lkrLo9D6TXrKN00Gl16Lm4eFBuLW43RlGPF3IXLqWeket3xNCeXMfvvK17+Jv/ur/4e+/+P9QfqoKuVlTEGfeO2JkG13UAOgKsgMF9J6S9Y6aJtj19ob2OROwaoNPm51p1MG8jE9g0+cdh0NhJCQRELXFkkj9h6B4rr4O//O9/8bXvvk1lMybib/4uy/osSV51LtpIRDbzIu7mmty0pQTN5qYD5CXpETe5T3NNSYlEVyZaZDWpLZFUu8OBPTStwt2F+PpES6BMz6sXXb9OFZRga9+9d/wlb/7IjasW4PP//VfEQinYITuoXaDtusBC/OIS05HCsE2PuhBRXklvvz17+Nf/vU/jeX5l5//PAqmTmV+2jjIiXinXh53w+ZwIyktzWwM4XLGIYFVTnAGCVq9qKuqwle+/O9mR5KvfOXfUFV5BkmZmfDFJ3JwcLDqI0jgiKH39ALMVduEaZ+4BAmUqBV2JMBBwPWZJxNBZKYlMVYYPp9emaAwmI5/IxQFLAlboW/miDwYUBYi/b5jB3nX7xugaLTY5KI3mPwdI0l0kt4EGV2gzuvXUn3r0CPIESJCyOZAcno2klMz0NjcxBte9A13or65kfdojSVnoqhoOr75H/+Bxx55CPc/+CN8/kufw8oVi5DqsBNo2DTsuMJN7eAh1dE7a0ECm928qcxyQ+xcBDxjQ9BNtIW0CoJWJBHIrVcpRgbNdu6DHusJrrIMDvSguuYs8mYvwVd//gQ+9IcfRnD4DOx+8hgahJPWot3hNO/UapWA9o6z8yKeqGePD6GptcU81tRreZ11DXS/tfVVkgEDOBPIj4NWWR/a286Zd8+0KUxv6wiG6ILX1Z/EHdctxxMPfQ9f+uxnzEv/AwPdyM4mpMfHYUgfrQg54Bv0oL+3FUN0C3cdO4NVt/4xHrj/SfzNH38azsFBk5fZ106rD7Q6Rvu0xSVi0M8w8q63obUDb4io7E7Mwtwl6/Hd//ohfvHgQ3jy5z/HX/3Jp+mKzmZTCYwkFzs8AT8CTjuG9QKtJtnCHtjCfQS6EcTrlZX+NgK7n+EunG32ISm9GOmpWRE40qsgUXiyVklY78gplCApoJxwhPTLu9Id/UaP2GtDyuK8FI39dh+xXFyYrJpZdY6eT7x+t5B4mqTfgkabXieRi+ipeRudVouXoOChReJIzMT1t96Dhx9/CvuOHMW2/ftwsKwS7QPaaywfN6+bg2d//SOUlh7C9gO78NyOLegZ7Ic+Fed20RQhmMgDdtj1cqtezrUhlZZZZ3MDXWFacQE9waOlRSR0EHHtWtPAjqvvMSTyd/HUKUgn4O07uA/HT1dg6559+OEDD5nlZ9rA4OSpchw6fARPP/k0RvQO3vAA9PEXmXAuWo96YVQvE2uVgINYsnTlEhwrPYGt2/bi4L4jaDpbhlVLFpCnFGoSLTnG1bzkUG8nDu7dhr1792J/aQVONg5iycrVmJrtRkdrLapKS3HiyAnseuU1tHU0I6OIlltmPI4eOoDTx8vw2rb9OF5aabbwzplShPqmDpwpPYPSHXuw+7XdaKxvxfBAH3n0Q3vbwScZxJsdm401S+tRctGxesVyTM3Pw3PPvIja0rPY8uKrOLRjJ4Z7eli/EK0+J2VGwGFCH1tQ27snMJ8kgndtVyettR4smJqAmtMHsG/fThw5XIoXdh/HFRs20q0FwbiTbnE/ZW6tQdGLR/oXS5qui0zZjeqMKHqq3+ghionyBui3i31pervz+93T5NPVN0FGX6O6wAv2bROm8TyOAOMhgITo4hTPX4J5i5eip68fBw4fRh8tkMLimViwZBmWzC7G0pIMnGsqw57D+9HYM4JVG27CkgUzaVX10yoMY/qyVfAFE9A7FEKKcwBrls+GPy4ZpyubkJmajOz0ZCTRFdYDggGPB6kZ2SgomoXOjj4sm1GM1TOLCUAuHD91DIdOlKGqsQ1Xb1iPhQvmoru7E6VHDqK2vBobNtxJ6zINS1ddSaxyIS8vDznZuXASIM1aZLP6wIZpRcWsmx/79x9CS+c5LFk+D9ddcw2SXAm0qrS8jhab18uySpFIy6+1uRblDe2YtWo9rr/2SpRkJ6CyjtbZqUacrmnF4gULkZ+XgrkLZ2LRkqWoOnXa2p6pawDurBmYvvAqXHPlanRVH8epE4fR2NaOmXPn0F2djllz15C3eCyfPxVTchLMcrM+upkLphcgPd6BQbrw2uh01eKFWD53Bo4dPYGDJyrMNz9WXrEaixbOo8s7gsHBAaxatRKJ9jA8A/2wxWvucjYy8/JxuOwU0uiarlk6B0OePuw/TnCurMM1N2zCxuuv4FjQhYqKk3TR/cjMpFWndwdjKIprURoHdqKJEWJIty5yO4beWKw3TtH83jgH73aafE/uzZKkpoN6IJAzQtRrBBKnX1sVOqGPYmkzTC2j9LHzO2xBOOgSaeYnwT9Ab5QWhIduLF20obgsuJLcSGHy+EAvzRG6Ru4k+MOJoLcJF8EzPsGDsN+JHo+DaZ3sVLLevGbhuVZb6Lup2nFkkGWmMI0Wb5MZ9NE61Dc5/bZEZKc4EE9XzO8Zpusr2zOZrnMCO7zYp2UU9lkuq77JQV6CdPnskVX6AVYmHHJiaIjuoDNkdvxNcCaaTXMdrkHG70JT2yC+/8CTWDBvJm696XoMhdPgSIhHgXwGbytrnohmj4tusN1spOC0e9DZWYOjB09g0fyVyMvOQ0NTK371/DZccc1NuOWqGXBo7zVvgAabG4kEbe0WDEeqeQk4mbJ16qtl5LU3EMfBQIvdKQ9aeFqr6yAAueMT4fUEzDZDrsQEs15Z+++Fg0EMUw4ZySl6hZiW8zAtcBeCrLveUR4YGkK6zYfUBDvB0MO60LqmW5ya7IJWWNvQayxgpyOJ1m6yNMA4eqJLQYT0RceF6FLpL53DW6VLc/D7QpMg92YpVmqxuhATrjmp6KUVhb0yMt+hxc1m/ZaZu3HyjtlTBU4m0A6uSqCpde1KrBbSAwFrBxdZC7yp+yZzrTvV809lR/jUsiiea0WAU6WbOHFmFYFWUGidq8q2vqwfmeCOkk7NpXIQCPBSUVRulNfIelC9F6Z9/7UM3ZQR1pZQfWht8+EXT2zHkiVzcc0GWVsWWMbziIvTPh4JGKFrKFdYdY0LDmOovQa/euollFa3Ic6dQFBMxOx5i3DfPXcQgplWPIkPxhfbhFpeEMDIjm7JZQ3zPMQLKrR5MdfMxCiaFdWQNgENsmDVTi6lhhvGEn7zV9LnfQ4UWnquZJrrdHDw0Byb/GA/3XhNG6g9jFtsoNCaX9OmryIVZfY3UMYXIeUfpdjzKCmfCNsXIKU6X8q3iy7Nwe8LTYLcW6GLSk43re5kyKxf1bUOkR4mELBi8+C5LkctQ5KALU6mUlhzR0wzIb75en2c38zjmV7OPAWO6rl6GqsObDJkkFkmxkvTHYUKsXnpRpQMr7yvH7OWS3mTb7qsJi8TxGuTeRTktExsEIFgMrqHaKHF2xBPdHIQFLWdvFnwRAsrQDBgjUwWBghoCWkZ1UB3L5qH/Gb7eHdiIi26LLOLMe0uA+uGaYK/1rL6yYNgSA8fREEB0ShP/DWAw8wjojYs8wiHvEwVopg06U+e4gjR5F3VkBz1kWxNOVj7vplKGYtTV8rOfHBcZeoWrwVxIonelE/Sj1aSaReOSNB5SVlMpNgwpb1Yeiv2+XJ5q6Q8o6VfnIPfF5oEubdCF5UcNT0qWqMrPNfj2FiQk1U0IQ9ZR7IA9XEZYgLTEGlsdFPDdPHiXKOpzS4SKoKdKWC+mcAAgZK6Py0uLbGywEq/2uYnnrfp5jJEVt5oueLJgJV6sRhVpgrjtQozj3f5q/yjE0ommvjSRaQOetdFmwjQkvQRPMSXMNHACdOaZ4lMr62BZDMJpsxyd5NW2WgbggA9fe0CYi28FyAJriyA1X3Vh3Ij8MjyEmiaEgQ+EUvKMGOsY8sCVvbKzLCqhxSqG0kv8YbIoFmzS9IOJHqNTtavg+XpvgYL84RZEfhHr9SYl6MjsqBzrwteynq0ylfcNwtyUdI9pb1YeivWxXIRXer+xUgSuzgHvy9k2n6S3iRdSAdMeERN2Rmsc4laHUEwo18TafTH+tUcmTphrHJaVkcEJsxhdVOLhE96hcGgSiQzEzMa2USwtvqx7pFMePTQPeVIABm1Ni2yXmglWUnH0oxS7AXr5dD3G7QLrfZti3YTcmN4UFy5h+JWy/flfrMMFWHwgaBjto6i5RckvOjVlUgOFo/iUDkzR11EWIsl2WGxKm0wW0eErPssjLISX2MStTIz0Q1D1rXSW2cknUfyUispXNapJS/VxZKwFWU01ZuisXzeKkXl8WaO9w5NWnKXk2SBiKIaazp6lNgtJHkeo6HGrIl2Eculs86Vj9WNrOsILkQvxiLGEANMxrqhw8wCmqDR8gyNJZQqjCbRzzh+J1I0nZWjAZ4ICdQMGEWSx+aiaFHwFNTIuJKxaNH5ORQpheYgo3etGAJlkXVl7fAxRrK8onxGYkT4VEbiYuyeBVPiyZKyYFgWYbQs3YsuvrdIeURORbocHdAsir09kWJzOh+Nz+l8pBwulst7C6jeCk2C3GUio4ITRGvtrDpGuh/taKLRTRZJCpXFIFU/n7JbMXk/al6IoqdWsvPQWFkGhCLnUbL4GaPzZnFeUrqx2BZcCOTOk0O0gMgtzafp9ZSJ3MTyESULtCxSbCvFWODF9m+zaGyQUDrLErNyiOanc6suPCLtYUmF15foKuet75ukCAcXIYvTC9MkyEVpUhKXiWIV9GIKG713vvsXS2fRee5evB9G6PzA+eZpYm4X4XzCrYvEfAP0hipLen0p1lX0r/UbzW18TOv+xLBJ+v2hSZC7jKSOcenOEY11vpiXSD2xj1+yz1+onDGKxrhEya+jN5vuzaZ6Y/T6vM8fEv19/d1J+v2nSXf1HaSJon69ezV235xdxP0xo9PFWu5N9NVL8Xc5yHyoRY9hJ5A4uVT13hp3Fy/Bmpm7/PW/EF26fpeS0KT9EqV3QBJjjXExlbp4g52ffvsUUXrzKd8MvdHS3lmu3i0UW+t3WgIqL/b4/aLzczx+XnWSLglyb1VcY+nHi37iefQ6NvzidKGYsbldnN54WW8HXby0qHSssduaHr/U8W6idxs/b4Rez/PEkHejpKMU5et8PI8L1Wn0uOz0jhTyW9NF3VXdsLrdhaJc2KCOphiN8boA0dhTuQvndBGKMDjGp0hPzKwQ6/11nUdjvKlS3hSpRJEpMVJ8VNSj9+gOjnHE0MhLqOb1BdLFvEUTI5rR+egNVDXC1ijpFYnY64u5q0obTa/DurZCRkfOSAT9RMnkGA3ghflWr+31U/tWfhcmxR6f4s3TmBbGlqpaSHuitbL+vn2ljpFVgmhMCpcuJarnIsWOnpP0xD1OL8OM0cT8Yu+djy5dvpWHJRdRbArrzhhdjJPLTxcEOYlQj+zNa6taxChGqfTRRhez2srmQqQ4ysOoii5MgNWJAzzMGkrWVysDlbvePI/mpjf+JYrIqp3zk9hWnszLrBCIhmkfW/NSqxN+Hvqau3bpNTmGzWIgxTSXF+nD5ydTnnV6KYq+VqvFW+ZExZt/VjZ6l0xZmRdeFaBI5pN8DvgpV+vehemtglyUj9F8GN/6eDZPeW29CDvWtSeSvoqvOmrVglYF6Jus+n6rhhVHOLKSQAmVL3+il1Y7RQ6m0TdWzS4numMURje06ZFiS3qxpRtNMWeRrN88qRj9MBMVO8oXdUetNPqCdZz1gvaYJBjTgIgSvEWKZKnvl6lE/ZP8R4u6GOn1GLMyRbwoMhOpn5pVNOJb/YynRs/0kSGzkI3xdKZSrPNYGntFR2km3h1PiqHo6sfmVZywPtPIFKazq79p2ZypDUkSjlYqGvbO0UVLtBRAwMQLMaw3xSlEG3+t1yQvTaNyExlLwXo7yQg6cjNa/djrKJRemHRfOQnE9Bs9SIZhAZooUkUDgFbXMXSp7N8iKftxRUQuxsJiYpgf8WmNvkbcYxEvG421oFXYmB1hdXOrncYkO/5aSj6Wg8hS/PFhIqWJHqM0Gk0de0wXLBKYqaOopFiKcvD2kslxlEGr844G8L8llwjD1s2x37eBlLNaP0Ykb4CUQqtnIvptGGJCgRx/daUlgvoYZezgKoq20sWOS5MpIXI6jntSbGki3ZsY552jqITOQ1I0L0dsbeFjreMzTApAVClTsQuTVS1LuLK0LLKutY7cEvOYxWJyi8rFrPGMFdJ5yBTAeIqrXTui1qYZ/bXzhQCZpyYilcGMeAyI08aSSneJ/M9HzOKNplKpOkYpJq3CZbCM1ln3ePhtWjlpg5MWXRSiLxeJh6gIzLIrknjSqbViwWJt4hFtGfFuupgZuGiJ8VcLuhQmbbFiWWTKihyjxAvlZWUcuTMaQUOoSpioY+NyeFtIOZpcY07UBkY/jVz4a6wj1Ux6xDB5CkZH3zyNr7Z0lVAaEZm5Z52ehyJ3Yvi1SHxSXvxR/5JlHTZf5xCf6mHiX31DvxYQTiSjk+aIWJQXIQsRNBBJVrHaGj1TuVEZqazoIVL4WIrLTZeoS7TBpXRkylhDb5Qs5Vc6k0olaXdb1lPX0erLnXSwU1uRLNKOraa8i5DSy1C2MlajkYwCRqrEUyd1UW6TmkMuoI/3jC2naFENM2TlNsaVRaMcRE4U441SlDNDuuBhtgLiqcJlHRhVUoC5pvoRrCXtEJXRGgQuI41WTrWOcqpAHZcuW51BsjVf6WKn1yJ8J08VZtou2mNJyn10IIuQ7qqU2JLMJiomxM2/rsh5LJ2/c74pislmlK9I+bIsJRO1hhkcI1XRj9pFjrq13vetkFxUgQRpTFSkSH+5BBmNFWvRehijgz4Nry05au2vtkEQeFJuvK98le7C+cfUaVz/iCUrXNsTxGGEeZmtIKyUps11NspU5HciKfzCXLzdFKt340jorI+pmM+YkB9bSHNdwzxhlSIaq+m8ix3BIGEoPMJjECMhPzz2OPhUojGjlSnPtZuF4EPWWIQbfSeAGZhz5RMIBMyHUKLXOpciWpvwcBRhIwZ5REVnwEi7VZqyyAsVdYiCH2Jcn9JY22PEkFIEEAh6zUT46+QfrQ9v+APkQwsuL0KKqzSagzQUKSugJUyRTqP5iiAVSR+ksVTdRyOzg6IJwKsoOiLZRI+JpO+8jougcqJhuj8hkeQYpbDkrfknRpGY9OEbnSiNeIvusKRDc6PRa/1Er21mUOGJ2QKK5+Rd34TQFkYabAKRSR5FCwcoP79VnqQSYhtaDjHPmYW2OVLHsQo1pZi/ohDlFmJeZqjlbemV+JxYv4nXUYqtt2nfCOnMJImk0/ygSOVqJ5HRmCxP5NWuULyrKyvZmK7HUqyu6tB1NCxKyiWsjVGtC0tV1C8oQ8uOtPJUep9PFlmULKmYrsLko1cUor7LIQNBmyOYvQT9DoT97Bv+AKsgx5VV4THCWx5tejdKClVilqcM9WvCLdnFys80t/nDwkNDhoEg4yu7MPuPtt/XjjCWSAi6rFhU5oFAMJKf+nRs+ZeXjKzGU7R61pkiOAVEQVYo0IfauipUdw9hMMLjhSwu00xUdG3oGBhpR1tPJ6q7fMR+kR8Os02ORYH2TvSfa0TIM8ByrAa1RbaSVj5xdgecTnYkbefDEHOuFqXwVDqzRceAH142ZntXK/oHuihfNsJAN8qOHMWJ8iq0tHSQD/HCyNKtsXaLEC1KgvfEDwSH9M2DoBpOakkF0rayrJdobKKWXMUounRAYGa+w8pqSnwqMs7s00OKrKlUEjuDFF97qmkPpNZz5zA4aJKZj8/ongDFxIkhlaavghnEiR7K0JxbcfS0NBD0U0yRTYEIPuazibpnHhppnGfdRjh4sZ6tnV1mR91oxWTPhMU8L0Ps6PqOhK6DlIe1LpRjuSeI5pYeU5E448ZZhVv8jWmHjXw5WH8BnnmKq4qzBHUq5eTAMHMbJht+VJztIx8mmUVKx/TKS7Jwst7myfSoUKxSRq9Z5zD1Q20i4HLoAxWGCJSRfFSmn7qmqQslE4hG96dTBIn2VPUg+qXoNjLDesfRuPRIppQb+6lJFz2iPOhX+qlBQ2JUqK719TZzrTYyDwgC8A0P4XR5LaqbRtDRN4yzNZXmQ0VGryPAovQOlysCNLrSQSJbdrO9Fa95rh+7jF+bwKcV3oF+9PQxrZOycjnIo+aufZbDyrq4GR7tBtriSsegbxBVdfUYZCc1zch4+n6IjTqvAVnHGJFP9rERIuahoyNGHjazh5fFp83mNPprDU3SQVl9Pkvn2bfH2uTyU6Q7nJ/UKDLcECDABYcx0FSLr/zHN/HzJ1+E16RkBHFtKFYAkedR5k12L5y0ALdsfQ2/enqzmSWQzRVWp2as4OAwXn7xVfzyFw9SYL26aVEkW/Ggw7qQsALweNWQvGZL6NYz207g2Vd2wOsN4FxjLdpa6zDMBnvq1VfwD1/7Jl56cSvKj56Et6MNyfrWnkYhkvqppYjqUcrTgmDlaQ10tBhVhxjgCykRgSDk02f/oqEKCpmGtoh11xejNFpRLMI23ZKDaiwoiYV5aGdbDXLMiuFUwUEfampr0NvaJs0zYKL7SqvfWFKYFNtUQJaGIqi3qT0EbPr6FLVMnTq6osCAOJU2HLA+ijyk9FLKuEGca6jHL371HFrbu3kt+dDdISK5lEjWAdHFfB2LWQkMBHoKP37yDJ585lUMDrFlZRmyjmLVsGb+xpDalixKhl7JkJfWk3HGk+yHOlB3thoPP7OZYGJSRPKxfsdI7WV1J4ss4DJfDBQZJNVW7dRC8uqR5WCssbFcqIGUhXSWYQQdgb+VK4lBw6zO//z4IRw7dtLi2x4wfGjwEsgZa1WViSG1ucmZ9dMAJzn5OfCKxu2QIh3iUXH6FH7xyKPmQ0cP/foxPPDQA5bFTEbkNOuTluLYAmoyQdARSBqglLzieMj74KUZMxQZHgqiEy+/vBkv7TyELhYvrkL8awtxMKOx4owA4zB/hnkyYv55Ud1Yj+//5Cdoau8yddUgKt2RDol9HRoDpT/sAOZobm7Gvfd9EPUNNFAMqb6WJA075g/1SbtXa/t/1kNqyqpEyES4rHSBD9lYSmNQ14wWFA6Fum3zi/jF87tQsOBKXLFsIVKl+Ipp2jrKrC6iDcqmYgeKC/XjaHkrOgPpWLt8JtIo0M7ObhwrLUdfVzcqy05ieKgHV2+4krk4UF13DuVnz6K7txsp8XYkOMPo7O5HeW0bOtra0Xi2HGHKLDUpE2VNHnzn/gcw3NeBVQtnIj3FgbS0eDS2duLBXz+JzIwUfOyDd2Ha1CIkMb4+sBLw9OL4iVMElFb0MZ1b3xx1paKxfQT1NbXM/ywtwl7Ep+fDTrfX09aC2oZGVDe3wM1RNSUliQ3uN0rsJZDUNjSjulJ1aUecI4GjssCSINLXSasjBJszZD6uXNfYxFE9GfawC7U11agsL0V9UxtdIzvSE+0EFHYOdzLiM/KYOg4N1eU4W3WWI/Kg+eBxQrzGYYs0l2ljmwzQ7CuvbUQNeQ57veZ7BnGOeAwMDLITlaKxoZ3gb2e97eTFj4amJnT2e1l+PTp4nsTRX8r7yPNb8fTLu7F8yTxkuEMY7O1FY+M5WpaNSEtOIIh5cPxUORpqzsLf38W6A4PDHjz48BMoLavA3BmFKMhKQE9vP85UnaM11kiFjkeGvoLN9m5pacHps3W0FBrgI+ikZaSbzqPhUO6VaVDmuW3nYWRMm4tFc/KN1WHz92Owux693d3o6BpCeVUNuvsGzEew3TLumehsUysqT5eh91wd82YvTEgn4IXR1FSPdg563RycMzKz0ecJoOJMOWqryuEZGaJME9merFvXMCrYfk1NDcTpOCTGpxgr57mXtmHZotkoyUtDc2srTpWXo5nt1UGvIC05hfK0o4vmUkVVNetcjR62RXqGPmhjp97L6iUYhG0YHgmirqaK7XGCOj0ImysZyay0MzCInPQUU/cTFWdwxQ03YeGsOewvXvTSqpa8muoa0cOys3LzzbyyAAAYyyoAALS0SURBVE1TAjb5+OR1sLsTZypPofJsG4Y9NuS4PGg9exTfe/AZAlwaFsybT1w7h256OLU1DbTi3EiKz0AT9fn0mVLqfz+c7hS4qDc9PV3YuWsH1q9bi6SUNDQ0tOAM5XqusYb45ENaUoL55GNHrwfNtadRX3ECff50/PRXW/GZT30AOUk+dHV0UU611McGxk9DfJIdfpsPPd1tqDxVxnLb4PO7kZiYSCvTAAcp+nt56DwgZxWov9RBy+XweXDm6CGUlZ1Ct9eNvOmLceXy+SCeGCS0LCEKnqivEUsDlZBaoz7CtJk5XpRVdqInmIE1C6Yj0CGr4UmUVbehjZ2o7OhuKq0LV63fgFNnKvFzglP38DDKqXi+7lrMLkzB/pMN+NrPnkcCrYz2qiPYdbQCtoLlaCQAvLT5acRzBJtbnIey0sNGgUeopS+/so0g1YIFxYnYe7IS/tTpiI93YMsLj+HE8VPo7fehovwoOR9COLUEj718EpXH9yDcfQZb9p1C40AK5uTkYOsvf4CDR46hx2/DlKn5yExXx2UaWriHT1Xisee3wNN1Do2nDuPFXSdxttfJDmjH6YOvID/PicQUPy2kVjy/eTtcSQVo7vBix9bN6GypJMi14zDrUpgcRkZcD57ctg8dziw0N1Tj+I6X0N7RidLyGnRydJ01YzYbRTLmj48ueV8znn9tJ14trcFAZwdqjx5EXHwaQil5+PUjD6Gm7DhaW7w4efIcSnLd7IBD+NZ3f4QdJ5vgGulB+Y4n0dzvga14GR5/ZRfKyk9j6bwStmsYv6F1UVlVy8F6EKkJcXhp+z6UcVAYbj+HqoPbzPyi35mArVt3oL25CSvmzTT6sPmVF3CSnae9fYh1PIJZU9MQ9tTh+T27sZ+DVG1zJ3Zt243Fi+YgLcVlWS60YuVqekZ8eOL5zbjpxus5WCWZHXoRbkXdnl/jgft/gtZeL+pbB9ipG5ESHkJBrgulFXV4fOthDLdUY6TuGNvtOOKnr0B7bx8e++X96K87jYzQINLyi/HMrmM4efwowbAWp8pOIJFAlZY6FY8++iKOHtgJX38TTp04g+TUQuSS71deexXz58+GmwPPlle3oIEDST/b4fiBIxgZGma8NLy2fS91uw6NXT3Yc/Q40tKzUZCXw4FsiHUaojUdh/0HSnFk7zb0ddbhINuqtsOPedPzMdJyGlWHXobL34lgZiFePNWCksI8ZHi78CJ199DJavh7e3Bo2ysYoS+aM2cmrX+6/ZS9j+5g54gDjzzyIFprTlCnhrGPfSQtVVMIrXj8pb0YjkvFyjl5OLXrGew+cBQN7IrJmSXUpX48/eufwNdF/avrRHWDl3paQM9jAIf2b8G6K5egpqEVL756AD0dzWg5ewRnDm/H/JlT4bOnY8uhKuzdsZmDQwP2lXVi+6FGfPZj98HdU4cnn3sZR6o4KLU24PiezSiaPQ2dHHx3vrYFrdXVqK9vxf4jZZhWXISszFQ2vsjCnMtFUZPrdaQnJzbIBI1Dp8eNI8cqUJw/BbOLp9MqSKTy8b9sWo1a9LEFcJr7Eck9M98/1n0z/8Bw3vOODJtHBbvYMTvbe3Dv+z6ITbfchLyCPDZaPEdC4Ps/fQiz587CPfd+AMtXrMPJY0fRRkXtpFt7qLoTS9esw+23bMQwTfk9pZWYMT8P8+bOw6KFCzB9Rgm6BzzoHPBh2sw5mDtvFpbOL8LCmRl0G4bRTQOrtpVKWnoSt956M+65+w7cfNP1bOBs1FSeRse5emy6fj3uuuc2LFh1JZ54+SA6Ovsx1N6MKanJuJ4gnJefT8Nfr6HQMejqwqG9+5GVU4B77rwDd2/aiBZaP3WNnbRyvBigxRMX7OfIO0RLdQjV9e10pbtwbP9e5GWm4d4778R9d96NAOPWlJVyLBigcrWgomMIz7Pz5OYX4G66Arfc+X5MnT7LDCBSB8shtLOzdmLbjr1YvfYq3H3vvdi4cSPiM3Pxwt5jOHr6LO664068/773M4ENO7e9APYq1NEtdaZOwQ3XrMP1q2dRFqVo9iZj2YabkT8lB4sWLYDXT4uvsZnnS3DT9RvQWleOtqYa3LDxenzoIx/ENFptR04eRVpmOi2/EqxYkI+Fixdi68FynKO8btm0AR+/80bMTHXjx9/5Fqpqa1FBy3HZyrV43/s/gGs3rrfcXmP9002k1eOPc6Ol0wsvB7dp2QnmKa0xFzWY9Nfi9JFduGLFSrbZPSgoLMDuXVsRZEfas5UDCa3CD999C2697ir0e/zYfqIWLT0BnOMAsmrlGly5cRNq6xvx4suv4Mqrr8U997wfN61fjRkZNpQeO4wnNu/EbXdTzjffbLZAf3nvXg6yFJffYz5ZWEkLbrCvF9dfuwF33XYTli+ejx3stKXHThAsyyinhUaXb7rtbsQnJkWMA/IuS7+/HQd3vIiMtATcete9uPXeD2PanGUY9PmxZ99W5GW7cNet1Lk7bkbPkB8v7TqI3SdP02toxTXXXIOP3EM9vXENnnnmaZxu8hoLU9+j0JTq0RMnUF1byba/E7fddRf0be5jpadQMHUqCkuKMHfpQuQW5KOpsZWpErDptvcjMXcqfv70M4hPS8X77r4b127YaKzu40fLWOEA28UGr28IZzhAulna7TfdgNtv3YSaU0fRfOoILWpae4dPYsbcRdTde7Bgzlz27zBGvEFs3b4fXb1DuPX223HfXTcgbqgRz/3qZ2iilVt+pg6LVl2LW+77MNZuvAYJKdbXzd4JuiDIAfrEXAdG6K4eO9OJvt4Arl65jKauy7gCmn+SO2uRPmgsFy1CuqcfmXNydzWXRpPcxYYR5h0/dhrr1l6JWdNzMXt6EebMnodgch721Q/gWFUDbtt0PQoJAkvmXkFXy0F3rAl+hwuzFi9BycJiFJRMQ3KSE3HeAWTS2k9Jy4GTLoaLLl2Q7qDPmY64hGQk0m1NTIpHckIK7EG94hDGsSNsPJrRJbNmIHdKOhYsmm8A8voVxfjyn96EFPcIPvnnf4NPfe6LaGhtpuKMIDMnHQvnz8CMwhykud10o2jJ+ezoP9eLQJ8XqxctJmhlI3/2HKxbvgTJQQ8SiebegJ6UyR9MoqxSEeDImpeWhE/ftxEfYqcsO3Ead99+J37z8APoJWCO+GgT25Jgj89B2JWJv/r//g37jp1B0cwpWLZqIT0fuf/qO/xjz8C2EwTNDg82LF9IqyYTc1avRu7sImw9cgT5JbMwiyA1ZVoyrlhXgtIz+xAaGqCbkIqli1agoHgaSjgyj3CUHaFXlUMLJJuWTU5mBuKcDkwpmooSDhpJWRlYu241PvdHH6dKdOL9H7oPf/GVf8ZJuttxtjCyUsNIcvZiiJp0uMUHe9YMlBSVIKcwEZ+6ZTGt9IOobg+j9AQV/v6HkRzyYdN1a9m5M6kXcr/ksHphp9VWcfQUruUglpAQb+aYjHrZXJSJG1detZGAegWK8lOweukMuvUO1NMi+dSHP4RPbLoK2198Cnd+6MN49DlayD1eunMJyEufiuK5V7Jyc1BK9ylI63X+ggXIKZqBxcvmI2cKwf/V32D+6lWYuXwecmctxdy1a1He1Yh2PfZ2pyHR6cSGlfPx6U99hDIP4QMffR8+91efoWVOa5Lu25mTh/Hrh39Ml7APVy6bjQUzpzGaZsHY7kE3UhLsyHR246c/+R8crWzF9LnTsHpVPlKzM3DHxz6MNbfdgweffAW33nwLdj/7azS3tONMpx8J2VOwgHGdGSEsumoWUlKTcLKsEYMUijxVd3AANy3Lw1f+31+g+lw7/uizn8V///c30dZcTa/Ijnh9NpGD0LArA47sOZi3cDWKcpM48Lajrq0OS9dfh5Spi1C0cCH71VQ0N1ch5PEh4HNSttm4+9ab8Efvu4EW28v46Cf/BM8/ewAeuubdnW0Y8g1g1eqVSC2YSn1fjkQq5SBdpwoOcHnTp5upi0L27Q/dcxNe+fUjiO8fxilasN/6+ZPotSVi+brlSCFv7xS9DuRGcUvWAkcMn8eLZ1/YjEJWKOT10UIZQk1rC7oGZE1YpK+HDw3SUqE5Wl5egeZzFMTwiHF1zWjskKXHDkqLzkcs7Orqg5u+fTwV2cUhOzcvi/qQjo5gKkqrm2gJXIc1S1dyZL4OW195lb67nu4EDWDJlNHTVk2Ia77Qxw5KFs2THD351KsvISqY5g40EjucLgKrg25X0MwreEc8HOmK4Yh3E4Q5LkoCdMlO08299wN34+Mf+xDuuPl6PPrLnyM5hXEcIQSo3O54faU+QBdVk+tK5GKeYXhpOdjtbj1Ck2lCVyUTacnxxp0LOdwI6luA4TgCQRzc9gAG2Bl+cP/PsX7d1fjG17+JB37yA/yfT36IIuLoTF69/hCBKAWf+dNP4A/+8OP44t9+EUuXb8S/fu078FF+fgQ5wMSxTnEsMgPTi+cYbjS75Q/STef5QMiFqXMIipRVgO69KynAgWkAeobm4GCRlEA3QY/yaZMGKcN4utZhbwAODgR+Whj6qEtCkpvWOIVKK/DY0dP46Mf/EF/4yz/H+99/O77/va+juGQK8YfWO132eAdLZRsP2VNhT8mBO5GjdICAx/tOunqzlmzAFz7/JXja23H9DTdj5Q134Exjm8nbGTdCi2HAWMabtx3C2ms2sQbW1LVeddAjwwBdM4eLwEc+ZeG55D3YEzHod+Chhx/FdVevw28efRjf/+638Yef+CQHFOpLgIffBV8w0bz6EXQkI3tKEWw0Ic0DI6qSXonq7O3Af/3wR5i94kbMZof/9J/+Cepryqk3es2C9XI5ceDoMXz0Yx+nbnwEX/iLz+DRh3+KpJREehEL8E9f+TICjHf7LbfiqtU3Ye+u/UamahHQO6EA8H/+9DO456578PnPfh7LFq/Hv/77D9De3Ysf/uxxehJ3Yfu2rXj8l7/An/zhp0y9iHB0K7MRr1kRN/MK9JkPffuCNmNYuAj8RCLjqq+54kr8899/CR/64L34s7/8LNKzEjlwDHHQd8CjF+ITnNTfVLapzQwcdtsIKqvYnp/4BJZcsRZr1q0hOH4VIyP91KAwXPoynKcDv/nNb7Dq6ptp/W7DN7/2r7jnjito5YXYt5sIctQp6qowIjMlCXk5mXByYHKlpSElI9PMWxMx2X/iiAt9WDBvKf7fl/4Bfd2duP3O27HhxrtQXnWW6d8ZUv84P3EkRCAZYY8HTvsADhzcif/58c+wZfcebN+/G69s3WIUUz6rnkyVnTqFn/3sfvzoRz+kgJ6gQClR5a6G5ohtp7K6KOgUZls8rZDCajYPBQcH+1FbUwmfEVwSSkpm0zR/CidO7Kcr+CJB4D9p9S1HgibwAx4kqMyQA3rSHo4jgLHR9WWrOFmXRDy9UOsMcSTXLzt0kIqhT/mZ107Y4VPIQH19rZk016fpMNxBVGilBdmMxbd/Gtv2HsYf/MGd9OwqCCRDBNcAlZ1ulPmgsVFdY42KHPo4cmoKugl05pUWTx+q6qrRSwAZDtvR2TfMtLwXHsFgVxXCg2fR2NOFs/40/PN/34+Xdr6GBfNL0D/QDh+VwkOr0UW8dNt84ECMv/vC/8GZ0v343n9/A6fPnMCR4wfZ4ePo2pEPijeLCltffRbtw2EM0noMB/uMXBITMxm3FB7y7KNcOnv6kV8wxXy8Wh+31jtKAkANQppa0GNau2pG4DSfPWTgiGcAbiddyZEQDpY2Y/UNd+OpLdvwh7Rk+quP04WvNzxw6GB+NgKdExmJTgz292BApqEjA00tAbjSi5BGa3Dp4nn41SM/xQt79iN1wUb843d+RvlLkPQLvZ2ob2lG6rxl8KXEE8itb9CCgwpYr2DQS/e5knnL7QK6u8LoaB3GyDC9jPJ6fPn79+PBFzdjTnEBOuurEaR16qQlb+Ng4aB+ujVe0/4ub+xB3yBlbPdwYNOTRjutken44J98BrsPvmp0bvPjv8JX//ILyNG4RfBu7u1B2bl+3HzXh7D7tW24g65YT1MDhj0jbOcw8krm4Ac/eYDyPoQPfuST+NkDj6CffKlEvcYStCWjP5SFz37mL1Fx/ADu/+5XUVl9Ei+/sgND3Q784KvfwM8f/QlmTM3H6ZoWM5ccGBpEZ/s55tNPpKcsifYB6lTR1FzzGUd9qLwr4MKPX67EH37mb/Hyy8/gA7ffiP4RgjblH+DgLSB3ORJo0ZIV9gubnWHUKxczWLlgIe7/4XdweP8WHNz9Gh784Q9x8623wEbvKMU9AGf/GdTRXf7Sfz+L+3/1OOYX56Cvs5bqMYL8oiK44tPQo/dTCOZ1DXU4192NwSHy6h1C27lWDFG86phnas4ge9YsxGUVYP6c6XjxwW/jyNYXsXrFajz8yKNqyneENEV2ASIa0QJKS3fjG//6RTgCA0B/G/q+/ysMTVuK99+7yVhPQndZWuvXrcPV668mWCmtgyOPgQMe/KVl4ffr1QUqHEu85upleOKVXXjhla3IcvpQVlqOxLwwVhQnYtP6VXj8qRdw7YZr0VTfQLA5gezUK8xTL3scO50mJfTOBcu2EzT1ZDqXnbe7vQEt7R2876NFQuuKHTfEzhcgIngZ30dkctCHnDN3OppPb+fouZPu6gwE2um+BtvY6bPR3R/EoaNnkDtcgV3bD8Hbyyr3dtIKCtLmYV2oYJoP0T9pT0ZRPqZQ8SrLjuFI8BwcfQ04cPI0MpdORWZWKrwDnTjJ676+KTh28iT6uprIPDsArZLqugYUxg+htr4Jx06dRrK72JSj+cuRvnYcP1CF6oEqZObNwyDBcv7s2UinyyKpWiNTALNn52NWSR72bn8NM/NcGDhXDlv2Ynxww3I8+fABPP3Ci6zjdNapHItnLGKzJJrOYnexBuRf1rGNQOOkxRbvpvtPy7O+sYUsDLODyAIOMa4byemZdDdP0aI7ikRPPU4dr0Av3XRvXx+SCGJtnhqca27C8uJ4HD18FPv20GpKysOe3cew4qorERo4h317S5GekoXOpGmYWliCBeRXr92YV6tsCbQuqjB13gypnJEvuWFn1QjmogVtQ31dHbZs2YKc4lWoqm7FvNmzMK94KlJTM3C6tg3FyV50lB1EBT2J/Jx2eh0EB+UvBWHnXLm4BFuOpmH3jlcwODUTPS2VyEhPxg3X34wzD7+KvS+8hJJsB0qPn0LR9Pm0hGdTzn643fGIIzC0UBdLS6vYK0awbftu9AwMoLyuBr4zXrr5yXAnZCCbrv7MmbNYIY0cHDBo3Q73eXD0aCnifR5Myab7ONyHkjkzkJWRAT/lXVddj9QkP15rqUVFVT2mcUBYXDQb+/edxM6de7CQvNadLqUBEI/5BYmIp+o7aR1KEdKz89HTUIuGY2U41urHaepR4nRNDTmRGZ+EHg64fc0LyY2PTpmGDqCQPKxdsgBH9u1GmsuLfgLSgWMVWLv+SmRlsXZePw0EB+XmxNmz1di714u+U/tQ19KJ001NuGp9OqakJmD31h1wzEzF1tJheL0jrIObOlaEA6WnsHvfHmS5evD8S0dw78c+g7a+LpzeuxWzc5PhTymm21xAPlLIzTtDr3u6qk4kMi/yymaXm6kAPQ6nqd9L/zo9fyrRvRBpvC2SNaB3gzQxrocQerVCloKBOI7E1Gb0+5KRkD4N84rSUJRDM5YgdLSqgcYP3ce0HCyalU8XdQoWzpuLsw3dKKtuxFDAjzXLFmPatGK0jSQglDoFa+YXICE4jL6BADLy2VlmZiLFHo+OjgZkF+Qinm7oVFot+XlTOfIPoTg3AyVT89BvS4QztwgLZ03BlCQbO9U51NT3oae/C7PmzsCMGfPR29KO9nONaOzqx/SF62iGF2H1nELkJsche+p0pHHU17c6+d/MR9kJDNk0z/tazqGpsoJu+CC6QsnwxSfj9g0LkefoRR3dspo2P+LTpmD6zLlYumARiti5+ptq0NrEOnptKJm3BEWF2Zg7ezr66F7lFM1HujOM2lMncbamAwPDTixdNA8rF82mhRdPBVQr0X3PTkZ6WjIaq8rRQhAIEMwXz5iOdfOnISU+DifPVKCjx4fi4rm48aqVSEpLJJADU+YswvSsMBwjrejxJ2HaoiuRn5/MgaKHA0cQhXQ/EtiRSqaVIJEmZS6Vv7u9FZ0tbejvG0IBQSCP8l26YAGSs+fgVDOVnF7Wtcvz2RZxaKxrRxXrnUNe3n/PdRzIBtHWUIOKiio0NTaxAzrxkTs3IU+gTWuKtifaO7qRWZSLgvQUJGuqhNa5XU9d/e3oqjqGssp25M24AlXNbXAmOXDL+iXIZKfJSM4myLWj6VwNgk62E+MUFi/HwumFzGcAixcU0eIOEGDDKMxLRHNtHWoJioNeFwqnL8TKefNQ5KJFcvK4eeqYmj8dC6/aQHcxkYPTEJaUEEwLCtHT2Ymz9Y2oJf+Llq+EmyC1cPkyeAeHUFVWTpCXZzKCW264FrOK8+HnYMJOQ1DyIdDbRvA9jQoOIDX9Xsxetho3rl2KbPsgKmorUd4xgC7kML+rMYcm5C1rZ8NNOVawfzS1D8FjS8Xtd9yJ2YVZ5r1k8z46s5+V62S7V9IK7kE/9aagcDpKcpNwxeK5SE7Mp8y7kZ+RhLQUJ4pogRXkTUEq9Sc/Jw0d7e20jtvQ2tFPOczE2rVryC4zDSdg8dJrkZ2eg676M8YyTqKM80tmIGNqIZavWU9vLBG9jfVoaeqCM2cuQrz/vhuvxKLCFHjDHpTVVKClpR9Ll96A666/hZZzEC1s/+qzDWho6SPGJOC2m64n0FNpDEVR5/LQBbdaUhPpEI7F+QLs2BoR/RyJQhhypSHBYUOy9NMQLR36SS52DHltdoed1lOQprGcIIIc3czukUT4ORrluGQ9dNJNDaKpn3nAjWxagvGOHiCJiR05aOlxoIfugDvBjpJUJ+MH2BkT0Ox3YHoqkDzSy45PK82Vatxf6hbTdBBEkyzLkoCblJSKbprUCeEBKmwCOgfJtzsDmU4/krx9YJ8iiCYjOYkWWSqtGZr2Q11D6BwaRig+HvGJ2fDT7chL4Gge6jXza+GkTAu4WV99IlnzYAG686FBuoW9vRxhXfjpi4dogcXh7z99G/JdHRzxaQ0ig2CRSHDyU8n0wGQEQwODmhaDPTGDebtgD3QhyeVHZ4BgnkyQYTnezlYMszPG0fXLTIuDeSBlMaBRRQ2DkF6X6R+kW0xLl5ZaOi1v+jcceVxo6B6hi5GCRHcC8tIY7GlnO9gQSs9Gir+L9epE15AbgczpJtsRAqArNIKMBFrdbPPEBHLhYPvREhpo74PHa7fe40tMRHCoG6mUt8eWhgZavBn2XuSmDjETO/qHXOgnQLkIwNkJI7CxboGhIHoH9e67E/FJKfQQUq3BU0rGQdDjH4SP4KUpjQQCHMKa8yH5K1D2zH/jl5tP4v9++RFaP0m0rhwoSJAPSp1kG1Z38Nc+bOTjSCigbtCVZ/+x0fdLjCcqEMQQ1hKkMNraPSyLeSSkIidLAwbLoBsc4qDZG4yHLTMbAabVVPIwzZxstxtuuiy9g8PwcOQOUJeTk91mmWJCcgoCI0F61EF46UE4XQ4OemlwEqD0FTJtdOAIsy0GetgfwuiknTDoSkFSdgZy2J/c3g66ecPoCTiJLVMQsrsR7+1Bfjrxhi5qL2XZNeinJZ2FrAS6n+pLrL8Rj99D44Lt0utFD/uCw51m5p8Twnq3lPLgwNHRxfpz0PCS58SEJFrnWnkRhJ9W5SDd9sFhukXUvcTUFKQk0bL2+zE06EMmgdFOHR3s5CBMfUnKKMRIkOBEXUhNJXNBF3WF/cTH9kzOMiuOplH2Cf4+805cG/uud5iDSE6eecvCYeuHZ3iELu4wnOyD8ijS0zWFpAaOKvTlo0vuJ6fizaN+876IFMvsBKcoHPXNDyk2i4kMK50cED0QiORF81lnARrQZl2sSa4wHQRKmsqmNDLgoEulN+8DDFPj8r954BCmwlkzSWFakOKV7injmVAGiHfdELcC4WCcSnYaLgRSgm/zMrpJIxNdnOsOU7COutLTYKs24iaSpyG99qA34LVbCE17ma3BQXZILx745S6c7nLji392N3ISqdUsl46ySWXlykyMLJnGlBNLhulIadYxjkbLj5C5pswIngjroYzahYGaPDakFYyUkeIpU/0yip7OhfwjVL6wqWuAgCgpqDzN4YjjECNpSU+cXtI17eJiOgKusueVZGr9tdrV6OvoTSuGwvXkVKBrnjKHBcAMjdNqB/ml7JziyTDGNtV0RJz18MjOaLKY4TuFsmf/G49sPY1//J8tzJmgo4yltmY5DssP6WECXWvz3pLuWRxEv7BvHRY3agU9ODLF6koTrFqFIsGQpyCj6hBJJ0Y3HNDfmOayJi2oS2x7S3Ik/kTOSIyvtNF+o2u2j0qSujh40ybZSv6mzgxkfHOmV67Ij+kzDFZqaZC1r6MVZvhWbjH6pbK1G4w1cohZDmhWtoYsPpWbQti2/Kezsfuqk+Ko3oqnfMQR5WWCNbBb5US3dJKsRvnTGXVAeSjNaFyjKzpjPoqsq4mqfxnp4h+yIUfWTbFvCUSitxqOZLTQqsZ4ihVb7Jkq6zBCMXWkYkp4Vt5WE1iikOIpAsulNBTHAloKnZpGu5I8BNgJo7kzt0h8cxh3TqVYuemWzqywGOkyDylStGGj3I7GNSem5EhYLBE4CXJ6417/7FoyE/AiFMym6xFH6wmgx2hKnygFHVI+XVvy1KkFbhZ3VP6wsaHHFSyxW8rGeCYTHnQvQ/JdKFflpi12ZGdKSi6TW+RgfIrbetAg5Q074GeYSnXISjdqSoU26sC6sSCttbXkLllYHdSotrnWgKASSUpC0iBg+CNYUbFMmI+8+ZlSg4He0pcEDDiQJ4eN1rGJZUrmX7WHc7QcI4twA03aeso1Df6k+YzHgcrUm7GZRBsamM7PTmejR2ARrykXY00ZcDWPVczTRYukh8pEFC0pypf40CGZ8WDCKI+WhsaS8hGNxbAOkeHe3Imwax0xUaMcjMZUPSjnMX28OMWWauWmEGvQsWh8jFhSiBUajSMaixcbal2Nr71CdESNCJXr52Cjukg3NWDpjYpYOejKWvNMOZtlce8MXRTkYm9Fu6rptAoXx28QjqMVtBoiBnRYYZ1beY8J0YJU3ZZ1xjOWwzGJgoktjynNo3qShDnasjzXtemIFsQozECIEbCVu0ItgUfjWH8NGQYtrmQxKo7IWusYJfGuTqm8BLq8x0ZW0gD7jUkhFgxjDNUNlcD/OjWXmu+kLI1SiA9zWzla3TwcazqQJHaTjmTumNHcnFDNmJ6DjrU3nHhjjqy/ONYmp1oKpLmEOAfTyMKhi+SnBWeBnMojzJB/2VhaXyvA0kJqpVfBWutq1ZV/TfurBJVlcSRYVXyLY5VvyVky0tpF5aP4suA0sJj2VL50S60cmCXdzzhTZwGP1Wb2EP19uyziFAJdPONaPOhXZFpPp+JvVN4qn/nTEtUyQZEpX7dMMoG6StWFylOOqqbFsYli+OAVL6L8WR8HN3dJDKX8o/d0PV4/2X4E9dj0Smntv2dUwwx0OjeHYc6ql+bDRdZ2YGOpdaYQE8YTS/4xYeZQnXVY+VlkxYglhYymi0ZTSCTqaJAhXVkpomnGclY7Ut7Stai+jFI03RhZfU6yGh1xLju9YZA7H43u+vAm6S3lL2GN3tdvbF7R64npJeAo6d7E++NJ/I2OvCIzMsWSblrlGOVk9jJuA0EPr/SAIjKvdB4y2ZJ/o87RMkazF5+v52+8uBjHWDDKgS4Lo+qVPO3rJpvLdFczWkrlpYgCG2bg98PTN4DuYS9GBH6ER6dBWSeKpk0zJZtXO3iiNZgWByp4QieLjODW5tdjfMoOURcL0OIS8Mphtva7YNHkzQIdq1xNQ+jVDpG4EzTprqX+KsOyE1RvhxgTCZC1MJ1ua8Cr9+UkZ14aFhhxlBXyqyxiyFIXBSoz/SogeohiE8SGX4iiTEUpNv6l0l5eUk0mVH8cvZHa/bY0sT+fr/9G47xV7Pht6PcC5BRPR3Q3DZNOrm7EkjHrZYkw0WVPPGEDj40240mhihU9LkzR8kaTXISk7nIT1amtgplg3Mg+nhRF84imf0bim4HbuqMT0vhCVT/tS2Z2coh0VLmVIY6gEolA1sxh2gUEEbgwc2oEGaYN0T/1jYTx8MOP4UjpcWTkZiLZrTlFydKO97/vwyiaVUzAYXyaGQ5ZZrxnN7PzxnGl2GkjBGhxOTWfJ3gTL5blpZdgtSxIdqU2HXDZCGBsoqjXYmw6bwjxTvLCSus7EU4BHjNWS4pTlWLePmJstW9Qc40kY4+pyqFewKWpgUTs3lNhZLJ69XK4EvTyr4/AzMxUoN6hZHzJxbyq4pAOiYMxshnfXYWZAnlfNYzSWHiUxt+XNRI5jZB1X4dusF4XaX+LYvObSBMyPy9dOH2UkwvR62v39tNEfJB8Yvv0OwV0vzeWXKxQTDoqrnXJc4GR/KtRS0u/F8/bihONfwlSVpeMKkdPm3myO5pJWdJF0ijLi4Ocfs2NCAlEWIbcTqZzCQkIKiOhBIQIespHcBD2EYD0aFDbdStKyAdhjYGRoA0D/cBPf/Yr9Hl68cGP340EO/Nins889QKGhwP49Oc/i7gEAhTLlmcb53AZbuKCtNk092fTwwOYxwkmnHW2YMgaVDQTKMByE1Di9DIs79Lggp2BekfSopCxIuWuxTOeLc7D5G5eW2UFmZGLQrGAnNdEP5uTYCr5jHTxJg9vCv7tG48gN28KPvnJj8BpTD1GlBVKcJalF1ETiYF/vFQTxZGkdIjGg5zqMEbRsAtRbNwoKUyH0kbL+N3R+TiM0qVqdzloYh+eBLnz0LjyNEzr5VmRwpVX9L5AT9aJdXUBkhJenP/R8pTRxaOSGMnwIOfQin6xJMrywiCnuR79qqNb+ehM717J+jhy5BBeeOJh9Pd2wJm9CBvv+j+4amkh3COtePzRJ3D4SAVzSMK119+Mm2+7GinJyouWkZc2mjcB3//+QwglhPCpz34MaS4CJIHx4N7DeOChR/H/fe0raO5uxmvPPIH22jqMOLNxze3vxwduWAkMNODx517D83tPITlrCtIz0rFgZi7u3rQW5xrrzN5odW0BJKYX4U/v2YClS6Zi++FabD7Vhvi+dgxXHcHaq1cjd+ZM/OiRzUjLmcF8F2LDmukE50R89/7ncfz0KSSmxuO2W27FhnVXoaHiOCpPH0PzUCJ2Hq3BtPQB/NHdq1DXMIR/+dpD5nWUP//cZ3HHrdfh6OGdeOLJxzE84sPqNZtww6Z7kZvjYjvShSfAhUIEU8k5Am5mU1MjXQuQrPmiKL1eP8bra3SQHaPx9wXKVr4Xptj4E2lC5uelC6fXnUvl/kZKeCs0ER8kn2hY7PnlpgvsJ/fG6HIzqfxjj3GkawVJUaVMxkWJnEtBTRrLZbjwMT7/iccoTSh6jGJViZEslBp7BcH6uSAppaJa0fk3kk6ktOTC/JXFowcKesm6tPQktrzyMq5ZvxYb1l+N9mEbdh45hfkz8rHl6YdQVX4GH//EpzBr/mK8tnsv/HRXp5dMhdNurWgIe/w4fvgoXPF2LFwyH4kuuZQhvPLKK2htb8HS5Yuw9bVXUJCRgds33YxQShZ+9eKrWFCSh7rj+3CsrAo33PlhOBKycf/PH0V+RjwWEugeuv8nWLRoKa6/48No6BxAxeHN2LgwD8/uPY0fPbMfH779OkxLHMQvHv4Zuke8+PAn/wTeQBiHd23GrOxkPP/CVpxtaMOHPvx+FBXnY/OW7RgJ2Ank7XjgZ9/H3KVLcfWN16O5vhwtTfVYvuJa1NS1Y/HCebjt5mtRevo0fkGAv/raa3Hl2itweP9hDPX1Y+aMEjjdsoJpZdvpftONtw5JWGA3Zs1Z7f7G9WN83Gj82GvmetFjYn6xx/niTzzOl27s0IOSCx3ni/92H+ej2PALxXm76aL9MJbh8x1vlc6XZ+xxSTJPaCw4GPuNpoueX+h4qxQDblGKZB3l6mKkqHqfz9RTAM0EOrXqrhzocoX0JFLrOPVagL4VMAzvyBBWrVyFVas3oLKmA43nGtHdW4MzZ46itqYO77/vNixZUYxVa2Zg0YoSlJYfNxs7mgK0ZjXohc/TgWP7d+Hxh36JB3/2IB74+QPYvus13HnPjUhNtGF2USE2brgOfUMBNLQ0o623CaU1Ndhz4ixWX7kB161fhVtvuA5X89xF99U7NIJ5sxbiqrXXoqG5Hq29jShvOI0+bz/5dmLGtAW4egPB59o1KJk1HbfffBtWLpqJNcunmReOy6u7yGctbrn1BqxfuwQ3rF+BhYvm4DQtydbBIKbPW4kbNyzHDSsysHHdErT30+JyZyA7Ow9zpuVjSooN27bvQtHCdVhP6+2qddcw/hqcPboL/e31lKOfwnbQsdbcJeWqVRZ6SmMo1t5Rq0SPS1Fs3OihPKPHJE2k2D79hvr320STrfGmKVa5rQaLGHK8stzMt0SRbNUFaRPAGQ7C7QgjPy+PLt1ZfPnfv42nnnkJgWCAXrsHIyODSEiMR1ZWGvExAKeLcQtz6BIH4RnR00hS5GVZh36ZcdCvfcD8xFIbPvf5P8emWzaZHVD6B3z4zvd+iB/d/1N09rQSGLzoGRpCQ0c/ElNSzSqB9CSgMD8FIbsL9rRi9Iw48fVvfRfPP/8Ura8G4ukAws44OJzxiHekwsVzl9uBXPKfl5tv5gLtfoFvGC09XvONjl/++jf4+7/5S3z1n76IPTtfwYCn3+yRlltQbLYPcoU6YAsP0zq1wxfW2leClncEDoK/draJz5gOV5Lm45yYkp0Nm9+LwLBWBrgoBz0QiVptooiAR68n6b1KkyD3NtJYd3nrHUdv4HnN+2u0hTR7LmvEN4QjR0/iXJcHm267E//wD1/CrZtuIeBkI96VwNYMwme+ZZCEUCgew4MhJManIt5tPSwQsMXFuRCfmIU166/Dp//80/jkn/4JPvqHf4CVq1cz/zDqGrtw6HQDlq5Zg7/9u7/A++65HdnpGWYta0K8m+lD8PlpoYV6CIa1Zn+zA2d7seVQBW696258kWB51/UbUJCZSqvReo9QHzXRQ4dEVyKvtPBeL57o5RG9AsIztw02dwKuve423HHnvbjnjlvxvrtvww0b1yEnK4XYHKLRToDSigtZulrASes3RLczqLkBRzxSktII9Pq2BetJeXk8Idhc6XTRU5hOllv0dZgoxVpwk/RepkmQe9eSHFR2ZoIKTSle89znQV/vABIJaquvWIvc3Ezs2bELDdVNSE5INg8ydu45oO+LoL/fj4pT1QSXeCS43PBHPmunebAAraARXwj6HpC8BpsBAV4EhtHT1UEsicfSFcswvXgKTp44haryJiTaEjC7sBD11VWackdtQz1Ol5+CmwA6THc1PjEBy5YvRWFGFppLK9BU1UgwpIvoowWlpQmqinnlR0+hWTaBKOx0EsCCmJqTZDbRHPQEsWLVtVi4YC162vrR3tBES22QViBBUS69PZ6/bjhtdh5aA+0FbwIE8mnTCtFUeQSdzd2UUR+OVlbDm5wOpGWzLIqQmm6BnJBeDxgmQe5/C72lBw+TdPnIegaop690Vs2cHUHKHqJ76cSxo1U4dngfyk4epjs5RMPFgVVL52H+nGLsIsgdOlaGw0dPw+lMwnXXXo3ionyzc4nergjTotF3NJKS4rFs6QLrjQv2d1uwn17eEK9DOFNVj2MHd6H0yCE0dgbQM+zClQvmYf3CGThw+Che3XMYh09UoaG5B6sXL8KGZXNw+vheHD2yH1Wl5Qj0+TDQ04XVV65Da18K2jvjcNPV82H31aKyugZzF69GfGYGmjrb0V5XjqsWzMbs+UvxxIvbCcyVOH7gBHoI0muvWk/sHaT7ew7z589EQkICmllmZ7sHSxbMh9fTjYqzFdC65NVrV6Km4iiOH96NfQf2o9vnx9V33I6C2VPx6rZdlIUT6akpsIVkW0YAzjxdnaT3Ol30FZJJ+l2SmkXWnF5JEeAN8noEPm8izlR2oaOtnq5oGLkFszDstSMr1YbC3Hjeq0RTaxdc8RkoKJhBCycbbhlqBC+tDtDOV82NbcZNnFqca0qyyuqm20fLiG5uQ8swqitO0QLzImfGSvR43Chw+ZAW6EKLtsAOOtAxDOzYexgbVs7DB25Zh9rGGpytq0OaOx3FuVPR0V2PmfNL0Nyfgc7BZKxeQIz21qL1XAdSs0sQSkrCgH8Ew03VmJmdQV92Kg6Vd2CoowcJdGdnzp2N7KnJaGlrQTDQy7rkEJMc6O3xoKN9ANOKCszGngLkzJwCzC6Zgv7ucwTwsxhkNabMmoUp04vNLFxlRSWtxRzkpqebDQEEcqqxeZ9wkt7zNAly73JS48i5smsHXc3U0RLzxyXS/QuYrXNEpsMqkuaqSNo2QDNe0dcItXLAZY+8TEuvlLcsUhqRdjHRjTh2/gAtPoc2emJIYAQOnusbtMPdPXju8V+ita0D+dNm4lyfH4NBOz58322YNz3HMCAwdghWtL2LXe/6BRG0JZo9ThPkLgph9T4M3U6/vg3r1KvTenYssLE+RqzHBqZCQidTMQUwS7+PIGetbHGYPXpMhSkPzfExHePHmd1YmENYq39DLF0fMw6z7tqqgHH1lrHJ0IK58WuRJ+m9SpMg9y6naONoZYFALkiLTN9YSXDFI+gLsMO7rX7Ljh4icNisTbpMJ9bkfoDxdaZP2ZkurT9jmUZIgGTtXhFgnk6H9UKzsEdb7gS1rbzbjab6Rhw9RBe5oxPx6XlYsGItFswtEDbSZWYpzE8pHQaMtELCjkDYb3jW3KChCPDq4UBY5TCN2AkGwowzyhADyYHZZoToJeTjqTRV6mqj266VH3qgEUuqs5n2I8hpD0Kzs6RcfRXCuNrpWJaxNhtQbL13OEnvfZoEud8bUjNZTaW/FmSdv5NGAc5CqvOTXncZu22lEI3PVaHWYSgu4t4ZBuLM8ivRWPxYitxkKZbdJNOMXDHYis8wWY7mzKqNhTlWiIklcOJvNKdo8Sat+WflpNTmmsBo5WSlGl3PzENL4qy1qqO5R2JO0nudJkHu94iinXM8xTZfzF0FX6Rlx4Pc68kCgbEMTNnGArLInGm98LhYEYphQyktCBLFxrXAbywy4/HUAi7riGpmNJVVvhXfgJoJH8vROote00okSFpv+NMoJMhZy7gsGstpkt7rNNbqk/Sup/N3ymjo5e2ysaAwVlIsaEVoHBtR2IlNbZFlcY0Pi4ZaZ2PHxKvz0+vvWdxZPFws5SS9t2kS5N4TdJ4ufJl6dWy2ZoXHxOMSdOFoY5m8gWxiaGKOkevXoe8k/W+lSXf1vUyXmJO7GJro1kTVeHvXG1pzZrE0Pv+LMzjmrl6I4szDELmoeknarJSI3BG9nTWZpHc3TVpyk/Q7JIFU7CG6GHC922gi75P0bqRJkJukS9A72YGjZf02ZU6MG3t9OXm/WLmT9G6iSZD7X0xRly3qGMYeYzT+6u0lqZ/y1+/E443SRP5iry8n78p74jGeBHvjoS8a8vo7k3T56H/VnNxvN8fEuBPmjJggciKyjapqNNS8UREhhb0t75rGFiCKuZ5Yvij2+u0o/i1TLEOxAjI0gcPYS55Hv+ERpdj2sl5MGZ9+Qm6m6AuR4k6Mfymy9CdSITOpOZ7G3uOzYo29R2gtzjPbuUd1UHXRi86Gi0jYOFL468uYpN+efpsh838fSSFjDysw8jt2pt+x0LeRJhYQez32c6Hbv3uayOA4eiMdOJowNoPXZfSuJMMxqziGhdE6aODUcaH6TLyepLdKkyB3UYpqqH7fSKecpLeXzif/39d2eKP8/77W791LkyB3SZqodJNKOElvnMZry6Tu/C7oPT8nF1u9QCBg9hUTna/a4+fodH9CHDOnxCPyvU45Hf6AtTzJHt3lI0I6fcsq/XoWx4iZT5gxHPWotbmGFua/tQXoceOnIN8gmU8mkka/WftGiEnEu5miiiFrTk6Vshh5p+fkJuqI9Ed7++kjOKGQjfJVHOuemWKLVFnpNB8XZlxThtbNspI2s5NBpE7SoTjpopWBScN7WoYW5U5rbqP3RL+VTCdplN7zUlNHMB9gptY5TacPm44ohf3tSIqpfJTOWjCk3Bz6gjtPoopo/X1zpLTRw5A6xW9Jqps1v3+hV2WjJfz2eV+MlJt2WFLH1COZcEDbHjH0IsVpx2CzazDJ9O0Lxo298bqbF6RoTGUdSxOvL0bSHw1jIqfDbgYOgY3DwXzYe4RZ6kQGjyIFCoyju74o2B4ngIujzkWGJSnMOCYULp0kyDFvs6UU29ECdYsDvTj9xms+SbH0Hrbk2IFYM2tbnQiaaw8zWRr6NB1H0lDMrhXSukhUkkQSPaKByowH0+tZWYCHNl00xgfDpcD6AHKUjOKbM+UhGs38AhQFJSueBaMk8xNJq5+Y7CJdZpQCBHJ1rlBI32cV+Jpan4eUyaX4iVBMeecnKy/xYqLwRLu5kQHeUkhMwgvlEa3I6+6PfX9WFLVsFPFCllw0RCmiPOmI5hK9jsa7GKlrWHa6tb2d9CMc8ptB00EdkippH7/Rh6QijjDiOo7113CoW3azv5QdPp8PLpfqwGsTz0EAZO5mMFN4ZE8pcc4ytL+e7sfpo9gsRHoneiO8T9IYvffd1YAHHs8APCE7Glt7zP5oSS4HEuLjMSW/gLqkbmSJQCPnGOiJFB49pGBGy9FYX4dwkKMuFd2dmonEtDSCi776rhjjxWl1xjHFtH7V/axcrWv9jcQYn/w8pAg82OF1ppz0q84UItB29w/C4wuiMC/DuK1jFEnHeihNTIkXpNdpBq8NblmnJMvGsbqenzLxo3fQy87tRlpKMi1nlmFew2G3j5PpE5WuxYE2sQxSjiNeL3z+MNIyUtg+1n21i75Ro/6vT9AYQDPpBRiCEYIMS1Z+Vp5RyBsvb51Hr3VY11ZINE70dzRi5ERdIy4sqGKZdC291KG+7m70dLaTxRASkpKRlJ6HhFS3SdLT2YnhgV74vB44nfrIDr2HpDSkZ+chLYHn+iYFXOgf8KK/rxe9vd2I5/20rFykJsbDTgDtYP4d3T0mf9UkISEFWdm5SE5wM08JVPyNcjxJb4DesyA3qq/a1nugAY9uK8NrpR2YlpGK9JAHSxcswoaN15pIQdNp1Eni2KEIFxGJyH1wGOssAG/Qgf5BHw7v34mq00eRqq9MSYnzZ2H22msxb3omUuCjcmpzSxHT2eNNlwxQxE52UGNEquOYDR3VkVU8Fdd8A5TxxXAUgRREPvT1KU3fBP1Ba6sgs383I7HDye3Rrr1B8hdvkxUAbN19DC9t34d//dJnCTUkBqt+ljWh3XdpIUTylsWlDS79LMRp0+65VtH6zKEsFZ9vBHaXmylpuSgJeRHP4ke19Pm9SHS4mLeY7gK8Hdi85yzODafj1uuvQRoTuR0BpmbntiVBH0aUPcKcTTnaCilEfmrrGuHjb1HxdIIB74S9Jn8/rRcnY0dnruTtOWXVhD1kNIHcyzVm1rwZDDJPIwKCX5jupArQt3uYeIRJ4smzycTsYGx9LUw2uVpcVriL9TVMmUhB5hHH+lOuTnIdGIAvlIKdJ5twtrQULl8/wv5uDHh6kTZjHZZffwfSU4HNTz2LsoO7sGB6IRy+AbZdAA3eVMxddxvuWjcN6XHn0DXgxqsHG9FeXwV4ujBkI7Cn5OODt2xElt2Hx55/AfvLTmNW8RS4qSdDI04kpxXgkx+4A6mprK14NFbdGEhP0sVJOvKeJKmqXwjgH9be3Wirr8G8hUtx3S33YOOmuzBvwTIrkokrdbeOSIAhu/bUNmF0PfjzwsuvYd+Bg7jqyjXYdOMN/L0KDQ2N2LZtOwb7BtgZ9B0GCwlC2uJbefBwCRmYgfm0nvIOs+fJOCBqMJSdkLEUzk5lXkDWuKP/PLU2v/XB7iR/6s204JQmSNDUHJiT9+Jt/Yw8ZHg819qK44cPmE1xDRHAwgSAAC0I2QYC2nge8ppCBMkR1m2E91S8sZJC7OAEb5HLZccImZD9IbywE7DsYR/50rymeCMAqm48R5hy9nfgXFs9alraTVVcDNZ3GYZ4NhQaItcelkEA4z3x4gvQ6qMscnJKUDIlF2nuYfIRxFCcm1aoG/G0DJW3h4eaUtgeJID54wiYeghAsOMVSwmRN5fhxc8QWYCG+KtnF0ac4lHpeZ92FuVBeQYHEKSlrx2MzX0z3hP6eR5imJ0Wv9VQIRw9cQLb9+5DdkE+rrnuatx04zW4avUyVFdVYuee0+glG2ea+yjcDFxzzUbcd+uN+MjtGwlW0/HaziNo71AbATt27cXOwyewcPkq3Hb7Hdhw9TVoPteKx371KCvpQ3dXD9Iyc3D9DRtwF9OrrM3bd6Gquo7pVSHxqAFLDE/SG6H37Ne6pAIO+WshjsRNTSirPIfl6zZh0axc8wHm9OR49QEqsGw4S2E0NkZm2UYpzqASUNvQjKeefh63bboO69auREpeAbLyipCelY2iKTkoykmA0+7Hq69sw1996Sv41bMvIxSfjumF09Hb2IkffOerOH50O/7ja/+F48frkZeVge99+z/w9e/8FD0jbiybUwKnaxgHt7+Gv/p//4zv/vgR7DpQirkzCpEQN4innnsCL+/ejf/6n5/hx/c/iqTUPMycMQ3OkVaU7X4a//hvX8cDT78Gz2Afhlqr8dF7b0N/WyN+8N/fwre//W18/4GnkDJ1GRaVZKO/9hjr8hv85JHHsGXPMSxauhaZibSKAp2ssA011Y345tf/Dd/8xr/j0RdeA9ILMW/mFHTWHcZ/feNrvPef2Ln7IKaVzMOUvEwCnywMduJAD46UN+N4RQu2k9+H/vs/0Ng1hPlr19Ky8qC1bg/+6+vfwX/954P45S8fgTPeieLpS3BgXzkGmLe9+yQ+9cUvIX/VzchNTkT1rq14/JmXkDh1Lmxsx2995e/x5W/8GL94dh+SXGEsmZWB3o42fOd7P8K//Pu/46nnX8aUojnIycszrWiMM7LW2Az8x1e/ha6OFnzu7/8FO4+exuzp+ShIt8D0F796Bn/3pb/B9q2bkZKRiykEJimHn5aqk6Ay0u/Blt2HkUK3ceO1V7JN6V6mpqAgtwieEdrRRPyS2dOw++BZJDmd+OBtNyE50w13qr4Hm4fNO49hWUkRcu02fO/+X+HGe+7DlVcsQl56BqYWZCMvMw2zp2SgIDsDR8pOwZGYiE3XrEB+bgLSc/Px7JadmFk0lW1QQr6oq9RJy457z9oobyu9py05A092F+qbuvH80y/ik/fdh+WLrsBH3v8hNDS26C5JwCanxfqNJc2pWCIK4VxzE9LTUjF//jyip5MDKt0iurILFszGqoVFSHTHYefWnfj+jx4gyP0D/uLP/hj7X/sNKkpPYnDIi0cfeRh2WjP/+E//jKaOIXz4o3+MO2+7E//6L1/F7t2HsGPHdpzZsxVbt72C//sXn8N3H3gQ9px8PPybZ9BHK3HXnt3Yc2gfvvDXf4VP/MEf4Be/+BnautpQzhH+N8/swI0334s///PP4cjhXTTeutDX34KXXt2MvNws/M+3v4V/+od/xl/8xd/ibHklBrpqsG/vLsxesAqf/bO/RGY6LUM/BwNadrJ4X3z+KaxduQwP/vSn+OSn/gQ/IxgeOLALLzz+AGbPnImfPPQkbr3rA3j2mWfRybpYq6+Uh428DqPsZBnuuet2PPDzH6C+tho/+cHD6GhqwKtPP451K5bgFz/7Kb71n9/B40+/hJ37SnGupR/19Y2YQkC/cuUS/Prn96OeQPvkM6+aOauszFT88Lv/ieIp2QSkx/CJP/0CdmzfitMHtuHRRx+BPT0fP3z4CXzqM3+Bx3/9GAZoNZlZBvKlb652DwFPv7jZWJnf/89voCQrF5ufeAbewWF89Rv/jUeeeBFf/+Y3cM+dN2L7a1tw5lSTGSXdDgdB0o2m1n4Msw0Xz5mF1CQ523SX3SmIc6Zj03U34O5N66EvWCS64ikFfZxHeqSPAaVgaIh2o7+f6ZJQWdeKpJRULJxbAjfVyqgXLdJlcwqxbNl888RW85pD/b3o7+pCf2sbTh49iaHBEay7ZgPbhwnGq+gkvQF6Dw8FYboklisTJDjdcOc9ePrpp1Fx9DV85JYF+Pa/fxE9fYMIamBkLOuwJpvlFSjAYSZ2QnSv/Ghvb8fw8JB5amli8paU1Hwwxa45ojg8+MDjuOvuD+HKNctw3YoiXDsjDvu2PYZuAkhecTHuuvNOjvhzUTR3AT756T/FypWrsXjeHBTnZaGtrQ0dAx7MXbjIfCj5bHMjfMmpqO0cxLAvHtm503HbrXdgCTvIjWsXw9NdjbOVh3Cwog3ezPVYd91HsXHlYnzgfXcgnGhHLysWn5aHhUtXwDPcj6H2ZtgHe9Df3YEQO2PWtDlYvuYG5OW4kWwPwa33BwNu+JhuakEGVi5diL6Obgz0D5g5un7Vv7UTg8N2dAbSsY7u2t/8DQEyI0kftqeYOFDQRXfZU3DNhltwxbprkF6Qh09+7B60Vx5F29l6FOXNw6J589DSVIqKqtNIzChEa1c/WymMAVcavPH5+MwnPgGcPYz/pGXWn1SIDZtuRSpd8RRaMHfefjc6Olvo+tUi4O0lf23oGfCjeSAOnR4bVl+1Bv/5H/+ColxCjk+gzR+2EW+hYOY0/NEfvQ8Lp6XhulmFsA8M4GxNCx5+YjP+5p//g3JfgGuvWkarOYDKE7SmCJAOzXPyCI140dPWDps/iAReO6kzdWcrsIUD02u79uF0eT2CKm6kG10N5di/4zXsem0/Xt5ahh/94jdYuWweps3MQetQG93sYcQFNQfM+NQlB5HNoa+u0cqT7g2Qr4cffhj/9/9+AZ/5ky/iK//wLZw5Wo3GhhbqmyYONKLIjR7vcUzShek9DHKaYCYAUSlLlq/GH3/hCyiemUeXMICNa+Yh7B9AdW2dedNBYvAND6O3qxPNzc2oqm7A8Ig1qRXd2DEtLZ3K6OLIrgQMC/nhJNB5/R509A/BQ/2rrGrGrBl0rTTgOj1YlAf0tddgIBCEMzmNIOCGy52I5BS6y+lpzCtI685LK0CfGgwju7AY/cNePPDAQ3jwwV8QCM6id8iHoD0J8YmZSKL1kGh3whX0Gesg6OlBW08QodQliE8hX2RrxtQ8gnQAiek5cKZNxZad+/HAgz/Dgd3b4B/oMVM6QUciUtLzTCcWPjnC1mAgCzWV7rctPgHPv7wZP/jRD3Fo3z54enuRmpyOa667FQcPH8O3/+tbuP/+x7F9+0749b1BJZfLyvolp2QiP7+IYue1w4vC3GRkxduR5EhCcuIU7NzyKn747X/CiWMHaIkOwsk62Z1uDIUTMGhLR2JaMm5cWoTDRw6hYNnVyCnMRrrbi2UL5+I3z72MBx7+GXbtfgYdPR2sRwau3Xgzus414vtf/yc8dv//4KXNz6HPy7aTWaRaqY3Iip8gGRajYQ+Sg8Pm266eAS8G2M5Zxblm0ErKSEVuRiaBfZiuqhKrnUeQ4g4hKdGNML2CcJgSC8ThHMs8cHQ3nn7y1/j593+AtqZODob/f3vfASBHcWb9Js/O5qBdrVY5o5wlEEEkkRHBxpyNM8YZZ5/vfvucfeeIAzYmB5NBCCQQCOWIJBRQREJZq7Q5785O/N+rnt6dXSWSQMjzpN7prq5c9b36vuruqmaa+puw9vXFmDd/GX704z+jNeLGNdMug4/9Ll3qnp6KOzMswWPfEmU10yooO1xDv3Fk0YT9EgfAx5+eicefn4tZ02fguosm4+knHmE5NB+pkBp8U3i7MHV9JkKP3/XsTTJ4pKYRe48cQgM1kjCPqCMDDgq6dnCSJid7S6+ErFi2DE88+SSen/kCNm/ZglAoikg4wr4eRUn37mjhiK5JYgsculsqsW37djz83DzsLW9EOokw2NRo3vXUvqgtzUHk55Ns3DRj3GmIxGgQU+q8JBqvHkI4SGBUATR3KDJ9beVqbHtrF0aOHIcf3P4dXD1lCgpysqiNkAxJQAFfBgvmoraUxnHcA7/bh0x/wDywCDZT9oJREl8zfDR5qivrsGTVZlpVubjxYzfgy1/9MtKoGTpJNpEotQeKV5qj1egDkaiP+Q0xnloS6w4sWbMFaflFuOVLn8cnP3kTuuXlI0KzbfQlV+EHP/gmrjl3MFqrD2HOK4tQVk6y1Xgg1UTl1nwRy+Y2r0sE0dhQiyrW/8GyGix/7XXzqsT3vv5FfO+bXyMZltBac9DMZUCSikNPF1qoYZXuRNdeJThA7bahvhFVB7bjmRnPILNrd0z72DR86dabUNizH1p9NG8nnI2ff+UmfOGS4ciPHsGLc+di3q5q1EkLc2hbRGaDUPZi+sLA4UbQGtmQQT96EaWhJcQ6ZiFao6xKalf+LIRZMUHzdCWE3BwnfBkebD94BLUtjNMVwDnnTsQP//PL+MS1F6MPzWlN/0Y5OEy68Hx847+/h5//6If4/pe+inhrCHtL98HD9j2rpAfHRhc27zqMIDPkYSA90Nm0rx5/vudfqKiqY25cTD+AVpkTzLzXG8Rlk/tSAy9lFXnZahqWEoVK4W3hjCU5q2guamouHDiwH889/QxKd5Wyk6Tj9S0HkF1Qgl69upPEQohR0/Kyg06YOIkm4ZW4+qorMaB/P/N00eP1cRQOoFtRIc4a2BcPP/gAKo+Umydh4bpqzJu3GHUNjDUjg2baOCxdPBfVhyvRUBbCil1N6DloEjI8ARJQkMJBkmP/lHIY1ZueVKu0hyr1MpJvzLxj1a24O849fyryswuxZe0mVNNMam1pQoxEF45IJGSsOBGjWYhAEU3ALMTK1qLmYCVqmluweOkSKh8NaKZp2tjUgKFDh2LoqJFYtnIlymtrcLiC5irDx6kRmCeMkn59/RERKdFwZL5cngyMP3syBg4ZRBLfij27dqK5KYJVKzcgl5rWDVfr6eK51GJDqKmpo4bKoDLbnS1orD+AbdvWUCM+QMKNYRnLEM9kHqlZaY5rwoQx6DNpLF5btRJrV61HNbW5WIzEzdz44414Yc487Gv143Nf/ALiVbvw1tb1KCOxHKbZPG7iKIwc3B+Vu/dj68YtqKprwIrFS+BnPqZcfB6uuPR8uH1+VLI9pIgJhnv5x0ltyaGNp0lyYY5CURJgTo4P40f0x8JZzyKsAexILQ5W1iOvqBs1bs3JkRRZQWnUbgcNGYxVry3FwgUL2FZx84pJBety5arXEY65EcgsYNpZbJw0ViNTT4/hpmsnoX/3QsyZuYBWQityu5Rg3IihWPTSdOzftpft1IJDR+rx5PTnzGssedTw9VVOLBLWWGa6cEtLPdauXUUyH8N21+s4KbxTnLFPV/X8KRSmKRdpREaaC/t3HMYzj76EF557AUeqK3DTzZ/EgH4DzKc6Dn136mJHzchEly6FKMjPQ5qfI6a+jxIL8H+a34c+PbtTUGK4409/wuyZszFv4VJk5nfDFVddg34lWRjarxAbNmzFvQ9NxyuvvYHsfiNx0aWfoIUUw+L5z+LaaRfC4S/Cmo374fNEMHrEIDRG07Fo9ZsoyvOZJ7+LlqzC/Y/OxJLVm2k+dcHebZtw0aSROHB4H7LzszG0V29ENW8zez6GXXgFxg4oRqR0FR557GHMXLgcdfUHWfJaXHfjf5DcK/DSc49j9vPPwOHLxfY9RzCwfzH69umCjXvLUDJ4HIrz/EinRok4NVPWgzvmxaatO/H0ow/hlZdeQB21rMrGEPoV0GwkGf7z3nvx4PTpWKpXaSafg/POnoQABwM4q4DGfdi29yC27a/Aa8tX4rFHp6PJGcAnbv0CBnbvitKN62iGPYQXXnweB6pIHpl94XJmITOQjgAOINz4Jv7vrifwH7f/FlMmjIO7agcWLFmKgkFj2QQxPHDn77BiAct4pAnxplr06paFbJrHd9/7JJ6dMQMzF83D4GETceVFU9GFXCNNXuYqqwGreO9T100hmTpxqPQgSg/txrjJozBq5FisXLwCjzx4H83PdRg8YhLOveBCZKSzE8VINqIVlqF3nwHIoeOKxfPx4AP3Yfpz0zF/PvNWMhxXfOxLyOnmw+trtrMcYeZ9FMPUwxUIorhLb8x8YSWqKqsw6ZzR6Ne7G0KVB/DSU49i+pPPYMHSZSjs1gW33nQ9ivweLFm+HE9MfwaL5s3GzBlPYcYL8zB09AWYNu0KaoWVWLViFaqqW5FJQtTgos+/zKd8PDp+ey1FMEWJwhn7MrCsUGlHXhc1qHgrmmscOFjaRAOqFf5cD3p060pzT/M2VkdQJbR3iUSVKJI20I1mTqilBTt27kYkFCZBepFNUswvLoDfQXsx3kDNK4RdB8MIp6Ujv6QIxRQWXxNQdmgrSnplI+YtwaFKujmC6NrFg2ZqMTtLW1GY3oKuuVGU7q/BwRoKZ1oe485BvL4avQu8qG6ugycrA11pyjgYZuO+Iwj06Ib+fpJT1XaUHgmhLJqNrEyaoLEydO85hOZ1Gg7s3mnepM8rHojyuhAy/GF0yXOjMuSHKzsfhawCn+YuI8yk1Ie4B4cPV6O+gRpkqB4BhqsL+dAvIw05zih27t2BWpqjmlssLipGblaWeT8Z0cMkySrU1wOHghnU6FgHTSHz8CGvKB9FrN3mfTtxuGof6mItyCoYCpevjxlH9Hwnz1MJb2wfNpW5kD9wFLpTifLU7cL+eqq6hf2RFm1AxfZ1FOp0ZOX2ZJtS48olKXvySVjNqAtWU1tsRfdufWni55oXltV8dVSq6jWzUN6AIX3IfDTlm2tqEWTZ8ory2Kbp1LxrcbimBlGfB/ldeiI/x2/e1PA5pevqyxLRJc1UatMHDx1CeUUV8xGBz8+8FPZDJhlVaZUfiSPgaEHPIk2+sZEj1cxEP+zeQRLyNKNnHz+87gji1ZU4cqQG9VSeQ1QZC0q6ozgzw1gHtdU12FNRiVi0hZqkE42tXvQdOBKFOYwyVIFqtqEn0BWBAK0U0091WD03RWrHxhlMcppo5r+o3t6nVqYZXs1zUKhlIkr5OGmXkAR2AK8T8zkGjEcvnsr08eqV2VgrNUc/ojRZNOeiufgAD/ZrQuYccxXxULvQR968H6f5QaLVvKE+CXMyHpnY+mZdgi/jlLJu8qmcNPOPrhkNTS51avojgeklWwmrwiKubyubqCFZL/86NY+jpBOrpGhlDwclWC/NRuifHYAErRQSUJlpMsUjzQjFQ+Y1Cd11MU1TdKYXZRiXmd/iHf5XWf0mihCioRBCLg+1DE9izjNuzD4znIgJmPlokPnz09xOQGVzmBd/WYc0lRtUH0zD55SZThOfmpRDX8IzzyZB/SiUzHcRs16II1pDJB6vm21ulUEhlDfN1Qd4bqo3GiSPM07zbh/DKQ6PwluvFQuJVAyp6cx6K02akkmYUI6tc5MGD7WLZstMWUR5sQaesOIdJNIIYzNZlMbMe+bdEYKDpNrMfOTPYlixmRM7IgPTP5QciTWsaQ7Wpz74dyW3WwrHxRn8WZckikQX43hnlsVhMamJJHobImQS6xWRE6AzyZknCgnwVjREYffJjRcSUCcJjD0ySgHXe1rWqhLUAzQJrrhEsiH5YxB21Lh5bYB5ipFMnBz9eV/EYD0YJEEr2rjLPBxRTiTPYZ6IbEQ66vgJeTYeJMSGoyhxMQpvjPG6vRkWWVK49IVFnGnEKFFGQMznUfoywxJY/Y0yAa8mxKPN5vvLGM1XTarT8meiEThFcNZnGEyE/nlPMmzI13JNwOSY4RVGRORAK50kwsq7+CJOwrE+PldefKwapu2jD91j5G2tRWI176kE6eKjlss61QS9klATar7SfODFssXDjFNx8DrITHvYEGG6+UjKDpKKXoeJifBpx3qUgDLOegIHBeVYRBfnoOFkXNYHZe2QqGiOV+XSKiua4mClmpw6RV78r3t6N1OQJaGHC9YNxc76Yr+LxhmzR+Sp4GwX3WZfUHbU6KoSxWPm5QhrSGJeGEBhIsyvi/lw2h4SMItPJMF63SmFM5bkDEwvsruXBatrWTdOVHJ1zQ4BhWONnOzkejVBrxOT3UzAGN1MlzW9V2HUGY3k8pBap3sUKsZnVuwwukC6ISArCRIhoVUqJMxGBnQwvOaYJFZ6+GDnT+nZ78Dz1PwasIBRSoyMLj3RlWCLEfUwU/nTYgXGG6/0Ral+bTGReLikiYhmGJZZ0w/jtlOykNCXmb/2/Ij4FF55kVf9KF79JrxQZHlm0ldc1mGyZzyJdKQPMda2hPnHRGiFUd2IFBQyUbv0J4pKpEQWtahP36nSTZobfUZIDPpyVvTlUXRCQoPWpXWojKqNE8DEl4DyZRdQ2TV55y//6IsZh6ORzhrQfPSiejbeEvFbNZioMR5WfQq6Sq5rO5xDZG7ibb+XwvFxwnb8SEM9wuor7EaWVqCOZ/1NEM37BENw0lYSfU4CYndUKxNKK3EYQbVgnSoQm4HnJnjCTaamHcqG+rQhJ5VB/hJRtYsHS8eTtm83RZokOotIk9NWDhWL/aG3RW/m/T7etX1BTyOTRgLVnCjDzpcOKybGb0w749ABCm29+qp86+mgVTMqXzs9WYHMX+XRfGkv2pSLfSiUSEzpWKHtow12+QwBqUS6q7o1Q4Q5V2nbUjQRqFRWLAque9Tz+KszIRFnGzpfEyJixaEG0sBFLxqQrBhUXyo5zXcNGITqWfdNUY2LVffWoRwyTyReDV4mZhO/2laEaMF2S+HksFvyDILdDRLgpaWp6Fd/1ak7+Xk3MD1UZMPOliC4uK556JZ0LX0Ub4m+hFNEI7DKbTPDZErn+gRI59YP9MKpLRA8Er4ZS8TEJ22gIyiUDCvBURnDTF0mpPIkkVF4W3AE860pXaPMR5SEoryqjgxhMQ49SFB8FhSRVWcKbaVvwUpCcSXnUlcJWqMHK0WLGi1CtEqmsKbqEocgQtadKLUwTfhbvtp/rIQl6Io1YuJRfPJpIFKWjsYyWRqT1l7RtV2fFnV5WUOWfiy0hbagNEw65s/xYefJgH4116hKk3siDvsyxvbVrK0GIPUNU7dtB2s+Ue4O4UyltLvpSpSnSwvtZymcGJ1a+EyAukNHJLpLoovoLEmA3jWO1cnkZqdhd8jkKqa7JqNsklOPt06sI0FCFiSQFkHpsHIr/5Z+Y9B2IuieiMTS2kR2Eip5crVpMlYAw886zLW0uaR7vDpR7cj96HsqE3NgbkgULVLsWDr7r0XIgn4sn0QirM5VCzYFJYJZSJTDImQ5W5pOG8yDAeXFGtTseyaNxIV+dDeZLtrQITIbnR2TrnVqDtGudZh8J3thMlap7fMktF10cCVMLdG/7W7l1Y7HXHcOksJxcWbPyb1XnLBmEh2trSMS6sWC3PhfHd4SROvMCOAJofBWfHbSduzWtXXfdjsaIgkJmiUO7akpnB3jCfJgexE6JGLdsMy/jnmyyKL9rP1a6bT7bI+u/Uy+bFiuVgx2bbX7FHjP3LaIsL0WOvqykRy3jWP7fKewUu8IK092vsxdOwO8aL+XCGlfGCR5PAk6BEvhbeMMJrn3oUu87Zo5RlonSdqOOtnbsdwsvA9lORZOVL5EcsfLk6jU0lt0R0dyZJaoW2E6hxSOlbDtr2M8No6Xj/cXSiUphWNl04bx1sl/GyzSE45913I9+t6x4zteKim8PaQ0uRPhvdTM+9orT1E3P1H5TpKcrTNasD3bEdok927zfOzynqJaOD7eQ/0cjfa6OT4+8BL+W+Bk9lMKpwVO146vfCXnrfP1u8Wx43g/Yv7w8Hbq5qNdwtMV/9aa3ImKbnW3Tp3uZFWV/N7SR6G/nqg4J8m/pcmdqP7eiyb39nDirsvU32vy76F+Ujh9kNLkjocOHVwXJ+rxHxWcmjK83Vg/sjVoP1B6lzgTes5HGSmSe0c4SXd9G6O7YjiRBvTu8Hbis/0k+X0ftBG7LG+3RG/X37vBKYn7WHWU5HbsNNtdT2V5U3h7SJHc8WBeaopZHdrYPTrs6pI7xbuzAHTo0bqwJuYtZ+vaeqWkc8DO6BBRG47lKrf2FzSsq2P5tF5ksVI392XqyVtbOfVrvBK6oeNk0Ht87e/yCXbI5KPt8QQvdLw9dPaYHFMybLO54yvfyWi7TpxYvuyzZCj+JLdEVbW/ZMeLNjc5qDaT/LehrSLNmV3m9tjbIkjhA8C/NcmZzaSPc1if+0Q6dkc6a5Vgs6y6XjilP+3UZAgj+eN9c6pQejHXfgbJ62grEvvxtSEWjSGqFXHtRPQBeTjEKNs/4bFP7K8czZ+EmxZw1Koq7WB8zGOUcbT542GVxk46kQETh15hDdHFTk9/GaH5rvREh3yyoPp6QvvGmq8o2t+Ss+KyXuxty17nm52gObb2Q6HaP+PSeRxBxFQviSxY7cRw+iGTmMUm6abow6xnfQyvjavDWuFEQRKLgKikkXiIMdMPHbSoQZTpWV/5WvWgmtaH/+ZCWeCv9XGgHJJhGvv40KohiYUe7NKYzB8VTwqnCv/WJPd2oK6oLmmQ6JfWNwFW5bm1N6vetNe9Dv2WF+barJdhoM2UKYWWOwXQLHZICbX2jUjA5YLT7UkIayIOE49iohBKShNu+nG5HDDbwwparYNxaoURl1bIsLW1xGF9LiR/zENSoax/ljcL9tXxD/2zaTHhRHG3/1l1Y4t/wlc77BsnhB2LHZPqOOlrD8FE3K5Lqd50rZVGtOqJeFft4zFx8L6+7mIEUS1xxV+TV9Wzzvmr2O349WvGLXNi/VofhfHEdrf+nBimfzhIuNaHaoLVf+yrFE41UjV9XIg5SDb8a/VnihJZwghFjAQiktBCX9bQnEQagsSOVasPzQ0pabEjCpBHiykyXrPUOLUJhdWKFfQe0hJMcpd/83mSjEudm6AGxjTUPd1OtJxyqa8yBUNVIjaTLW20rMPS4Jxawika5a80FAVmpDYJKhb9djjMjeNCGo/RemwTjod+bPM1kWVzrsMg4c9O4sSwQlrmtQ4tX669cnluPn+zK173VB6VgW1DzdhognTSOn9u1pdZOy5ITS1skbPWYlMGlHVRtSmHHBKVKjdTiWoYxqVvcOViIjV1xqtj1s+x3Ah6d7GdtaW1SpRo2RQ+IKReBj4O7EoxeoKqiMKidd0a6mtRVVlBUoqgpFsPpPt8cPmttb7Mn8Q8nr4HlZOZJzLLK1GUaFrWNAKtER8y0h3ITJNXamfBJtTT5ox7M+D3eK114mhbedzSLdoprCXSRJ51whXXihZOVNfWojg/nbdCqKpqQm3YhTSvB9npfrh9HrishemM6JqPwGV+6eN18YTJbwLiCaHNjScic56ZW5386tKiBetDLxGb5TNx04ac3gGsrphIVRqu9WMIQQsHmBNdO1uZf9Gdlquy6E6LCoRbImhiXWbkZJoFCmSApjESRySEYDiGxmAY2blZDOVEOB42dWlKojaLsxRm9ROVSevDKSGSEckpwjg8JDy6WOnz2txPXFs3bKitdTBvYQeqqytRW1dt2qNHr14snUX5CmJRagqnGmfsHg/vFZInCYlLy7ZqRHe6UFYbw8wZT2P1ilfx1oH92LjvAPKLS+An0WkDEkebhiHdQOtcWBJgCVMDFZB6LF5bir88vhy5eYXoUUAyiteSF+vw0vyl2HiwEX37kzjp3cH09Mm3EQSSUyQWwe69+7Fp4wYUFxWgsroBW7e8hX49MtG4dw0ef24u1u9pRmNLK6LRBvopZA5IiMyC5qacPNFm2U6XJVqGQCS4ssksDrakjkUVmTvproUyjXepgzb38FfWrohN5ptuR+w5PcXBssqPakFp8H8bImEt/kgXapTWzeS7crYWFhB9yZ+ZlnPJSNdkGkujvDJBJSNTX4uRmrR4iLTrOIJs2bIZXUu60kz1IMQbEWcQIWcTnnvpRWzcsh1Dhw8laWnJJw4fDG8ex7BuDbVp4QQVIqq5PZaQg4Tilx+to2wt4asVhFluZZ9epczHyMCKzyoN/cQ5kkVc2LXtIGbPnI4d29dizZYt2FtZj5KSHvCzUt2pBS0/MKRq+jiwOjZ7uKqII7x27Fu1bAne3LoZ11x3HSZfeBHqgq1Y+cYb1LBiaKWgGPEzDyzU6WUw6oyuhlEoQA4Pqg6X4qWZT+KfDz2MXZUtvMlwLYexb/9ubD9caywiPXxwyOzSMkEScEc9gk21JLWdWLduPcmnBXlFXXHW6HOowjhxePdmtDTWY9yEKRg5aiz69CyGO0ZtRw8fKOhupq9VeRvc1gJDjhjTZf6iCZIxiqYyykPE4nJbWpyeJ+i5ilE+pOSoKnjonpn/i1KY45rY123tFOE2y3hrUc5oJLF2XKu1AKgQ8ZB4eJ/ybx4GyI+IT5AW59J8JBMwZMZ60YZ9zDmJpI4xNTCQlpdXvTAzDh/98CdRyUo3PZCFAQPOEgWx5kLIAjVfemqCH9s5IO3btwceanAB3vMZogshEteO+AEzh+lzhFj+FraB11r1l3DSvyF6J9Nz+FkfjF3LwusmvagugiywqslcqG4dYTRT439p0VLWewyXXnQeLjn/XKxYsAib17/B+m4vdwqnHilN7jiwSE5/teaaA80N9Xj0vr/i0qmXYPy5F6GoawnN1d7o2bUY+ZmZSPNIt6G0U6VQX7dWROO1uaJzzE871Yt9b65BY/VWbNy5Bzk9h+PsoSWU+sNYuXE/WrL64uzBveE4/CZ+/svf4H//di8Wz5+BiSO6Y8++cvz2D/di0cI58PpIqu5czF68DgWOJjxwxy8xZ+kmtLhyUV+xB01HtqN/376IVdXhiQcfxO//8Cfc/dRsjJgyDZkZDtQe2I677rob//f7OzHj2VkY1G8AtZ8ivEUtcfYrc3HPg4/jzV3bMWBQT6Sn+ROmWRS7N6zBj3/xM9zz0P2oO7wT4/oVU+6zsHL1Ntz+3Z/i2Rkvo4FE1KtfV2T53Ljzl/+HSH0zfvuLX+LR6dPRSCLq2qcHXKyru+76B377q9+wPIuQkZGFYtbjy7Nfxv79+9Gnd2+SWRCLF8/BXqbjz/Dg7jv/jIaKMvzX//sFXnxlGc39dCxeOB+/+vUfsPXNvRgxZDzKjxzBnLlzqa0NhqvxMF587B/4xe//jtnL36LJ6kQWNe1Lzp/E8u/Cg/f+DX/84+/x5MzFGDx2KvIy4nhz9fN4ec5C/PWeJ3Fo9x5MGDYYCxa+gh/98mfUBFcip8swdO9Kc9dVg3kvzcaP/vM3ePq5V6gxetGnbx9qzU0cc0jqoSD2ldXj+ZVrMHbscEyeNBYlOfl4Y/lKmrBRDBs5Gh6vHi6ZrpHCKUaK5I4HY6dIl9OcDE2hxga8tmo5Bg0ciBuvvxF//ts/qSQ5cO6kCcjP8LHD0pNRwxjMTHhZGp3okkajdS/mwoFdb1BraMDwsefhqelzcf2UUUh3N2PZhv2o9xZhYHEO7vr1D1FSWIBf/eLnKK+pxEPPvoArpt1Cwc7DgJ4FuOXma7G/JoKZi9fi09MuQEl6CJ6CXrj6s1/Dzs0rEKvdj1FDR+P+R55DbWMTvvmd29FvxBh86gtfwnVXX0QT6lGjNf3sJz8z+7v+z09+g8suvww79u/Eo088jmuvvQYf//iNyMnKpLJCNS/SjF1vbsev/vQ33PjJm/Hpz3wS+3dux85tO1Be0YA//e1u/OcPfogrOADMmf8yGoNNGNJrAO674x+Y+8qr+N/f/xYF3Yswe8GrKOzeGw89OQOl+w/ir3f8GQX5OVi7ZiWyc7LwxqYNqK6lRjpxIppaarB0+VzUNFahuLgIfyMhHSYB/v4P96CqNob/+80vMfSs3vjq176JNWs2YevmNxlXPl6e+yLOPnccls2fiw1rNuKrP/gl8noMwl1//A3OHtYbfXv0wV33PIbmYAg/+dn/oGffofjO936Ec0b3w/YNK7D09a248dPfwOWXX4N9e/bgz//4Cz79hVswbvKl+P0d92BYzxw07lmLRx57Cj/69R0YM+l8LF22Ark5fvTt1YUaOOuLmmBuQQ+MOncyBvcponlKg7suhPlzV6Koey8MGz3SaJ4pjvtgYEllCscAjS2aWs5IGO5IFKVVtViwdR+eeHYGNqxYhIWzZ9LMiWPWK7PQFKwzppepTr2noEktTWI70umD17LxRHyxejQ7XKiOZOKaSy/DmEI//v7736G12U3+CxjtbxnNmdbMXNz2+Y8hO6MZN3/is6jPGoOXVu6Ez+9BuiuKAp9ei4jSAiaBeh3QQ1t3theRDMbjjlKjiKK8sRWlUT9GTb0S3Qf0xdRzR2H3yheRnUlDLpCOEeOGo7Z8F/xOJ5qbgQPVTWhNT8Ow8SMwZtRgZPkDNHkT9pgziHWbtqPP+CsxfMLF6FHcA1/4yg9w5Se/jSdeeAXXXz8VZ4/ujqG9AjhnzAhsWL8TZeUtCNNM/Or3v48eQwdh3JhhGNKtEPVHarF7dx08gWIcqW3AhHPPwbe++3UMHtYfwWiQpqzT7HBBw5TnNIA9bnhoJmamZ+OWWz6Nbt17kNyG4eILz8eN112BXj26YeCAQaisrEWwNUzyiKKi+hCWbz6I0Zd/C0V9B+GCc4bjY9ecg2hrJXYdqUeFow+m3vwd5Hbtg/PGn4X/uGwk5r3yEoLuQgwccQ4GDhmKSKYDjy3cgK4DRmLC2NFMsxjjJ/TAolefQ2t1A5pbIhxoalHUuxv+53++gXMmjmKPSWND5PLIRIjmaA+PEznU7OKNZXhuzjys2V+LvqMmGfNfGxal8MEgRXLHAzUz7XivbbdEGnoqlt2lJ77+jdu1aSp6dSvBWQOG0USqRFVVNWuSFCXrtKURTYdLcXBfKbbvP4SWIDuzmbgnCbriCDkDaPV0QQYF4PufvRJle3fipfmr0WT8BFHT3ARHVh5NOvr31CMQyERWj/HYWdaAmDNEzSpotiH0xq3lxPV6Q4jZbHU6eCcOt5s5jbWgksy1r4X5zspHhGm7InWknEYEHBF0K+6L5avfwD9pys5+eSaaasvg1Fyi24uMrCxkZ6VbixeL4OKknHAt9h44gFhGN0SpAeqBhnYRawz5UdUYQ26XPOalBQ4v487LJeG7qCnFmV+Scn4eQkwzEm5GWqwV+STlL3/q46gv24c7fvcrPP7Ms3hl+RrUtIQo+GH4fFqunMk6YwjHWxAKMV5q1WneNBQWdjXzYIFAgGXowrLGzHyZkwOKnoy6zC5ZEaZdhzLZxvljEJF/Txh9uucw11HUsbJaM7ojllaIODVr7VU2sDgLB/bRzI974c3MMXXazGPZlj0oqwliPglq5nNPIBgso5ZKLXz0JPTs2QdP0Gyf9dTDWPDiLNSVV3EQk27mYow+TZWaOkFTExbMXY45i5bj87ffjv7D+hilvn17wxRONVI1fSLIpkigMCvb7CJvHkbQXfPG6XFqX2EvolEPOc5ptgIM1h/B2pULMfvF2Vi9diuqq2vZo+lZTxS1W1NUW9+54fcBg4b3wlVXXoxX5szH5i1bEKJZ6NVrI9IExZgkp1aafqGmehQV5FCGqDtqBy1qhXqx101zWZujBJ0+/lKwqHl5Y9QdRUz0GyOhhEMkRgqzYaxYEK0V1Xh9znIKWS6mfvyL+MJXv4iS/BgCJEBnK8kwrn20qCdGpI0qHw0MS2LVWzLMj3krhWSkGJ3Mis+bRS00nRcB8ouTRBCE3+82/iTogYDek9FrGiRf/vpi1bhkfDfc8ePbcO35Y1HfEMT0+euxZvNeeosj0tTAkrC6Qs3UhjSJH2HdxkiqUfMVAwsKr9fN6qS7Hh3LbzTOe/TD8PpSRC8Auzw+1NaTIJmHcDhEbTWMMOsnzPsRbcXIgcClLyFY3lCrGzm5udSUmWcOYA5qj3r24eevz+VBmjsdWRl5KC7pg2ETz4OjzwB89zvfwueuvhRFrIRFM5/D+hXLEGenUNMJcQfbIFqH1pALr63cg7MZ7qILhkEcTuPAxG9BI0kKpxIpkjsJ9CRMXyXk52RiYJ8SLFm8iKpTHFW19di58y0UdilEXk6+lA96DsGfGcCgESMw+bwpGD96InJz8zm4kxIk9TR7zb6sJJ2IpC/NjcsunYxBPfOwft06VDfG0ZXaSlPFQWzYtJNCkotdO6lh7N+IMf27wBmlZkOiCVFQQ8xTLOoiaeo3RsIhucWoq+h9O97LoWmbS6OvfO8OhFua0Ur3e+57FHWVDQjQ1Lp44iUYMmQ81ry+ClUVWxFprSYJOUks1ArDerXEKo9IBe4M9O/XC/u2vYbygwcoljHs3PYmtm1ZjcGDemLJ8lU0F2nzNsWxv7QUWZluZAZcJGGWtYUEyW6mOUBtw6P3Ahe89ALCdeU0c6/GpZdchsz8HtTYYsgmea19bRnCrSHUUoM6sK8WjQ0yQamzUpuLsax6yh2L6amzDmsQ0idgMRJvjAOJtLnMjGyU5HlxaOtCtHKMkem86o1dNH8D6Nk1G4FgKY68tZ6hXThc3oD5a7dh8MgJyEoPIMQ4Yh5jeOKycSPQLTMD5046D5dedB0TzkF6dhH279iOTZs34/zJ5+P6q65DdnoOGurqzRPTuF6DUX60PSKz5/CmY/yky0w5s6ho6n0/a09ek3Wije1SOEVIkdzxQKJQB3Q4KaLU3DwBD6644QoEKAi3ffZWfO8H30bIG8TEc8dQOPzUfMxbdSSuHBQNHIGzho3AgJ6Z8FFazNtu0uRcEQo/TSJ/OsLSfqgFeYvz8LHLxpuntHFHIYYOHI7rLj0f9zz4ND5/y3/hwQcexeevOQejSYR9uhZi3YYNuOfJp1DdQoGKu8lDNI6okXgi1KBIKpoDdPryKZy5+NjEMVi75FV8htraDbd+HRXRTGTmFaNvcSHu/PX/4jtfuB17d+xATlEOTetdiJKI3WlUZ2gDSljNC2ieAkpkLs6ZfA7GDszD7375n/jUZz6FP/3159R8ynDTJy5Gfm4Wvn77d/HN7/4XKiqrMPWSc5GfHaAWRMOWwuzU6yWsn2a9lEtNNjd/EH7x67/jts99Cb/42U+R7XNiSO9uuObSKSSqCD75mS/izr8/jlAwl4RVwnagZimlUuXlb5Tas6EhXZP84nqx16UpBTIgNa+MjFzceOk4hPYvwg++8mX88jd3IeTKQ9Tjx6CSHPzHeYOxfNYz+MLnv4Kv/dfPMOLiyzH23IvhdQSohWaCY4DZ4Pnmiyej0O/Ct755O778pW+j7EAzhrNts3wuLHttNf7ji9/Cp7/+QzTGfBg+dhL7SIAaL8nd4SCR+Ux+m6hJVzVUc5BpNZTM6IyGSyUxhQ8IqS8ejgfVSlLVtLBj6s0qF7UiV2MQLV4Pmthbu6Sn69GC8aunsNoR3TyTZQdXHLTgTFQefZzPIxrxo1JzX7TJ0jXF3lJKTy2ojPdHVVoaSqigZLQeRlNdHK3OfJo3MaT7KXUeEWUYdfUV8GVmotFBjY/OPXw022K7aSZSOAPFcDWHkBWniUki1VZ8odZ6VIaa0OLKIillorsyW11HE47E4SUR+ZrR2FwKT24JWl0Z1KKiyKUQuzQxrvJLCyVikVa0RhvREhS56tOtBhKQEzFnNokrE8HaJgQ0QUYT2U0i9zlJlnUkSu1mL6Ur3kQzsYlhs3jup1lfT0EPoY7mYtibgeIMJkVtsqXVheZ4OjUqmt4kDK83hHRfK5qqq5GZTsLl4BBkucUR9EnTMg3NIT3BZjJMqjHcirR0htULubXVqAvnoNJFU9QbRZqjGvk+VgC13kgTTUt/FipjLAtVrACzmkENrDzE+gz4EGDxM6iMQWYz1cfaMDNIM7xQKl6snvXtRF0swxBXGv+kZ/JEDc0+oBejzZcsJN8oO0VDfQiBtCykpSmX8mP3q5QW90EgRXInQqJq9Fcb+0ZiNIfieludIsb+KUuO/ZlmnpQealHOONy8tl4loYlFdx16QODQy7MUIrjSzMuyCugxO+cL1ARDTkOI+qTLYebC9I4ehVd5MF9S8JdaSoxCLCXL4/dBi5fQhffqmSSvqd2IT6wPL+SJvxQ283IutSkpZuI446w8KGhC7oIRzWWZ7xEIiilNL7fe+jdPiY0jTeQQvDQHTX1Em/mrOa80moo+EoyLQk1NihEqjPyQL4zmYsIrP7wfjZNASfJRmsTiT03y6+Vf1VGM5riTJqUCy13ZM8qkI0QyoQPji0fcZq7RTMfJA+PQ9KG0I4XTiiyagkwzc2KqX5qgTg/LwmzoBWlVsmpALEkSCrm0Ez/rORahuc/A1GZJcyqFITCDCE1h1j25FB4pi3qBm6Z1E29RCbW0VcXXCVH6szYqjHOMIumrUoQUyX2gSJHcCRBLVI26oiiH0msm5GV+SlRECuq4MlUdPNdclUuspk8F+CPSkyTq6aAVCcVGTownFG4ymkqUBCcnS0aYhsLyf5gk4NEEjv35j3ktJXEu4VYACTQFKUqSMN5ItC49/WiDYqaMUgN0k5wi1GAclHYGs7RPwo5WWRRx6As2kaw+sXJTsE0U4ifei9KfyEII0UzWAwBN9Bs9SmH4j0MAy+s0hNCiOEjWAWbOmuNTefSj+BmKjppLk4kX0mw80/PKI/MkcpNmLOWQnhSr+dWqHhpsnPryIDF7H9WDGP6aD6v4P8j8SoGMx0L04zFzZW75NYWkdsv7MhcdImWmpyJaMdExRmI08apt3Pxr36UxTP8eDhZmDKJL2CkfIlymroo0me0IkVxruJmDQ5p5CmxgJZbCB4QUyb1t2NUkneN4/TRxp4OH9urVi8Xt4SQm+msJhuFDqSrSH/RisdD2LpUdqj20BSuh9uQ6nomYklNVtHJXrBYpWNeCOdcNyyvBcHY+EtG2x34sSF+x07LyZEd3LNHvGJPls2P9WL4E49bhIoHjZMj2qrOjb1t5az/rHLHtltCk29w136n47IFKP1bYjrluh3naa8qWGAiMhs8wCe96Ip/CqUeK5N5nJFdmcte33S03XR191xbJNtqSWnUUkmNKjqMjjC/dTorCaFMngOkJSdHbpJi4TOBol2MjKWGDk/k/MZJjs2OS2zuP9VgxnRid02kn8xNDiwgYmDkLhWpvYSFFch8MUrX8PsPu+p1FQNftbp3vCrYOZJ0fH+2+ToQ2Hyf32hGdoj86eCcPx4Xt7+36PzHsGJJjenexHiumE+Non+8w5cQc3LvLbwrvFSmSOwV455353XT/dxBGXt+DhL2HoO8r3r98vLeY3n1ohTxdavPfBylz9XTGe22ZlDylkEJKk0shhRTObKRILoUUUjijkSK50xm2uWlP5SQfJ8Pb8fNvgdRszL87UnNypxDvtWrb3lN7n9AxP0fH/T4n9yFDZT2du7YqOzUSfRBIaXL/dvh3G9NOt/L+u9X/h48Uyf3b4d9NezjdypvS3j5opEguhRRSOKNxSufkOkf9TueY9FmMwtjh2j6TSeB0/yzmZFX7Tuvj3cSnMPrYXnXn9Vqf5Vv1qI/6j/avj/i1w3zSosgfOZgyxyJwJ5aJOl3Q3p/Vb9vrXvnV0bn93mn/SOHYOKUkF4lpdQh9nKyPm9m4ifVo1HR2olYz6uroBtWO8xb4ywaXsEoudThEcCf7GPNd4Ng56Yzj+erortU2LLR/FC7YPuxOrG8a6TnR+Y8FCUHi9AToLBSd9/Z0e7S0eXIOj4bS0XLiLpeEMeF4EhyrbMeD4pf/Y/Dr24LCmvBtZ4rIiizK/sYOzauocdIG3RbkT3iXiZ4Qbzdu5sp8i6w+YeXblZAHu598EPs+tOfWPhOOlXcrjzaORcLt3+IKJyv/h4f3WKuqCPs4GqoCI8BtDWvh2L4tdLxnVxx/ecPjccPl1qYlvOyk1b1XKF077fY8dMyNheP5OtqvnftjxWJD9ROJRhA2hNTRp3YAi8W0nLbc7XuK1T4stC1PloDCKKxWNHZxMNBha72SM61Dp5WBOkNLRgluez2lYyIpL53SFY7h1AEi0M4a+UkDJSEpdUL5TY5L3/9avU5kZyE5cus82aUzdK/9/vF9HvtOcr3ZMVk+LTpIbjcNXNZS6SI3HWpnLe9lH3bYE6FjKp3R0fVoP8cOZUH3rPrVzmJaYj8Zllwnx3CiuD5cvGtNzg7UWRykfDU2NJqNSMwCj1qsEVquOoLi4nz6UEiGUrImcPJ6XqpIO2brPBSOoLGxGeFQK0nOA6cnDb60TLMemMRW4axRyQpndXHbzY633VcybJ8WdM7DrBhhuXUUn2Pj2O7WGGcVUQKnmOSTVyaAlRMzcvNWJBxFhJ3daRat1D0rZa3Z5nL54NfuJ4JpKnU8xa/SW3WnaxO7BIW/tXX1ZrltkafP50Nmejp82syYd6PhIEKtQYQjDjS2WHEpPcWQnpGJgN9Hs9bSgBKlMOcd2ilxolwa6rS92OC9ZCcTJgGVVaHcHitm259FwRZst/a60G+itbXwqNwcXhwqr6eL1rAL8yCxy0T1ZcKfkQM/q8xaCy4ZKk97bnS3PRdyT86p5W7dkS/rXsdcJ4dRHSpvqjst8al862i/ryPCNm1s1C5kIg+WiX3NLFbK36ysTBO/QigFbUBtp2bVvg7Lhx2r5aZDsPKTfJV8bq7aHKwctrWfWSXFhuVbS/xJFKQQJ0SCaK+J9risHxONdXpa4V2TXKKraZlB1Y/ZjU2roYnkFs9fjNULZiHgCKEmnIc9lQ4U57vx8x99CRn5uZYqYfosA7GzahVYI1aRJp5opA9DW9I1Njdi9etvYN3ajagpP4I0CmDJgPGYdOG16NGNgivyoCD7SX7Kkf4pJm1GoqWwJQAuszyk29Jg6O51ty+DGA4FKdBasZXxaGcRObrpP8wGpxBqnVtBYb3KKn8ZhQnvYsEVzMU/Do50Ih2HliiX/0iQdeFmWm4j1G4t1auNbEz25IednfnW6Oh1+9FSE8TC15abPU+3bV2P5rpqnH3ueXh97Sb07N4fZw3or7UimR6F2aNaVyYkIBpA4giGQvB7OZAwY3X1Tbj/oYdx8PBB5tGJQWcNwWVTp6J7F22Eo9Vya1F/ZD/uf2w2dpQ2ISc3k6ZjCC1sk/wu3fDpm29Ej+5dTR4tIrW2PmxVm8VdJEvTUnRhurFWpGnFWzW6KsW2QRlMC1Mqp3JSCBU7yhpdPG8p6qoacf1N00y7K1gUbAdDDPJJumKFu+y44s0sp9JWhes++0ikGbUNWfj13TNxcO9m9C4E/M5m1nUQ/q5DcdnHv4xB3bxIp+8IG0zl0GY40iBdJm5mhvGbmoxT42VSsUicA2fygqNW3pQLkZc2M9L0iINE6lQn0B1PYo5TxXewPc2OsR7T51RzJgatNswwcLAcrij2bNuNv/z5fnj9+Tyy2YysXfaPKRdMxrjRI7Ft8yYMGTwQOcVFJv2gNHn+CyiT7Gsxswwy0+WP2a0szF6qzs5Uw8EWuP1prHur/nRbcegwrabdyZRvCavLZcmdbhLaiS1KTyJT7cexccNeNDc7MH78INN1ZVmrTBGWJU7287q1Djxh+jQP3jTtLTfFybhPF7zrHfRVIJVFhVJ5VG+mQvlbXFSC88cNx/gRg1HYdwSWb92P4Wf1w9kjBsCpnV3UWdVokkp2HM3amfGJQqO1ux3xMGqbWvDMS3OxbcceXHLxJbiYnWBQv954/Y2t2HuwAkMG9EG2P8KG1EqxbDB1FuWKHcHHWtdy1k5STZQkqjM1hpedW3lUV9Sy4h5pBVoi26yNraGfLambiokEbFam5ZVDjiQls+uUVtZlMPUrNbZTPYDJhhi39oFQuu54E/2lMZTitXaqkmBCS3KrzIxV/O5WZ1Vcfjd69OgLR8CLzZvWoezwPgwZNg7dug9G18I8EouEhBqLWapbOgvjlBYoMmU8EbqLwGXy3nvvg3hr+0786Pu3o7gwE1ve2o3aoBO9+/SBX3mN15PnDmHl+h0YOOYiXH/D9Zg8aQzOGjwS69ZtRV31QQwZ2A0ukmZYu4GxXJGoEz6W2+1Sq7vQwiJon1avtlpUDSkvZsg3lcU0ghQy5kne5aSs0j1MIduwbj0O7d2HiWefbRYKdWrJeNZ3hMSgPTSYQ0bTini4BQ61h4MDBYU2zvhM6zH/iDWR2HPxwPOvY8CAnrj1litxwcShGDfqLKzZfADb9zVh9OB+SHdZ+WhVSKbv4B+Pdqhh/tRPwmSniJaU531j2qs/qH1oNUS13DnzYrWWtK4Q3E4PNWDNV7KvcNSJhZhjFY7/Q/zTzDJ42Hfd8RZGz3yz7qIRtpUGP2cLY2pE6c5DmD9/LT77udtw8SWXYOyEcRg5ajjrvz8yM/0oys9CRiZlhH1D1Rdn/JIQ9XMHDykATtU7BU7XpnK1BSXz5iJJq/olW/a4IwI2+45IttTZtDa8WRaZ3tR8DG7yz/ZTWh60sLwhZGZ1R25RAdJ99K6l7tn/IqwjN+VG9WDkl9GpwTTealDTQtkmfaHt5MPHuyY5VaCgOlJ51IlMn+aNNDKANz0AT1oAryxbjgMNNfj0TdehKDeHAUhKIiQ1niqW//RXofXXjK/UcLbtrsLs5dsx4ewpOHvCeHTJzkFBTi47QQGys9IwoDid9duE//v1H3HPg8/i5QULkZaTgf7FPbDw+RdRWVqKe+++G/c/9Tw27a2AoymIF+67D48/9SxyunVHn2JqK9SAXlsxDz/935/i+ZeXIhTJR8+e3eHzq2cwJywTRRXNVfvx8vPP466//R3PPjsdg88ahC65uag4eAAP3/cA7nvgETwxexFGT7kMmZ4IDm5ZiSXLX8OMV5fj3ocex+xX52Dy+CEIZMbRcKQMjz4+Hf+46y7MmzcXA3sPQBoCeOGV2UgvyMHB0p1oaazD4KHn4vkXl7F+q1BU0IgDh/bij3+7F/946GnMX74efahtFWV7sHrDRjzy3CzMXbgIlWUVmPPSq7jts5/HyBH90D3XS22tAnsrwzhryFBkscM6Yi0I11fhtU17kdNrOP0NQBfWW35WDiqO1OHwwW0YNqwHDh4qx5//wrI9+DSWrHgdxQUB5GdE8PLKFXhs7nzMmfkcIuWHMWDgQLwybyF+8/vfY87cV+EhkfcuKaBWFcZdd92He+57CMtWvo4uxSXoUlSEtzZvRKSxmsI9EdGGJjz31MP4+9//hIeem48mdzcM61cMd/MhzHz2Gfz+jjsxY9Y8ZOT1QHGv7mwPacUcLDiQtISy8eKSrYaQL5w0AJnZPqRnZ6OmrBVrXt+OC0YNwuEtr+F3f/4LHpn+IpYuXYmhAwYgL9eH5vLdeOKxf+EuDgjrt+/BW2U1qKwsQ69uedi6eR3+fvc/8M9/PYsXF67hQJGPXl2zsGvHm/jbXf/Ag488g0XLN6H/gMEkgoDRpvSArbLVgT/c+Tgi1XsxsKcfFVUh/OH+uST2OAb06sKerR0h4ig/1IRVa/bhymuuQs++eUhLc1GbToff70BF+X6sWDoPaV4n1mx8E69v2oP72E9mPfME278KPfoNRXrAgV3b1+DOP9+Fxx+diaVLFiOb7ZeRUYhZLy5F6cFS3Mn6fIr9vryiBYP796e2TU00WI/7/vl33HHvY5TJzejHwbMLravDB/fg/+6+B/c8/BiOHCrDKNa/J1KHVev2YsPuGNKpoW5fNQvPPf8MHnnyaUwaMQ7hqiY8+q9H8PeH7sHC1RswZNwFzLNl7RgWMAO5cHow3bsmOUFFMAf/GJriH+3u7uZoJjN0z4FazKQgTzx7JCaNGUFtQJudcFQnM4oU22Ow9jfSwODSKBsLYseeWuyt8WDSpLNRlMMRUoOsy4cCml29e3RDc0M5/nbH71BdUY1vfOUbCGRlYvGyFcijCbB2yWt47LFHcNMnb8LQkWMxY8Ys7Ni0CR+/5mrkk0henDkdI4eNwtJFK/HCnBdx6VUXU7AnYOniNXBQOxpE7UC753PMQ13FYcx9YTrqaxpxw/U3GVJ49NG7kJVXgBmvLKKZ14pp112F1pgTv/3tHZh26Tk4tGszHmEn6z5wDKZe+3Gs3fAm9mzfjuEk0JdfmYf65iCunjYNhV27YsGr85CTkYk5ixej75DBaKirQLipHt37jMT0WYtI7CBx1uP5Z55G3579cPm0T2DXwWosffV5XDB2IGYzzy+v2I4rr5qG886eiEsmT8DoQX2oAJFQSSKrt+5F2J2BMcMolCyQM9pERagKa7fsRVGvoejVvZiDErUsNtmiJavZPo0o7JKB2S+8RAIeiKumXY/6YDMWzn4aY87qhWfmrsKrr+/Dp6bdjAtHj8VLL72MJatX48ZPfBz9aFZv37oRPgr+sxxodu49iM999jNmy8L5ixaRiPJQfnA3Qo2VGD9mLElxEfbs2Iobr70KJQPG4W/3P42zmcaRDcuwYOkqXPXJ21DUsz9Wr1mHgYMGIDvDx0GHGglJLhgO4PkFK9GvVz7z1ZPKCQvHjrVs+UYSTD2JJQ/z5jyDSeewTi65DFWVNXhm+vM4a9AgLCQxhDiQXsX+sGffEdx3778wsE83toMDr776EgacdRamXH0znIFCvPrcEyj0tmLhipXoMmAYpl5+Hcvnw6rXlmDC+BHU5KlhaRMfynawPkzyfxKD+nbH3OVbsWVXFS675AIO7jJrqcmFm1G2vx7r1uzAlCnnIjvXbywDqlk0F0Ooqa7A3FdmoaioC5a8voV9YjU++4lrcN6o/pg1fwWc2T2pPTZh3vNPYezICbiceWmJtODVJQs5iAzG/IXrsWjRq/jETZdjxLCRWMj67RKIo5CD62//8jcE0/Jwzc2fJDmn4611r6NHegYenfEcQl4PbrruYyjd/ha2rF6IkQN7Y+7KPdh+IITeRX48de8v0ad3Ia67YRo8vjw8PWMBGppr2e8vRm1zCA/8azouv+hiBGTtk+Bs2U6eOfwwIUXsXcGmJ0EEp0NzAG7Nn0RbDGEt3lCK2voIxnG0T6cG16ynfkxRJgltEysQY5HBotkzszOUSC5ah3BrvZnr8kjVNk/9JKG8TzOABgO27D2C7WUN+MEPvoWhQ4tw5eTRKCkowra39qGOo2qPwUNw9sXn4YIJwzBlcE9cesn5GHLBeZg0cQTSGg7iELWw517bhJHnXYErpl6NiyaNxvmj+mD96qVoaqC5QbVcO7jXVFRRu6LmMeZ8nDV6AsafNx7/96vvoNkZwWHqYBfe+DFMnDwKP7jtFhRFSCrUKEMuPwaPmoALL7oSI0b3wtU3fBbzluzA1rciKD3UTC1mLEaPG42rrr0WP/rRf9K8L6DV4TAqf5gmkMzgCDWuEA2gONLJ+V1Q5CvE1DHDkRZuMNsZ1lUdRJQdHq4s9B9+Mc4+fxK6dMnFwME9KJxNiERimP9GGd54az+JoAAcJ7TtK+uP9UnzJlhdhq2rlmP5wvmYTS1y+uzZ2LhzGwZzpI5G/RjQsyemTh4BR6iMtV2PluYa1Ne2wBnKx4Sh12PShAlw+LtRy9uAczkQnT1mDK646BJ8/bZvIiOriJrANky76RaMHj0S540bigKaYlupxbW0NpGmWhEmszb5/dQCxqOQ2rknTBO0fB/K9+xBVUUDKhoo+JkFmHzxBfje976EHoU58GkSSSOkTAaahJFoNd7YsIbCvRxz576Gp2bMxYqNGzFxygREqbYWDhmE0aMGI63pCMMGse9wFVZtq8Smgw6MmHwFho8ega995pMYWpCLLJrSTjJ9/379MIrkXdvYiMZWmszsA1V7duFQeR121saoUfbFLdOm4j+//gWaci5j5rYyP7nM2sfO7oseHIi+d8dzmLtiI/7jmotYjxlsQ2XYsnnSPdT8astY7/Pw6hwe1IJXreLg6vCwz3FgdXJAd6chMycfk6dciAljh2DMpMEYNWoIlq3dgqqaOAef0Rg3cjTq6g7BwdG/ORpBZQNHKW8+LruSg93kSbjg7NEYMbAElbvXonTLMlS3hjFq2ucxZPRwfP76ybj11tuwcT+wZ38LbrriKpw3dDA+dcVUvLF2PXaX1yLsJAF7/JRXN/oMHoSLzx9LRaAEFU21WFvRiAuYzjnjxuDLn7gJFXt24/Vly9gmLCcPzSLGdH6a4H0hOcvQtK8lSUF25jg27T6IIWeNxoCinkYr8mjeg78qv4OdurnqMEr3HcLeQ43UbshtMu41KeygkLMTO5zakTxIE4h6HhmUbYlgKMbGbcEeEo8/txsyMjMYYT21BCeyuuZQ6whSwF0oKulhJgkCHGm7paUhLycHIb8HXpJTdqgeUWpgh4MRZOSXwOdIQ3pmJnpRkBrqa1GnvUWpnvrcNIgbqDW0+pGe183MPWg+yO2LmVK2+qlmBbKYzzg8nhCmnDMce3e+SbL3Iy+vmO4+q05IehFnPg7W+tEYS6cWmG/mT8LUJlw+n9mGMBzSwxYOhSR6TXe4nCR7NJi5mK4FA5BfNAjTX5qP++67G2+uXYwgO7jLFYXTlwmHr0ibUHFQYJBoIwNHsX7rDjz24hIMJ9lOmTAGXt3T6MLIHVHN6jmwY/tOrFq5GitWrMBbOzbjM5/7GC6dejFKSgawjNmY9corePD+v2DL2jkcdOoQc6bB7cpnnXZTNnG4HiiraUJhYSHNFTJvhMOVy43q8nKEOTAtW7GKJtUjmD3zWVRXVfK2HvpwOHO2UANuRn7PXthCAbnvX/dj4ZyX0FpxBF7Wy4iJ58AbSKMp+yj+9cBdWLVsPoKNtVbHsRiOf50Ix1zYf6AcS5evxtKVa/HW3gO4/oZrcM2VF7COMxBiWac/+TBmPvQ3vLV2OftSHLS0UN4aQMSbY+ZK87JcmDiqNzX4emqcOYzXixkvzsPf/3k3Nm9Zh5qqMpRQ4x5x1jCsWLQUDz9wLx548J9Yt2kj+5o2FGd1s/s74nVweuowYdzZWLqpGpldemLU0O7w86axUcx8n/XQq7q2Glu2bMGyZa9h2dLlPH+T5nIV77DhqQapz6h8XYq7IaDHxNTWtAtb1JWJvPyeCHjTqaXNxD/+/j94fd0iVDTWoylORcGdyXbLMP1We8GmcaBMC9ehpnQH/JldEMrMY8xMJVxprKodFa3Yub8ay+YvxXNPPIvl1J7VsHVNzRxg3QjHfWxzN/xpbhTSnOYIh+amJlSxjtK6FBtZzcryYyytmw0bVqsSeDg4iKp3mZ5/WuBdk5xgFUOzavqXiEwS6ozS7CrH4cP7MJjmgV8CwN4gbdb4oWc3tZQNK2fh+ecew+w5i7F7T7l1jwQBD0mJKnsrCaW2vpJhSaOxENs/hF07t2POS3PQUN2gbTxJFAzjT0MdCbHJH4GPGoOHlZzlDVCYmRA1P4cjne3BkUnpshO5aVrqqaj2GQ62NPKceaYVpE2A/Zk5iHhchsT0MMLpyuAtH2pag2jSgwNlkoOmmwLmilELpXah/UWbpCk0HEJ6Tgb87HCOMImZrCNSdzPfUVcMYb8PLRT0ILWRiDqCJo4j1NyoQahbxHXNjiPz302i98abKXyN2LBpPZ6laR3tNQqf/tq38LmbpyE74GLZmTDJXxPbypbCmNn+Fie2vrmDxB/AtCuuQLfMAEmYVaH6IEjfCGQX0XT5DH7w3/+FX/38V/jxD7+D88cPMQ8Ttm7ZhleXvwFv14H4+re+gy/fciPyWa5mRh33uClIzKDi4xE0piMbQu9R6XBEkEaCdkeakZeZjvz8PKRn56D3wKHo2X8I0vxeakz15OEWzJ/zKqo4qFx07ZW4/TvfNvOTHBvRZVBffOdbX8RNF49DDhv5oXsfpMa2iQInolDLaHojjaTSFZdediN+8uP/wU9//N/4z+9+HVdNORsBatTb167Gtg0bqUl1xw+//VV85qbrkUXTUHPuUZqH0jTcFOjGUA1K63aiOd6ADZu34PX1W5FDgrr9m9/E12/9NIp7kGhoIXz6xuvwh29+CaP690RpTRXufXYW9laEwDEXPhFYTKN0EGWHDqNX116or6vFocoD1Dbprg4jgub/Zvb8/D6D8IWvfRO/+PVP8dOf/gSf/9xnkZuTbcplPfO1jgjrMxRihURY5850RuHGm1u3YC0JOz0jhO9/7zP4/K03ITs/l93cjRCtD6+ffV0jkBQKhld/97v9tPDV10h8jJmNaB7yudM44PicNJuLkJbbA4HCfhgxdiK6dy1gX9GzcDYwO6Offderh0BNVArYf7W9YwP7bMzhZJpBlFfvQ2FJvrHS2CENyek4XfC+5ERkZx8UNcbq58jPkZqVWFxATUvspnZLPK7Sw0YHpW7YiOG44vKpuPjC8zCgT6E1cRkjIboLUFRUjC4ZTqr1r+JIWRm5IIIadq5ly5di37696N+7N5pr67Fi1QaGSUNpWTX27KJgZ/rgD2g/z4j1mJtHUE/Q2Mni1JZaSU7Nnkw4vW4MLMnD3m2bUMt4wi0hvLl7Nwq7FbMDBcyTf+U5MzeXfYIaw+H9aAm1sFwOLHr1dTRW1cHVUIGD27eZ94l2lx7EinVrMFoT6iRR1gI7WJB0QiGI1vO8DgVdqNmxw5QdqaLmFkVjXR0WzJtLbaiKfVJPeyPmiSPPDPEGeBGlxnO48giCHFHPnXoNirr1xNpVq6h57UdDK8k0EkR6pAzWA1hmxE9h8eWhF7Wk6y87F12zrDoXcTpUwayPpri0HI7SDr1bRtlkME01OGjGRqjhVlRTS87KxcQLLkWPXoOwfu1mvLl9L5rpLxatI/ke0DiG9HSge49CbNq8iZobbzLsbp7rlZYe3YtRQGK86qprcM75FzMLlhbvolbr9GSR2B1orKzAGJqGYyaci11792H3ru1oCDZj+559qKmtwUXnnYNP3HAD64Rk1NSCqArBfNMeZ3xO+Nmh/CQsdRu9MuElgzmpTUgzrquqRm5WHqZcehWcJX2wZOkStNBMLM7xIScAVBzcZUhpw9a3sHILz6mVV9U0Iic7n+beuZgydig2LF2AnTt2YTu1xS1vbMDQ7l1w49WX4Yprr6Fu5kRzUE9cmR09saUGWl5ahkWLF+LWm69C1xw/Fi6cj5YgB0YNohq8qT22UPhb6T9MspZmKZ1AsF7k0msdmrrRfq8chEVEpg/nmRe1nc3lLFcpArmZmHT+BRg+bhLeWLcJW9atR7SpnANrGUMGoT1tRWghptvszEBBn1FoqKpB7Vul7ItMpi6C5SuWIzc7jn59i81c6kWXX4rCnj1R0xikBeInsYWR5qhk3begNaq9a1lp1OI1tZDBPrBz60aayU68uXMXysoOYtSYkcyxpp4SBTqNIFl8TzAaSOLcAtUjZzbKy3cj1x00Dw2MB6myHjW2+c+UM5DTcwxy6N+uGD2UcKoTs1OXdMnBtedNwtJFi/GLX/zKpKI3r886awiuvvYKCldPuoVx51//jMefmk6hzMTQUaNw7rjReHzTZgQZJXnLjDqNVLMj1Mc8FOpaaokVNMVcaQHccu2lePnFWfjOD/6TZpYHAwcOxpVXXIV8mgh6Yqb8dCURTr38PLz86suYMf0x+Eg8emJ1zQ0Xgv0BC2Y9i5efehBOagm3f+nbGEzzfOvGLSSzODJdEfOuVjo1Un+kiqSaBtd5Y7F40Xw89dgjRqsZftZZyCYxOmhGp0WbSG8sFYk+EqLCT/PPx3wOHDAQ81evxX9/5XMozMlEpp8i4OmCgxWMn2Xq7qlCtqREmqUEhcwVi4SQydY1I7eql4UxJgRNkHoHy0/tOtNLknDTXfNEDCtt1+NzYdjIEVj82kr8FzWjHA4aAZJjWnYvVFTUUEOrRDbJxsc0cnOcuPVzN2PmCzNw61dug9/jRa9eJZg27Vrc+IlP4i933o25c16Ejypz/0FDcOXlJVi6TwRbQlLPwchBA/H0w09h9vSZ6NqlG3Lyvdi4cT369u+Op555GXf+42G0cjDo238ABvQbyNyL4KiVOGi+sW7zHAeQ5aLpbPRukoO0a+3wz8Fi6KjxWHLv6/jSd3+CbJcTOTmF7KutrI9mXHb2SCyc/QRefuzP1NL6o/+Ay5CdPRDD+xdTY3wS//vT/yIBRdG/T1/kk+wPV9Sjomoz/vHAI9TC2ZN4b9ykczCoR64RIAl3Y2Mcv7vvKfQd1Bs3XT2BhJ2Du+/6K2bn5mPaNdeyDjLYJ6jhsJ85aa57PFFyH9uM7aZNtl3UtvTeo8uXQ60/HRk+D7zBGrrp+X46B5cmdEtrwcghQ/DC9CX43k/uIK9yMPWlox/rrvnQm8hxllOaClhH1usv0UA6gtTiswaOx7SrMjHj2Tux8rEGWp2NGD1+IqZeNQ3ucC0eeuAeU89+WkQ3Xnclsgv6whPbgkJ3M/tjHurjOTjiKUF3XxHN8BCuP384Xn55BuY8dZ95d/Xrt30D/Xr2JSGqo7FMrA+V7XQxWd/Hb1etwokcpDZEQ61orK1GICODDeGjmSAya+d5+8z6KzVP7S0f1ryFTEuws7YEgzh0hJocO5aXQpSXl2veDNdnS26Onnv3l7KBaKZSPS/pWgRPwIvq+hqOPFEUFhRytA1SswgyVgcy0ylgzF91XT1yqa2lsSPV1dahrLLKpNmlSz7ycqx5CyFKdc4oD/xTRT/VHA1lgBYUFRnzLRpswsHDZeblyzR2kOKuXU1JWmm+RanOB3xp7IgUA5bryOFD6Nq9hO5RVFfXoaGxjvGH0aWwiJpnGmqqKpGXlW3KIjPAR01XJo+L4XPy8lBdXoamhgZmxoX8LkWopvaZn5fPjkXtK9iILObb4aFuo4c0zG+oucloxl6pWyqc5jpZdr3Uqjaqqalkp/YiwDohw8LDwcBY9zxU5vLDh2nKt/DCjQya8K001zPS00ieFFA2TlZuNsJhtgHbpK6uAeUVFSaZXOapIL+LMREOHDzE9gsxeicJMcvMedXWN7OO3CyrF011jSTOSppkEZpM1O7Y3hps8hhe2mQ1NV2ZeQUF+eiSl8OykRA4mKiOI9SQGusq4PH6WfYC1iV7Dstga0atvC6vKEcT+2Aa1a0u7DeNDfXma4g0ElfVkX0INtWj2VGAex59ETdccR4uGN+fVsNh1FFr1Ft53Yq6orElSOJPgz/Nh4MHSs2gHpam2qsH0tKp3dBFypHeudtfegA9u9EiYf1oGqO8otYQRzplQJ/V6TVFLYBQSc08JyeHedeXQPynCuevvlKpZd/MzmbdtjSZeTO3P0DOcqO1qZFuDcjML2S81aivbzIWcB7NXL0P6ufg1NhUh0xqr/4AtXk2QHVNDcmG/YcDo5OadvmBvWjSlxZOL7oW6h046yX5I2XlaGZ6gbQ0FHYtIQF7UVtdZqZzXN4MDubs3yyDLFY6Icb+duDQETS3Rqj55lBuCkw/t6nE+mvJzemA95HkWHiSgp42SdA8HLXiUZpfJCK93S9oUtqugmPxvD5UlhkiSCexwyuLVkdgJ2mLS8ZPpxgUNZ1icY6SPNcclL53tcD45EiBTngji0U4ukoDIHWxE4rU7IaxvyWMGDLVk18rX4LIQLE4ZNMyvL5ccOqVft1jXMqriUcJJRJThzRRJ6JRUFaVQYRh5EEvKKvTqW4U3sV07TzokzbBfJPKNPX0VF80yDyTvalwTr1cTOiBhupf0JNaB+tQFaKwLsaTnHaIbvoyQ9A7XfpmUvn30H415pTsWN2jNZrIgkE03GKsMPNCMwul6QBpJBqmGEVbfYWYT7c0GPrVAgua7FeVxNiMTtW33qrmPX1xYKcVDZOwyNB62myaWUVkmZQvPYWWf8UeZ7n1Eb7SFfGFmZaPdaL429Iw0TOieJjlD2Pz5s148qlnMWH0ORh61khs5SD59KwZ+OP//gTd8tJJuOy7epjD8Kxk075xVq4efFmVzF/mhR1GPth2MvnVuC6SmyhQ3hiOlWN9wcFbdpsngutzPa+X7aBwhN239at5OFcinkRFMt/qn7y2KpH9T3el/bGOaK549ZKaGlW1QC1On46JVPV6i/qJ+qapFaXD8KrUGGU0zgqSRh9jOSV71pcg7Av0ar46YjkcRvOUCc3gSYcNlUH9X321M+xyfdh4X0lOUdkFU+HVqd0UILnp+mRLI3XOSnK45PDyp0PXdpq6b6etX739bxOD0PlasAiMJMWwOuxzhdcR4ohtL0+k8BJQOw/yp/D2feXDLq/1sb1eB6B/tr0huETRJTcqpnglkV2D5HJ0Lm/yuWDnW7DLJTflT3HYcRlIsnSuRBO/ZjBieNW2bie4xZCc4KYDk7Tl2MiP8q9y2OQo2B+XW+f6KoDlp7mo+VCtOKMvFUSWEmW7qOIHzWMpO7phnr1QI9DCC4LxJzeSnoRYefIyDmXN8Axvm7BEjJlXnXu9areEG/NhSDVxrQjNh1F6YCFNkeerV6zCSy8uQ109STHbjdu/fxsK8zJpmqkfkGjiNHuZMYcqx+RIGiTzZ9JTPTMWOrfVMaGBypAEYbKXKJ+gKkryaspmebUKYsdj9582KH0Sm6wCDU7GeyKeuCoyCWZVHrtt1UgiREIEpjaSu+Kww6m95C4TWn4UxpRNSgXLIndBfU+H3a+T82fn2+5v+k1Gcv18mHhfSa4zThb1ySrhvYY/Gd5p0Tv775z+ScuT3C/p9WTZP1l6J7vfRnA2dGoH4XmC09og0lAcJgjvJeSkDZ2jF8lZEVo3ktOnGJvkk5Ec3ohQRzm1o7HAcyohHdA5/c5Qddh+rOkOHrwOS/6ZGHNEkuMAZO7R9OavvpHX/JE+6ZK2E3NQqJV7Ep0eeBwPIjm9ZpSM5PaQHte5/jrD9m/XW8fw+tMpgvbbx0an/nB0+JNFkAQG7ez7ZP2v83XywPxh4vTIxZkKtXny8W+BD7eg7amTIfVKTRuTygQUaemgsLLn65UHia1bD11IanoR0pCz5oUTGuqHhg+7v5xB/TVFcim04Z33azuEfk+NVLzbWI156ggZonNRw5BmZ3V2kpyD5i3PyG0G1o9IkZoptTe9whMX6aVwRiBFcqcSkp6kwzJxrOMDRSL9Nhwn/XeeLTti+xCOH8vJfXQGzec2An07dCf/R0Nuev9Qz2isyheBWXG3+ze+jIvOLPfktI8+7LDH9/8eYEeeDDuh4x2dcbL7J8I79X8a45TOyf07w65U/Sb3F/u6ze14Hk4BOjZ1Yu4tCclz2SKAY+0BkQx72e5jw3p4837CWi33+FD57DT1uMM61TielI9EFJqH0wMJ6+18y9kMQPrlYQxXw4rHR+f8dHxlQufJ1yl8WEiR3CmCJSzHr1rzksCJav4UyMfJSE5PUdtAAT85yZ2467zfJHey9KwnhkqTZZNXO/3O2TD3kknK0hdtGIKkixVXwvMx0JnkrSfNtn/7SOHDRspcPaVI7uydj9McyVL/kcEx6vYEVW0VMdk8tdCx6CeIoC1kcgwn8p/Ch4EUyaVwbHzUZfU95T9FVGcSUubqKYIq9UQVa0aXE3l4H+Ssc9OezHw8uiecKIMnj+/9xsnN1eQ5ucTfY2VR0dA9Kv/mn+XUHrv1IsnJ66tjfjr61/mJw6fwwSClyX3gkGCdWFiPxjv1f7rCphKrPMcqVfvdd4PkkCeIyXrMak5P4IvofPfEvlM4PZEiuVMIWySSj3eO44cy34m2/Xsf8b5FZpfaPtpxrBwf7XJitMdsDRv20QFHOVgwfpMUreN4S0KyDxP6GIdg/6ZwuiBlrn7AMC+h8tCbWqx8/eUh8Nws7atTuhnTp6O5004Mlol1MpzYnGqHnQvzsJAnVqiOYTtD/u34kn0eO4XjIJGwnX7HiKzSJsen4th1IHftvmUCGc2MBibzb74TlQcTmGf8b05ttyTo8y1jrtJdUSVqn7Bos22RBf1JrrtEhEc/XU3yY1JMvk7hw0KK5E4VOtSqLRX8TyHUx0b6uMhpvv2UMs17ZsVb3ZFgyM344EEonAnefl//kqTScu6E9ixYZ5YMJnuUmMOsMGFIN0YK4W0rWvk7RqQJWLkmFdCLcm7DfDTVnvDxYfthRAqvcCZhuZukY4gyIisdufOM98y3pXR38dqhD08TKwUrBu2RYJXRikR/rXqz4tD7cJaj7cDDgA5mgBGFKlz71w4mjLlvrVpnDU5yk2tyA8hLW4QK0fZrspRA8nWyewqnDu2tksIphISBB3u1BESCYirefHqkw9IpzDeTnbu+LS0G8pcQLLl3PpJhohF96bBvdhYrK2CbsWekN+n3bcD2aVHE2w2VQCLAUZ3QRGJ9R2poTgRn8m70q3Z3uzj6HIsuNpKJzToS9W/7scMJxkn37Lqy3pFrg/FrBUgO1u6efHSEHYt+7UNIij2FDwBH9a8U3id06P/s1va3lBQks0eztm3kubbECfM3TIKzNljWrvj6frJj0ygaudjHUZJjw07P6B32IeFNIBHG+tEryVr1TL9a/FHirY/VjRFnvJ8QCS8mycRh8DaCtoEZsbQl0otduA4RdYiZZzwn6ZnNqnlEqT1pNZC4GSjiCXddJ/wrfkNc2imO9e2kP91L3E+KmrDLrdqw8qWs2d+46vtXxWeTaAofDRh5SeH9h60bWPqD/ulMxKadzHlQULRBThAeQ0OCreGJfOS7A4xUUQSTJcwmBUkjnbW0v1II80ILB9km2PFgaY301yb1yoF96Pr4sPU/QXqVdFD9CsdPMQmGfRI+E4WNMKQhFPto/0mgnaxVZ1riPkSSkwZs6NmhXdZIZrynumiDzXj0GeX9iNkQx6opMxFpPsZXDBpyrE2MksvQlmpSdt9WGVM4LZCakztFkGBoPTSJoJPCpCWqHZqDY2031TWhtLYZIV+G2ei3OCvD7HRh9pelFqKt9CSYRr+if4moMblcFEQt2d3UisOVVdRaeIfqhVZC9qcVIC+/K9LSLSHU8qBm7TQDa/NjxWl9n6pVh5k3JaP49Ut3cYHOBXspOnGodgXTQpG6pUUpzSKMvK9FZrUgrEvzZGZ+kbkkYYgA3YqLfgwbiEN0qpV8dc44tCmN9pWIB+NwR51wZ7oR4j8tquuOeczKwNq426N0mZDLrbpR5tNR1xTE3rJKs05cXiCA7nnZ8MpkNQt0xhHkaWMjy07VsCA3zeQjFg0xDhGY6lX/Qmg6tAe1NSFE4n60ulp4tMIbKEZh1+7IYD5rjhxkWiy7LxtFeWlm93ptmh5R3TAnFqnr0BX/2pVH2HeOB/ls953CqUSK5E4RVKkiOYmdCM5pVmiMm3X3//HQw9i4cRNl0o0uPfvha9/6HvoWpcMb0dJA9GaWAjK6iSE5swCkqMvNozmIv/7+Djz38sso6NWdZEFiIDNkphXiy1/8Ns6eNEKrWxt2UrCjBYk0ENPy8B5zX361DaCLkuvWRkM8l8lnHgQQURKS+SZUy2ITIj2lFyWZmX0heO3QMtlx7eXgZexus9myjx7N6rw6GNQiOF7ITCfTSdMsranGikVrMWLACAwb1pMeta0f6dnlMQt6hmIheOjX7SSpRmoZLIyyiiCeeOoVLFu5FK3RFuTldMOXb/0mxo0dYPZJcsaaUH9kH/728PMIp3XDV770OeQHLNJXZWipck3xuaNBPPPwg1iwcKXZkCgUq8PO/VvRve8o/PLXf4eT9//6h1+hpqYJvkA2Lr3oHFxz9SXI5UBiacCKTjXYjhTJnZ5w/YxInKfwPkIdWEJuURV/Y2QT2lcvL1yGHVU1+Mm3v4wvXn0RFixYhdLqGMaPHUifmh2ziESwV561BIIiI20pGMTq11ZjyPAR+M1vf4ubbroe066einRqPG9tWIcxg0rgSo+iqbqR2l7Y7JcQp0bk9VvLtAeD9Wior0SI6k4o6ESTyNdHIiGruJqiqK1vQm0wRPJULkjRsTDCkVa0BCNobAqjpaWR2lWc/urRGJLexPyS7Nx0i4eaUEkNtb7ZyZK4DdHpfn1DA4kxhNaWOrQ2N8Lnc6OFmtf6bW9i4dLVKCrqiX7dCqE9ZptIKo3N1OJatUaI9km1tmfUbmZxDhbr39iJXbvL8b2vfwFfv+2TKCtvxNzlb2HExHFw+0heteXYOO8J3PngE8juPxETzx6DaAvjYj14tT8t8xpubmU9xDB60mRcdd0NmPbx6zFh/GhEm1tw7qSJGDF0EH784x9j2PDR+M2vfoGRQ/tj+WuvIS0zF92KS0juiRbqxFLHe0XnWLDaNIUPAimSO5WQDUgTS9qcsbRaQ1i7eSNK62tw4fhRyEgPYOvWPWhxBjB67BAKjwhO2hu7vwSG/61HAgIjkIZGk3bVayvhSU/H8LFjqOWEzea/dYeOYPe2HRg+YjiiJEJt0/jqq/OwjH7LqmtpyqbD523F3AUL8NiTM7B+5WqsXDQPR0i4Rb0HIkh15tnHHsPM2S9h6Ypl2Ld3G0qK83DwwBHce/e/8ObmtVg493neW8EwQby2eitemjUXh3dvwdC+2i3LhXlLN2DWrFlYvmg2Dh4qRY8+/c3mMXNemoWFixZhxeuvY+aLMxGixlrUvTeeenaW2Xc2jaZp/z69sGvbbtx/34N4ffVKbN68iSZ4BgryCs3eCWbTFRKe15eDIUPHoE8RGQ211JZzMXftIZw/eQzyqK6VbluHJUuWAdTwMkr6YvyYkVjw8hIsn/8yRg3ujbqGIP41/RWU1TSipHsviPvD9Yexes1GHKmJ4vKplyLdG8XTzz6L27/9A3QtyqMpzHZbvwWetHwMHNCfxGsNONYgpENUribT+duDHTKFU4/EkJTC+w1NYsdkZ9LeNPNQbpqi6WGMH90XxdkePD3jRdzz4HM4UFuLSRMGIZ0mncRW2+ppQkuzCGaLPYUVRJhmF2jtvh+jFtWKqFvb3DFgczMO7C2F052JUFof/PKeOWiJuvCt227AJVPPw/LNb2HPob1Yv2YuXnhxFq7+2K2YevGFqN3/BvZu3Qynw4f5y9Zhx5GDuOXTn8Ynr7seW9ctw8b181FRVom5L6+mOZ2Pz1w/HmVlpXhkxlIMHXsNrrnmc1g1/1WUvbkUb27djqde2YihQ4fjKzdfgMOHtuOux59CY4u14XTZ4UpccPmNmHjh5fjnAw8j2OLAueMuxDnDBmLK2O7M33787uEXMGLyefji527AsIE9sWzBQpTu22/mEV1e7WDrQ0FBAbp1ywTSWE/BJmx4YzMcngwU0SQN1K/Bywvmo7nbuejDuNPdTfAz1KQxk3Fk/07MmnE/5ixZiO2VQeSU9GFVUjMOV8FdvR9r125CZv9zSIwDkVvQBXf+5Y/o05umaawFBw4dRH19I7KoyWnQiVOzVZvaD5Ss3zhNbO2kZR2au0zh9ECK5E4R2gUgMc7T3IKbZhK1GBphlpbmjSEjM80QmHngZ+btNAcWJ2GpaRiDNbFHzwrAIxoyWs3SxUvw29/8Hj/98S/wq1//ERu27sLosy+AK9OL/sMm4OKLL8KBnZvx0iszsWnvXlTXNGP6I9MxYcREmsaDMGnUWbh4/GDkBdKgTd67FHfHZVdfjqrKSix4ZT62bdpMYjpE5TOO4h4DMHrUMAwaVIwRZw3B0MFnY+CgPPQfSNMt7kQVCXb9628g7HBjHDXUPv2749zzL8ILr6xCQ9CFPJLG2AkTMWTEEIwcfy5Kj9SjsjqI/OwuGJCfiX5pEezYtg2ebgNxzqVXoXv/npgwajB87gj27duJsMx0Aw9NZcAbbyI5xbF9zW4sWbwU100dixx/KzasX8k8ODHlqhvg9GfCEY0gJxbCgBIPrr18Kv7KQWX6SwswcuQwDB7cnZotI6OJXbZnOyqrKjBozHg4tRu3O4AevXvCHWlA6YEDeH7BCjgDWejXh24ODlpmxyrSndG2aUp3OORknadweiBFcqcIGvH1YoP+xjXzzqG/hdrAglWb4Ervjs/8x4249VNT0LdrHl6ZvRLVVRRkM/hHEY40YduOLdiwZRO2bHsTTY2NdCcBUmhFiF4K0OCe/XDB2PNx4ZRrMOWKj+OWr9yO8RdMBjkLTZXbcQ81kTkvL0RWbi4y89IpnDnYvrYa3TKL4dM2da4QumRkMZ8iY6Chvhr33fV3PPf0s0hPy0X37mchHE03xIWAk3mmquTNQrY/F4W+DKSTp/VeW5RaYCRSgJryCqxZPgO///2v8OOf/A6PPzEP8XAOgtE0RPwBBLLTjbXtdtF/PEAt14s4id/V0ozc1ihaKmuQX1QML9MCtdCMzAC8/hjqm/QUOW5evGnhgVbWRWMZ1i9ei7ueeA2XXXoxrjq7Kw5RC733+TUk1CKgcjOqS/fgSFkQLUfeYkZ3YtDAQXB3vwhNkQAmDChEPlU8axxxY82mbdQQs9C72GkeXiBi1DQmWI/5i5djV00YV9x4EzW7Itaj2omeYtTWdEhrs8/NQQ0+8ZvC6YEUyZ0yiOb02kX7rFpzaxA+jw/d8ouQnk6TK5CJkpIeaKqpRzhIc1bvXVCL067yL86ejXvvvx8zXngeB6hRGXNVGkTiYXifnn1x6UXn4YIpk3HulPPRvR/NLwruEZqFjz54F26m2fmt//dLTL3qOhTl58MRd6G4uDca6+rhktkb8ZBAvMymFyGavgvmvYTLL7oIP/7vH+K6669EelY+Yu5ca0dpZysJSdpLFnwOPwKImKeVcUcIYaeH5JNBU86PKRP64Jvf/Bq+/K2f42tf/y6++eXPIzvXhyaydyu1T+3or+XGI1FSa7gF3lgDTUYPOS0fWd40tB7aQc2KEbuycKQxihCJMIdaoPZbVepU7EiAMby1aQeefOFVjJx8Ia7/2DTk0pKtbwiSg/tg3evrMPNf/8CaJa9i9arXsXLDJpq1LVi+Zg0HkkpyZA22rl9BBa7eove4D6XVUfTv3x8FHCA0ZWAITo+YmZeysmqMGj0GQ4f0htfDG17mxOxr6mLe3Wwyt/k9+hClp3A6IEVypwiSE70GIU6yzNA48rMyke8Oo3zb6zhc0YyqUBHWbN2LQb1ykZ1ueY5T6ItIRt/61vdxx5/uwH//9//DgEEDLcEitIlxxOVESzxiKRyJFjRmHM/DkThqmqipZRcgnJWNLW/twRsr15MEjuCz3/gY5i2bi4qqIA7ua8aC1fvQrHfUXC2oKjuArPQsFBTnYc++DVi3ZR0qGlsQCofgRZDEyMhj2lleG1g3mwJ6PV6Tl0iaC4OG9IHfGUJ9XRMCOcVYxnR2vvkqO1gdXMyYh+QuTdXtIgFQGwrQ5MwmPYa96TjgzMeYMWNQv3kpNq96jfXixPo9NThS70Rh175Ic+ppbQyecAN2vLkb901fjGHjx+PaaefAn+FG0JGJAQOG4E+/+Sn++ve78ctf/wG33Hwjbrr+Uoy8/Ca8FeyGJ158Ab/82sX48icvwfJ1b2Dn3j0sSyuaglFs21uDUSMnQrN+IlPowYI7DSFvPi69+BJcMm4wAubJUQLGFE2JzkcFqaerpxAUFQqSdZi/1EyK8vJwoHQv/vXMTEx/eTEyfB7cdssNyOuSQy9OWkIOYw3ptQk3D4mSFV5EGUIrNZkt23eYp6sjx4y1lAqHXq/QrwOZOenIK+qGv919F5asXIGGxlZqTHEM652Lyy8cjaZwBP946Gms2bgDNcE4eg0djBGjz0Jxfg4efeBBLF3wMkpLd5Go8kh4PVBYWICyA3tw0fnn0ozNxO7d+7SjH4aNGE7CDWPDhrUYNHQQxowfbaYMn1K5XpgNP7XKz33mOuTQ7Ny3Zz+yMnLQr09vtAZbsXjBHFx32YXI9LqwcuM2vL5jr5nzGz2oN+5mHl6cvxiHy2sw9dIrMLhvb6STdByxIFXhOsxZsBTT5yzCgYN7sWLpXMyYNRsbSXyD+vZDdobehI4iEo5h+44dcHicKBk0Cg8++woyPCF89VOXIb9LAXaVlqGqohxDBvRFXUMIC5aswkUXX4i8nADJVPN/emHHSe3TgwMH9pHkQyjuQm1YrUHTWXVt/T0ZrJY7FnTn+HdTeD+Rehn4FEIKnOnIiRrWTygcNU/sqmsbEIu5qMH5qEHJSJIZ5DbzXLKUPFQc2r4YMBLBEye1N5qajY1BhgVN3gxqSNKstEKGWZfEWHtBmoKHyyrg8waMBuWKRlDij6ByxwaUhcmKXfujvgWYPn0mhgzuh+uvngp/PIr68iNwhFsRSPMjRPZ0Z2Yh7nahtbUVXTI1kR9DtKmZFmOcpmG2SauyuhbpgXSk0fKNhZtRWVNrvu8Q4WRnZFCddaK5KQR/eoDkHacWR3P8yCEUFRRAO6zXNzeQuCPwpQVoCfpQX1uHaFSvZ3iRTaIN6BkNTV3zRnQkjCDzUllTR7M/gNaWEGIkMleaB3nMj5cVpa8aEImgsZWmtEtfTtBcbmqBM9aKopws5jiChvoG1isHhIxshDmilJVXontxAQugWT+jM/Jw6W0dhFqb4XE7kOZnG0nTphYapVand/gcRo1W46iROoOUyPY8HkyTWqcpnGKkSO4Uor1qHcZ01TukYf5q6o2iiGhLA4VQs1vyopd1pclR1ihE2tVdgphMcjFn2IrH4TFPWGMUZrfHQ5JzG3cFidLd49RzXRKmNEG6OaIheKJBLHvuWdw/43mMvXIaqlsiCEcduObSqRjRrzc8TFOPSIxqKOkWWRARPQjhr57++vSCsPnelAyrOULz5YILITrpjQ6RodunT76izFscPjfVOZl2Uo4YVMuNuxTe1AvJk5n2uPTSbyv/eZl/D3y88kT1mIHpk6QssDxkdQfz5jDUStIL855bDKjoWxm9NoRWeelAv2axARbexbzolY+I04cwwyufzjjjNyOJ6tyUhuGZSfMUV8Qk8iLoJcJyKE5ViwURnFUgo9nJk+rtKJjXt4+C3BRCsH9TOLVIkdwHBFVyckVb3z1KvOxubx9yMXoCT5LEgKft717J3RI+C5ZAqSVFb/orN0sIFRcJQjepCb00Zw4qqcn40zNx1pChGEAzT6TrcTFHjN9ojyZ+CzKfrdgSh+kuPIw2ozOVxPJvPam10tfcnSECE5+VI3mzrqURJT4Jk3/GpY/fFJf+utryYeXfoC0f9G/qwYpf+6daaVo5tHJiwapHxmV8aABxkeD0QZnisMIbfyZfiXQSMZi0ElzXEbpj5cT2m8LpjRTJfaiwiEKiYgmkDUuALBereSS+Vku1N9dR72IZ4aeb7SXBMLaoS9OTbhQJ6V07GmXSIhmpHma4qdV03Cw5QRh0snORzLlWrKIpO5f6m+zB0nLaspL4FWw3ldmCKR1/rVrQmUI7TX46JEpY1xa5yXfH++0xWuRmXcuPnU/rTAOAtbLw8UCfbSR3In8pnO5IkdyHCpFSMtpFVIclltaZ+dupqTqTnLUc97EFUnHJdI1Eo+aDd5GbHZ+DWlyUJqrTZQzWBNpJrg10sC+tPCm9Th7aYJHc8aBQNgXZkG/bxYTueLsDLH6Sh+OlkZy35JgFXZ+M5Ig2kkvho4xUM55WkNC1C1771UmEsQ3H92eREkFiMxobic5syWeWLNGEvTVJbqfZFlMnhw732pDsmkwm7wzvJKSV2tE5aYedJ9tP8nnyWQpnOlKa3IeKzppcMjoK5anAyTTDk+NE+T/x+KmUT9TxTOgTeThpVt9GCu8p/hQ+Kkhpch86TiRpHwV0zv/pXp6Pen2n8E6RIrnTDikhfH+Rqs9/d6RI7kNHZ7voo2Ynvfv82z71ax9CWwwn9fB20NnzOwqcwhmA1JxcCimkcEYjpcmlkEIKZzRSJJdCCimc0UiRXAoppHBGI0VyKaSQwhmNFMmlkEIKZzRSJJdCCimc0UiRXAoppHBGI0VyKaSQwhmNFMmlkEIKZzRSJJdCCimc0UiRXAoppHBGI0VyKaSQwhmNFMmlkEIKZzRSJJdCCimc0UiRXAoppHBGI0VyKaSQwhmNFMmlkEIKZzRSJJdCCimc0UiRXAoppHAGA/j/EI0sElfqXP8AAAAASUVORK5CYII=;" vertex="1" parent="1">
          <mxGeometry x="770" y="380" width="267" height="291.74" as="geometry" />
        </mxCell>
        <mxCell id="tZCrtHF1z1mg3ISMcb_O-9" value="Cliente faz o Pagamento" style="html=1;outlineConnect=0;whiteSpace=wrap;fillColor=#EBEBEB;shape=mxgraph.archimate3.application;appType=proc;archiType=rounded;" vertex="1" parent="1">
          <mxGeometry x="290" y="70" width="150" height="75" as="geometry" />
        </mxCell>
        <mxCell id="tZCrtHF1z1mg3ISMcb_O-10" value="" style="edgeStyle=elbowEdgeStyle;html=1;endArrow=block;dashed=1;elbow=vertical;endFill=1;dashPattern=6 4;rounded=0;exitX=1;exitY=0.5;exitDx=0;exitDy=0;exitPerimeter=0;" edge="1" parent="1" source="tZCrtHF1z1mg3ISMcb_O-1" target="tZCrtHF1z1mg3ISMcb_O-9">
          <mxGeometry width="160" relative="1" as="geometry">
            <mxPoint x="330" y="270" as="sourcePoint" />
            <mxPoint x="490" y="270" as="targetPoint" />
          </mxGeometry>
        </mxCell>
        <mxCell id="tZCrtHF1z1mg3ISMcb_O-11" value="BV Recebe o Pagamento" style="html=1;outlineConnect=0;whiteSpace=wrap;fillColor=#EBEBEB;shape=mxgraph.archimate3.application;appType=proc;archiType=rounded;" vertex="1" parent="1">
          <mxGeometry x="510" y="62.5" width="510" height="197.5" as="geometry" />
        </mxCell>
        <mxCell id="tZCrtHF1z1mg3ISMcb_O-18" value="" style="edgeStyle=orthogonalEdgeStyle;rounded=0;orthogonalLoop=1;jettySize=auto;html=1;" edge="1" parent="1" source="tZCrtHF1z1mg3ISMcb_O-12" target="tZCrtHF1z1mg3ISMcb_O-15">
          <mxGeometry relative="1" as="geometry" />
        </mxCell>
        <mxCell id="tZCrtHF1z1mg3ISMcb_O-12" value="Reconhece o Pagamento" style="html=1;outlineConnect=0;whiteSpace=wrap;fillColor=#EBEBEB;shape=mxgraph.archimate3.application;appType=event;archiType=rounded" vertex="1" parent="1">
          <mxGeometry x="520" y="170" width="150" height="75" as="geometry" />
        </mxCell>
        <mxCell id="tZCrtHF1z1mg3ISMcb_O-19" value="" style="edgeStyle=orthogonalEdgeStyle;rounded=0;orthogonalLoop=1;jettySize=auto;html=1;" edge="1" parent="1" source="tZCrtHF1z1mg3ISMcb_O-15" target="tZCrtHF1z1mg3ISMcb_O-16">
          <mxGeometry relative="1" as="geometry" />
        </mxCell>
        <mxCell id="tZCrtHF1z1mg3ISMcb_O-15" value="Efetua a Baixa das Parcelas" style="html=1;outlineConnect=0;whiteSpace=wrap;fillColor=#EBEBEB;shape=mxgraph.archimate3.application;appType=event;archiType=rounded" vertex="1" parent="1">
          <mxGeometry x="690" y="170" width="150" height="75" as="geometry" />
        </mxCell>
        <mxCell id="tZCrtHF1z1mg3ISMcb_O-16" value="Notifica Assessoria Jurídica" style="html=1;outlineConnect=0;whiteSpace=wrap;fillColor=#EBEBEB;shape=mxgraph.archimate3.application;appType=event;archiType=rounded" vertex="1" parent="1">
          <mxGeometry x="860" y="170" width="150" height="75" as="geometry" />
        </mxCell>
        <mxCell id="tZCrtHF1z1mg3ISMcb_O-17" value="" style="edgeStyle=elbowEdgeStyle;html=1;endArrow=block;dashed=1;elbow=vertical;endFill=1;dashPattern=6 4;rounded=0;exitX=1;exitY=0.5;exitDx=0;exitDy=0;exitPerimeter=0;" edge="1" parent="1" source="tZCrtHF1z1mg3ISMcb_O-9" target="tZCrtHF1z1mg3ISMcb_O-11">
          <mxGeometry width="160" relative="1" as="geometry">
            <mxPoint x="330" y="270" as="sourcePoint" />
            <mxPoint x="490" y="270" as="targetPoint" />
          </mxGeometry>
        </mxCell>
      </root>
    </mxGraphModel>
  </diagram>
</mxfile>
